<svg width="343" height="225" viewBox="0 0 343 225" fill="none" xmlns="http://www.w3.org/2000/svg">
<path d="M48.6679 10.8173C48.95 11.5478 49.1334 16.8587 49.1232 24.7837C49.075 27.774 48.9392 28.6705 48.8234 31.7044C48.7076 34.7383 48.6158 39.8826 48.5212 45.1827" stroke="#001A33" stroke-linecap="round"/>
<path d="M47.6792 10.6676C49.5605 8.51214 52.1087 5.41579 54.2307 2.75311C55.0724 1.69695 58.8161 2.21503 63.5526 2.87456C65.9728 3.21157 70.5581 3.64342 76.7789 4.47002C79.5817 4.84245 83.7075 4.12769 89.2286 3.74005C92.3388 3.52168 94.271 3.27642 95.6913 3.19606C96.4772 3.1516 99.5285 3.48517 104.496 3.94894C108.814 4.3521 113.019 3.77983 116.535 4.25449C119.574 4.66488 121.66 4.50798 125.789 4.66812C130.578 4.8539 134.204 4.19075 136.85 4.12991C142.36 4.00321 146.522 3.25901 148.798 3.25758C156.299 3.25286 158.188 2.46632 161.033 1.90594C163.492 1.16835 164.984 0.929153 166.325 0.665604C166.7 0.605183 167.12 0.553404 167.553 0.500055" stroke="#001A33" stroke-linecap="round"/>
<path d="M165.381 1.48444C166.893 1.71339 169.396 1.64239 171.204 1.34503C172.985 1.05207 177.869 1.6706 180.837 1.78071C181.409 1.80196 182.23 1.76497 189.027 2.73628C195.825 3.70759 208.575 5.63825 215.561 6.58364C223.358 7.63865 224.748 7.40529 225.667 7.48826C226.399 7.55428 227.333 7.45569 232.336 7.36938C236.737 7.29346 244.918 6.74284 249.383 6.54953C254.35 6.3345 255.503 6.38176 256.768 6.23223C257.998 6.08667 262.333 6.28396 269.617 6.36401C276.544 6.44013 281.051 7.52253 283.093 7.37818C284.64 7.2688 285.789 7.10113 286.709 7.5217C288.642 8.40554 288.262 12.0036 288.789 14.0287C289.343 16.156 290.193 21.1546 290.721 24.542C290.905 25.7221 291.393 27.5761 291.686 30.7983C291.979 34.0206 292.116 38.5421 291.945 42.4664C291.774 46.3907 291.291 49.5807 290.997 53.58" stroke="#001A33" stroke-linecap="round"/>
<path d="M71.2454 16.2589C71.212 16.4793 70.995 19.9445 70.7845 26.1077C70.614 31.0996 71.098 33.6551 71.1476 34.6823C71.3917 39.7344 72.0118 45.3979 71.8945 47.2094C71.7681 49.1606 72.1309 52.1251 71.9051 55.6897C71.8408 56.7043 72.6019 58.581 73.6027 60.8403C74.2839 62.3782 76.9181 61.5268 78.613 61.9525C79.7969 62.2499 80.319 63.743 80.8001 65.0097C82.5734 69.6781 78.9783 78.7961 77.5809 80.5214C75.8671 82.6373 72.1664 82.8887 64.7858 82.8028C61.2611 82.7618 55.5746 81.5242 52.5129 80.8351C49.4513 80.146 49.2172 79.6596 49.0547 79.0082C48.1396 75.3388 48.1303 71.071 47.8014 69.1373C47.5644 67.7435 47.5395 65.4066 47.9728 62.1654C48.2675 59.961 51.1907 59.6875 53.5368 59.2417C56.2749 58.7214 60.5404 57.3524 63.8932 56.5398C64.5295 56.4637 65.1479 56.4446 66.369 56.5714C67.5901 56.6982 69.3952 56.9716 71.2549 57.2532" stroke="#001A33" stroke-linecap="round"/>
<path d="M47.3648 46.1399C47.1641 46.1095 43.1474 45.5013 37.1098 43.9628C31.7139 42.5879 33.6929 33.7654 32.7225 31.9469C31.8535 30.3183 29.9807 29.5232 28.1165 28.1541C26.5105 26.9746 20.7702 25.604 16.9332 25.3085C13.9827 25.0812 9.69491 28.6182 8.41281 30.2039C7.35703 31.5098 6.59599 33.308 5.621 34.9402C4.88401 36.174 4.49378 37.5778 3.94484 39.498C2.99445 42.8227 4.14542 45.9995 4.82929 48.0051C5.68775 50.5226 8.19386 52.1293 9.85537 53.8099C11.6766 55.6521 13.1243 56.5422 14.9295 57.9626C16.4845 59.0011 18.0059 59.9228 18.7395 59.8637C19.0718 59.7437 19.3229 59.4413 19.5816 59.1296" stroke="#001A33" stroke-linecap="round"/>
<path d="M35.0624 42.1333C36.3043 44.4123 38.3672 49.1728 38.4619 51.02C38.5661 53.0532 36.8775 54.8271 35.443 56.556C33.9698 58.3316 32.5225 58.9488 30.4743 59.4693C27.0135 60.3489 25.4191 60.0906 23.355 60.3357C22.2868 60.4626 20.8046 60.2841 19.2747 59.8327C18.6738 59.522 18.4292 59.0455 18.3439 58.5315C18.2585 58.0175 18.3398 57.4804 18.4236 56.9271" stroke="#001A33" stroke-linecap="round"/>
<path d="M15.862 27.0891C18.177 28.6982 21.2827 31.2338 22.7201 32.6634C24.015 33.9513 24.4801 35.9727 25.0453 38.0116C25.5667 39.8921 26.4268 41.4394 26.9665 43.3003C28.0392 46.9984 28.4706 48.3 28.7605 50.4678C28.867 51.1184 29.0642 51.831 29.0059 53.2547C28.9475 54.6785 28.6275 56.7919 27.644 59.2152" stroke="#001A33" stroke-linecap="round"/>
<path d="M23.3535 66.3033C21.9591 66.0921 20.2448 65.8325 18.5699 65.6895C15.9702 65.4675 13.5258 69.3859 12.7385 70.8332C12.2367 71.7558 11.8689 72.8244 11.8452 73.9903C11.7954 76.4371 13.6162 77.5558 15.9369 79.194C17.5474 80.3309 19.7153 82.0515 27.3664 83.4447C29.521 83.837 30.4741 82.4643 31.5306 81.2369C35.0123 77.1922 34.9331 74.7721 35.4402 71.1075C35.7767 68.6753 33.0723 67.4465 31.614 66.4952C30.1613 65.5481 28.2232 64.8089 26.2129 64.1694C25.365 63.9271 24.867 63.8517 24.3539 63.774" stroke="#001A33" stroke-linecap="round"/>
<path d="M31.4541 60.8035C32.9432 61.2563 34.844 62.4602 36.2983 63.8858C36.9939 64.5677 37.5677 65.1698 37.8642 65.9586C38.5488 67.7795 38.0948 69.9506 37.977 71.7718C37.7863 74.7191 36.8091 78.4829 35.4102 79.8208C34.0068 81.163 32.4747 81.6183 32.1177 82.2514C31.4125 83.5016 33.1823 85.166 34.0402 86.3894C34.8464 87.5391 34.8659 89.2093 35.2895 91.2244C35.6625 92.9988 35.6462 95.747 35.8002 98.5306C35.9921 101.999 35.6507 105.384 34.3618 107.73C33.3645 109.546 30.7022 109.931 28.1892 110.302C26.5528 110.543 24.9364 110.787 21.7393 111.617C19.1263 112.295 17.6977 112.446 15.9584 112.582C11.955 112.896 7.08462 111.645 5.51711 110.605C4.26404 109.774 2.43416 107.283 1.15801 104.268C0.396457 102.468 0.146524 98.2237 1.22634 90.349C1.50634 88.3071 3.31489 87.5451 4.6542 86.601C6.98492 84.9582 9.83903 85.7709 12.6699 85.9137C18.0304 86.1842 21.8683 86.9071 22.5969 86.2167C22.9722 85.8138 23.3591 85.3041 23.6172 84.6527C23.8754 84.0012 23.9931 83.2235 24.1145 82.4222" stroke="#001A33" stroke-linecap="round"/>
<path d="M37.199 79.8786C37.5523 81.0947 39.6181 84.5948 41.8452 86.0626C44.262 87.6555 47.5716 87.3066 51.5027 86.4152C52.9497 86.2048 53.8535 86.0222 54.5984 85.3941C54.9969 84.9243 55.4369 84.1477 55.8903 83.3477" stroke="#001A33" stroke-linecap="round"/>
<path d="M36.99 87.9382C37.3654 90.0604 37.7409 92.1827 40.1617 94.0149C42.5824 95.847 47.0372 97.3248 49.512 97.8838C51.9868 98.4429 52.3467 98.0384 52.7175 97.6216" stroke="#001A33" stroke-linecap="round"/>
<path d="M49.8448 89.8754C50.1724 97.3196 50.2081 101.888 50.348 107.798C50.4554 112.336 50.358 120.01 50.3856 124.363C50.4265 130.792 50.4835 132.376 50.9414 133.815C51.403 135.266 51.5527 136.984 51.8611 138.741C52.1852 140.587 52.7788 141.958 52.9414 143.637C52.981 144.045 53.0348 144.391 53.3966 144.733C54.3036 145.591 57.6394 145.444 61.7557 145.041C63.9551 144.826 65.5047 145.147 75.5728 146.106C84.7243 146.977 102.057 148.873 127.663 149.24C153.27 149.606 186.619 148.448 204.554 147.966C222.489 147.484 223.999 147.713 233.152 147.293C242.305 146.873 259.055 145.797 267.885 145.274C277.116 144.726 278.271 144.76 279.751 144.586C282.268 144.289 286.045 144.118 288.606 143.873C288.921 143.843 289.224 143.908 289.597 142.497C289.969 141.087 290.404 138.218 290.43 129.881C290.456 121.545 290.06 107.828 289.789 100.526C289.518 93.224 289.384 92.7521 289.221 90.4068C289.058 88.0615 288.87 83.857 288.677 79.5251" stroke="#001A33" stroke-linecap="round"/>
<path d="M53.2588 87.3675C53.2423 87.4769 53.2257 87.5863 52.9086 90.7289C52.5914 93.8716 51.9742 100.044 51.8692 105.662C51.7641 111.28 52.1898 116.156 52.5147 119.019C52.9217 122.607 53.5367 125.03 53.9729 128.143C54.8038 133.583 55.9868 138.52 56.9809 142.512C57.366 142.818 57.842 141.771 58.3324 140.692" stroke="#001A33" stroke-linecap="round"/>
<path d="M69.9148 84.2395C69.8815 84.4599 69.3659 89.9085 68.6726 100.988C68.3135 106.729 68.6018 112.726 68.6827 116.042C68.8086 121.201 68.8058 124.589 68.7881 126.419C68.7816 127.094 68.7217 127.89 68.9583 128.722C69.0772 129.139 69.5308 129.379 76.6196 130.287C83.7084 131.194 97.5048 132.72 104.931 133.441C112.978 134.223 114.275 133.883 116.024 133.977C121.282 134.259 123.996 134.333 127.696 133.925C134.918 133.129 138.95 133.291 141.249 133.243C142.536 133.216 145.049 132.852 149.345 132.595C151.778 132.45 154.716 132.051 158.213 132.061C165.694 132.084 170.401 132.705 171.628 132.492C172.732 132.302 174.284 132.493 179.163 132.387C183.036 132.302 189.738 131.452 193.703 131.125C197.669 130.798 198.694 130.84 204.548 130.429C210.402 130.017 221.054 129.15 226.751 128.679C232.869 128.173 233.705 128.169 234.475 128.23C235.16 128.283 240.347 128.721 248.537 129.621C253.504 130.167 256.306 129.546 258.112 129.307C261.731 128.828 266.727 127.479 269.473 126.532C270.232 126.27 270.979 126.19 271.436 125.974C272.148 125.636 272.599 122.473 273.152 115.752C273.933 106.267 273.038 100.313 272.986 99.6234C272.867 98.0354 272.895 95.7447 272.827 93.4578C272.675 88.3252 272.836 85.1537 272.967 82.2052C273.029 80.8197 272.912 79.1226 273.013 77.4318C273.126 75.5482 271.047 74.9634 269.841 73.9832C267.873 72.384 266.852 70.3454 266.09 68.8056C265.308 67.2254 266.123 64.1002 267.221 60.9549C268.257 58.9411 269.235 57.9518 270.594 57.2455C270.935 57.0683 271.271 56.8937 272.228 56.8063" stroke="#001A33" stroke-linecap="round"/>
<path d="M69.3103 14.76C69.4107 14.7752 69.5111 14.7904 74.5263 14.586C79.5414 14.3816 89.4682 13.957 104.324 14.8733C119.18 15.7896 138.664 18.0596 151.873 18.9723C165.083 19.885 171.427 19.3716 176.646 18.7788C181.865 18.1859 185.765 17.5293 188.344 17.1638C194.077 16.3511 197.06 16.0095 199.472 15.8593C201.147 15.7551 205.559 15.9221 214.785 16.0683C220.557 16.1598 228.564 15.3165 232.837 15.0289C237.409 14.7211 238.14 14.7839 240.95 14.584C243.341 14.414 247.694 14.1861 250.355 14.0083C253.016 13.8305 253.853 13.7305 256.895 14.0743C259.938 14.4182 265.16 15.209 268.185 17.1411C273.248 20.3753 272.331 26.8163 271.966 29.5633C271.704 31.5388 271.148 36.6879 270.164 43.5229C270.002 48.345 270.306 51.8272 270.389 54.0201C270.423 54.4873 270.473 54.8351 270.474 55.5293" stroke="#001A33" stroke-linecap="round"/>
<path d="M285.877 58.3024C283.918 57.3397 279.515 56.3298 274.629 55.59C273.652 55.442 279.078 55.1534 287.833 54.797C294.384 54.5303 297.517 55.8025 298.245 56.2475C299.561 57.0519 299.375 59.66 299.436 61.7501C299.494 63.7097 299.412 65.0552 298.23 72.5332C297.848 74.955 296.528 75.7237 295.591 76.3086C293.317 77.7284 290.353 77.9275 285.231 78.4976C282.107 78.8452 278.351 78.021 275.586 76.8235C275.3 76.2235 275.243 75.2156 275.289 74.5413C275.335 73.8671 275.487 73.5571 275.644 73.2377" stroke="#001A33" stroke-linecap="round"/>
<path d="M296.449 44.2916C297.114 43.9163 300.353 43.3289 305.584 42.8591C309.602 43.0385 311.697 43.5938 312.407 44.2997C312.756 44.7131 313.082 45.2383 313.417 45.7794" stroke="#001A33" stroke-linecap="round"/>
<path d="M311.089 57.3424C311.015 55.026 310.733 52.6432 310.284 50.656C310.014 49.4587 310.411 44.8267 311.6 38.0248C312.441 33.2153 314.662 31.5763 315.893 30.5402C317.544 29.151 319.895 28.8759 325.568 27.4105C328.46 26.6634 329.809 27.1149 332.947 27.5866C333.696 27.6992 334.053 28.0998 334.319 28.4893C335.443 30.1373 335.882 32.3306 336.193 34.1851C336.785 37.718 338.037 42.9045 338.403 44.3589C338.882 46.2584 339.584 51.0325 339.199 55.7627C338.918 59.216 335.718 61.0648 334.448 62.0391C332.429 63.5882 330.195 64.9997 328.355 66.181C326.147 66.9538 324.557 67.5304 323.695 67.5745C323.265 67.5688 322.85 67.5059 322.423 67.4412" stroke="#001A33" stroke-linecap="round"/>
<path d="M315.116 61.2778C315.185 60.8232 316.081 54.9066 317.66 45.8735C318.663 40.1302 321.378 38.8694 322.941 37.6899C324.884 36.2237 327.063 35.0308 329.126 33.7544C329.554 33.407 329.932 32.9993 330.341 32.7636C330.751 32.5279 331.18 32.4766 331.622 32.4238" stroke="#001A33" stroke-linecap="round"/>
<path d="M310.75 63.9611C310.17 63.6478 309.548 63.5502 308.6 63.9157C305.228 65.2147 304.214 68.0898 303.846 69.459C302.987 72.6618 303.033 78.6058 303.818 81.4683C304.411 83.631 308.026 83.2502 312.557 83.9961C314.863 84.3757 317.468 83.6616 319.614 82.7941C321.585 81.9973 321.708 77.3744 322.204 73.7508C322.934 68.4274 319.434 62.4332 318.72 61.5853C317.028 59.5772 312.95 60.6451 311.41 61.0405C310.971 61.1449 310.426 61.288 310.019 61.5115C309.611 61.7351 309.357 62.0348 308.785 62.2968" stroke="#001A33" stroke-linecap="round"/>
<path d="M312.113 67.9028C310.601 69.8683 309.669 74.7827 310.221 78.2014C310.352 79.0163 311.74 78.9575 312.998 78.976C314.561 78.9991 315.919 77.2848 316.623 75.768C317.068 74.8085 317.491 73.1269 317.547 71.2275C317.434 70.4482 317.032 70.0436 316.599 69.801C316.166 69.5583 315.714 69.4898 315.248 69.4193" stroke="#001A33" stroke-linecap="round"/>
<path d="M332.387 70.9728C329.968 73.2565 328.095 77.3664 327.64 79.3361C327.443 80.1848 327.102 81.1649 327.527 82.0975C329.108 85.5709 333.742 82.528 335.739 81.7312C336.876 81.2775 337.365 79.9508 337.688 78.8467C338.134 77.3197 337.867 75.9738 337.412 75.212C336.534 73.8028 334.412 72.7868 332.585 72.1037C332.235 71.9918 331.934 71.9461 331.369 71.5134" stroke="#001A33" stroke-linecap="round"/>
<path d="M323.69 68.851C327.216 66.5871 333.547 66.6444 337.062 67.846C338.498 68.3366 338.997 70.3753 339.628 71.9875C340.368 73.8779 341 75.5009 341.466 77.532C342.094 80.2723 340.816 83.5473 340.308 84.1968C338.528 86.4757 335.312 86.6383 333.933 86.8786C330.405 87.4938 324.361 85.5451 323.223 84.5338C322.861 83.8652 322.373 82.3385 321.908 80.3093C321.777 79.4404 321.86 78.8979 321.742 77.6358" stroke="#001A33" stroke-linecap="round"/>
<path d="M293.81 88.4396C293.746 88.8576 293.932 89.6404 294.47 90.7989C295.99 94.0701 302.552 93.4366 305.187 92.6533C308.925 89.9771 310.196 88.3394 311.075 86.5874C311.416 85.7158 311.542 84.8799 311.673 84.0186" stroke="#001A33" stroke-linecap="round"/>
<path d="M304.854 94.0088C303.243 96.5226 300.219 104.15 299.983 108.081C299.947 108.682 300.18 109.153 300.49 109.493C302.211 111.386 305.199 112.81 311.65 115.006C315.414 116.287 322.239 116.786 326.007 117.242C330.386 117.772 331.413 117.137 332.161 116.615C332.93 116.078 333.825 115.536 334.559 114.435C336.733 111.173 336.398 105.398 335.627 102.673C334.681 99.3304 333.529 97.7812 330.579 95.1342C326.836 91.775 323.479 91.1606 317.495 88.808C316.255 88.3267 315.972 88.1693 315.627 88.0579C315.281 87.9465 314.881 87.8859 314.52 87.484" stroke="#001A33" stroke-linecap="round"/>
<path d="M317.653 86.947C317.62 87.1676 316.86 90.8918 315.761 97.1562C314.563 103.986 316.216 106.894 317.185 109.317C318.333 110.517 319.519 111.274 320.412 111.58C320.843 111.704 321.227 111.762 321.622 111.822" stroke="#001A33" stroke-linecap="round"/>
<path d="M153.77 151.632C154.837 154.839 155.905 158.047 157.453 162.332C159.002 166.617 161 171.884 162.496 176.641C163.992 181.399 164.925 185.489 165.725 191.987C166.524 198.485 167.161 207.268 167.574 212.256C168.066 218.186 168.586 219.506 169.384 220.422C171.588 222.952 173.814 222.92 178.814 223.68C181.089 224.027 182.541 222.652 183.161 222.007C183.468 221.688 183.595 221.222 185.452 209.313C187.308 197.404 190.849 174.024 192.647 161.807C194.394 149.244 194.441 148.226 194.458 147.09C194.375 146.616 194.104 146.349 193.826 146.074" stroke="#001A33" stroke-linecap="round"/>
<path d="M155.296 188.787C154.453 188.984 151.528 189.201 148.876 190.051C147.824 190.388 147.305 191.182 146.842 192.199C146.044 193.952 146.32 195.625 146.574 196.318C147.201 198.028 149.433 198.173 151.551 198.825C152.56 199.303 154.589 200.158 158.183 201.194C160.228 201.671 162.723 202.049 165.294 202.438" stroke="#001A33" stroke-linecap="round"/>
<path d="M173.203 203.636C174.158 203.78 176.847 204.187 180.633 204.57C182.222 204.62 183.138 204.377 183.767 204.181C184.396 203.984 184.711 203.841 185.368 203.455" stroke="#001A33" stroke-linecap="round"/>
<path d="M188.64 202.939C190.75 202.25 196.352 200.398 199.414 198.881C200.785 198.202 200.557 195.953 200.57 194.828C200.594 192.561 196.315 191.697 193.746 191.081C192.651 190.581 191.021 190.104 189.141 189.875C188.394 189.818 188.068 189.88 187.37 190.228" stroke="#001A33" stroke-linecap="round"/>
<path d="M166.636 189.493C164.821 189.329 162.781 189.914 160.661 190.999C159.671 191.505 159.124 192.509 158.648 193.501C158.38 194.06 158.333 194.85 158.73 195.423C159.127 195.995 160.04 196.356 161.509 196.693C162.977 197.03 164.974 197.332 167.031 197.644" stroke="#001A33" stroke-linecap="round"/>
<path d="M189.831 198.062C190.027 198.092 191.5 198.315 193.684 197.936C194.64 197.771 194.706 195.963 193.981 195.122C191.59 194.029 189.252 193.894 188.149 194.166C187.666 194.315 187.34 194.484 186.707 194.613" stroke="#001A33" stroke-linecap="round"/>
<path d="M170.686 200.22C175.49 200.948 180.356 201.479 181.806 201.49C182.635 201.308 183.555 200.927 184.343 200.323C184.67 199.957 184.85 199.471 185.127 198.361" stroke="#001A33" stroke-linecap="round"/>
<path d="M161.666 179.638C154.832 178.376 151.084 177.12 148.227 176.513C145.06 175.841 142.478 175.128 140.24 174.216C138.469 173.494 137.381 172.521 137.079 171.788C136.777 171.056 136.69 170.237 136.976 169.364C137.562 168.537 140.13 167.208 145.209 165.345C148.1 164.4 151.625 163.457 155.864 162.577" stroke="#001A33" stroke-linecap="round"/>
<path d="M160.288 175.384C156.955 174.879 154.521 173.814 152.793 172.551C151.316 171.473 150.422 170.959 150.032 170.55C149.85 170.36 149.968 169.958 150.166 169.635C150.364 169.311 150.707 169.015 151.875 168.548C153.044 168.081 155.027 167.453 157.07 166.805" stroke="#001A33" stroke-linecap="round"/>
<path d="M164.243 175.982C173.597 176.725 178.828 177.294 181.496 177.528C183.633 177.236 185.867 176.674 186.538 176.272C186.88 176.042 187.226 175.761 187.582 175.471" stroke="#001A33" stroke-linecap="round"/>
<path d="M166.46 181.375C176.373 182.289 180.247 181.934 182.158 181.924C183.586 181.611 185.376 180.94 187.092 179.786C187.526 179.379 188.022 178.87 189.26 177.748" stroke="#001A33" stroke-linecap="round"/>
<path d="M193.815 162.511C195.423 162.527 200.09 163.116 205.978 164.178C208.049 164.552 208.174 165.023 208.073 166.378C207.538 173.519 205.337 176.425 204.146 177.917C202.764 179.647 200.691 178.948 198.342 179.339C195.749 179.351 192.143 179.033 190.011 179.627C189.365 179.874 188.412 180.185 186.834 180.415" stroke="#001A33" stroke-linecap="round"/>
<path d="M190.399 176.909C195.032 176.42 197.974 176.154 200.16 175.471C201.051 175.192 201.921 174.13 202.884 172.91C203.376 172.288 203.398 171.268 203.304 170.532C202.959 167.832 200.099 167.057 198.38 166.082C197.59 165.84 196.284 165.643 195.351 165.56C194.418 165.478 193.899 165.518 192.754 165.466" stroke="#001A33" stroke-linecap="round"/>
<path d="M163.042 150.516C163.084 152.974 163.856 157.534 164.96 161.989C165.809 165.417 166.571 167.922 167.317 170.619C167.805 172.211 168.046 173.433 168.044 174.134C168.093 174.495 168.244 174.866 168.347 175.593" stroke="#001A33" stroke-linecap="round"/>
<path d="M169.426 181.824C169.546 183.791 170.002 189.086 170.576 195.731C170.712 199.073 170.833 201.05 171.065 202.3C171.184 202.215 171.366 201.701 171.554 201.172" stroke="#001A33" stroke-linecap="round"/>
<path d="M184.254 150.693C183.354 156.637 182.819 163.179 182.766 168.684C182.927 172.21 182.836 174.014 182.733 176.213C182.757 176.957 182.891 177.878 183.028 178.827" stroke="#001A33" stroke-linecap="round"/>
<path d="M183.119 184.909L179.975 205.672" stroke="#001A33" stroke-linecap="round"/>
<path d="M172.904 205.613C173.216 210.254 173.543 212.605 174.668 217.823C175.15 220.06 175.998 221.035 176.634 221.304C176.95 221.437 177.288 221.462 177.6 221.281C179.193 220.362 179.138 217.497 179.974 211.253C179.634 209.062 179.118 207.938 178.534 207.332C178.119 207.093 177.462 206.993 176.785 206.891" stroke="#001A33" stroke-linecap="round"/>
<path d="M135.61 61.4239V59.3119C135.632 58.3946 135.898 57.5519 136.41 56.7839C136.922 55.9946 137.573 55.2586 138.362 54.5759C139.173 53.8719 140.037 53.1999 140.954 52.5599C141.872 51.8986 142.725 51.2372 143.514 50.5759C144.304 49.9146 144.954 49.2426 145.466 48.5599C145.978 47.8559 146.234 47.1092 146.234 46.3199C146.234 45.7226 146.117 45.2106 145.882 44.7839C145.648 44.3359 145.253 43.9412 144.698 43.5999L146.33 44.5279C144.837 44.1866 143.365 44.0159 141.914 44.0159C141.018 44.0159 140.122 44.0692 139.226 44.1759C138.352 44.2826 137.466 44.4426 136.57 44.6559L136.186 42.7359C137.296 42.5012 138.33 42.3199 139.29 42.1919C140.272 42.0639 141.189 41.9999 142.042 41.9999C144.133 41.9999 145.765 42.3626 146.938 43.0879C148.112 43.8132 148.698 44.8799 148.698 46.2879C148.698 47.2479 148.442 48.1332 147.93 48.9439C147.418 49.7546 146.757 50.5119 145.946 51.2159C145.157 51.9199 144.304 52.6026 143.386 53.2639C142.49 53.9039 141.637 54.5439 140.826 55.1839C140.037 55.8239 139.386 56.4852 138.874 57.1679C138.362 57.8506 138.096 58.5759 138.074 59.3439L138.042 61.4239H135.61ZM136.666 61.4239V59.7599L148.666 59.4719V61.4239H136.666ZM146.874 61.4239L148.41 55.1199H149.338L149.434 61.4239H146.874ZM136.282 49.1679L136.186 42.7359H138.618L137.21 49.1679H136.282ZM160.037 61.7119C159.184 61.7119 158.288 61.6372 157.349 61.4879C156.432 61.3386 155.482 61.1252 154.501 60.8479L154.917 59.0879C155.92 59.3226 156.858 59.5039 157.733 59.6319C158.608 59.7599 159.429 59.8239 160.197 59.8239C161.626 59.8239 163.002 59.5999 164.325 59.1519C164.666 58.6612 164.912 58.1599 165.061 57.6479C165.21 57.1146 165.285 56.6132 165.285 56.1439C165.285 55.0346 164.912 54.1172 164.165 53.3919C163.44 52.6452 162.405 52.2719 161.061 52.2719H155.013L155.973 50.4479H161.285C163.29 50.4479 164.858 50.9172 165.989 51.8559C167.12 52.7732 167.685 54.0746 167.685 55.7599C167.685 57.6159 167.013 59.0772 165.669 60.1439C164.325 61.1892 162.448 61.7119 160.037 61.7119ZM157.093 60.8479H154.501L154.661 55.2799H155.589L157.093 60.8479ZM155.013 52.2719V42.3519H156.933L156.869 51.3759L155.013 52.2719ZM166.213 44.2399L155.973 44.1119L155.013 42.3519H166.213V44.2399ZM165.829 48.1759L164.325 42.3519H166.853L166.757 48.1759H165.829ZM179.246 61.6799C177.753 61.6799 176.441 61.2852 175.31 60.4959C174.201 59.6852 173.337 58.5652 172.718 57.1359C172.121 55.6852 171.822 54.0106 171.822 52.1119C171.822 50.1492 172.142 48.4106 172.782 46.8959C173.444 45.3812 174.35 44.1972 175.502 43.3439C176.676 42.4692 178.03 42.0319 179.566 42.0319C181.06 42.0319 182.372 42.4372 183.502 43.2479C184.633 44.0586 185.508 45.1892 186.126 46.6399C186.766 48.0692 187.086 49.7332 187.086 51.6319C187.086 53.5946 186.756 55.3332 186.094 56.8479C185.454 58.3626 184.548 59.5466 183.374 60.3999C182.201 61.2532 180.825 61.6799 179.246 61.6799ZM179.406 59.9519C180.409 59.9519 181.294 59.6212 182.062 58.9599C182.83 58.2772 183.428 57.3279 183.854 56.1119C184.281 54.8746 184.494 53.4239 184.494 51.7599C184.494 50.1599 184.292 48.7732 183.886 47.5999C183.481 46.4266 182.884 45.5199 182.094 44.8799C181.326 44.2186 180.409 43.8879 179.342 43.8879C178.745 43.8879 178.148 44.0052 177.55 44.2399C176.953 44.4532 176.43 44.7732 175.982 45.1999C175.449 46.2666 175.044 47.3759 174.766 48.5279C174.489 49.6799 174.35 50.8639 174.35 52.0799C174.35 53.6372 174.564 55.0132 174.99 56.2079C175.417 57.4026 176.004 58.3306 176.75 58.9919C177.518 59.6319 178.404 59.9519 179.406 59.9519ZM196.197 59.4079V45.4879H198.021V59.4079H196.197ZM190.149 53.3599V51.5359H204.069V53.3599H190.149ZM127.995 106.424V105.656C128.571 105.464 129.136 105.304 129.691 105.176C130.246 105.027 130.79 104.92 131.323 104.856L131.611 87.2879L127.995 86.5839V85.6879H137.467V86.4879C136.955 86.6586 136.411 86.8079 135.835 86.9359C135.259 87.0639 134.662 87.1599 134.043 87.2239V104.888L137.467 105.496V106.424H127.995ZM114.523 106.424V105.592C115.12 105.4 115.696 105.251 116.251 105.144C116.827 105.016 117.392 104.92 117.947 104.856L118.235 87.2879L114.523 86.5839V85.6879H124.027V86.4879C123.515 86.6586 122.971 86.8079 122.395 86.9359C121.84 87.0639 121.264 87.1599 120.667 87.2239V104.888L124.027 105.496V106.424H114.523ZM119.419 96.6959V94.9679H132.795V96.6959H119.419ZM151.931 106.616C151.291 106.616 150.683 106.371 150.107 105.88C149.552 105.389 149.179 104.675 148.987 103.736L149.307 94.1039C147.92 92.9732 146.203 92.4079 144.155 92.4079C143.749 92.4079 143.344 92.4399 142.939 92.5039C142.533 92.5466 142.149 92.6212 141.787 92.7279L143.131 92.0239L142.555 96.5359C141.872 96.4079 141.349 96.1626 140.987 95.7999C140.624 95.4372 140.443 94.9892 140.443 94.4559C140.443 93.7732 140.688 93.1439 141.179 92.5679C141.669 91.9919 142.331 91.5439 143.163 91.2239C144.016 90.8826 144.944 90.7119 145.947 90.7119C147.077 90.7119 148.112 90.9359 149.051 91.3839C150.011 91.8106 150.853 92.4292 151.579 93.2399V104.312L154.715 104.152C154.608 104.664 154.416 105.112 154.139 105.496C153.861 105.859 153.531 106.136 153.147 106.328C152.763 106.52 152.357 106.616 151.931 106.616ZM144.827 106.744C143.397 106.723 142.245 106.328 141.371 105.56C140.496 104.792 140.059 103.789 140.059 102.552C140.059 101.955 140.187 101.432 140.443 100.984C140.72 100.536 141.211 100.131 141.915 99.7679C142.619 99.3839 143.611 98.9999 144.891 98.6159C146.171 98.2319 147.813 97.8052 149.819 97.3359V98.8079L142.203 100.312L143.003 99.8959C142.896 100.237 142.811 100.589 142.747 100.952C142.704 101.293 142.683 101.613 142.683 101.912C142.683 102.787 142.896 103.469 143.323 103.96C143.749 104.429 144.4 104.664 145.275 104.664C145.893 104.664 146.555 104.536 147.259 104.28C147.984 104.024 148.741 103.619 149.531 103.064V103.576C148.848 104.28 148.133 104.899 147.387 105.432C146.64 105.944 145.787 106.381 144.827 106.744ZM162.298 106.68C161.082 106.68 159.994 106.349 159.034 105.688C158.074 105.005 157.327 104.077 156.794 102.904C156.261 101.731 155.994 100.376 155.994 98.8399C155.994 97.1546 156.293 95.7146 156.89 94.5199C157.509 93.3039 158.362 92.3652 159.45 91.7039C160.538 91.0426 161.775 90.7119 163.162 90.7119C163.845 90.7119 164.527 90.7866 165.21 90.9359C165.893 91.0852 166.554 91.3092 167.194 91.6079L166.778 93.4959C165.455 92.8772 164.005 92.5679 162.426 92.5679C161.807 92.5679 161.199 92.6532 160.602 92.8239C160.026 92.9946 159.471 93.2399 158.938 93.5599L159.994 92.6319C159.503 93.5066 159.119 94.4452 158.842 95.4479C158.586 96.4506 158.458 97.4639 158.458 98.4879C158.458 99.7892 158.671 100.899 159.098 101.816C159.525 102.733 160.111 103.437 160.858 103.928C161.626 104.419 162.501 104.664 163.482 104.664C164.079 104.664 164.698 104.579 165.338 104.408C165.999 104.216 166.671 103.928 167.354 103.544L167.546 103.992C166.031 105.784 164.282 106.68 162.298 106.68ZM166.234 96.0879L164.89 91.6079H167.194L167.098 96.0879H166.234ZM169.293 106.424V105.688C169.57 105.56 169.88 105.432 170.221 105.304C170.584 105.176 171.01 105.069 171.501 104.984L171.853 86.2959L170.157 84.1199C170.754 83.7572 171.373 83.4692 172.013 83.2559C172.653 83.0212 173.336 82.8612 174.061 82.7759V105.048L176.429 105.656V106.424H169.293ZM181.517 106.68L174.989 98.2959L181.037 91.3199H182.861V91.6399L176.749 98.7119L176.781 97.0479L184.205 106.008C183.8 106.136 183.373 106.264 182.925 106.392C182.477 106.499 182.008 106.595 181.517 106.68ZM181.325 92.8559C180.728 92.7706 180.162 92.6319 179.629 92.4399C179.096 92.2479 178.594 92.0239 178.125 91.7679V90.9999H184.173V91.7679L181.325 92.8559ZM191.459 106.68C190.157 106.68 189.016 106.36 188.035 105.72C187.075 105.08 186.317 104.173 185.763 103C185.229 101.827 184.963 100.472 184.963 98.9359C184.963 97.3359 185.251 95.9172 185.827 94.6799C186.403 93.4426 187.203 92.4719 188.227 91.7679C189.272 91.0639 190.488 90.7119 191.875 90.7119C193.005 90.7119 193.987 90.9572 194.819 91.4479C195.651 91.9172 196.301 92.5786 196.771 93.4319C197.261 94.2852 197.496 95.2879 197.475 96.4399L197.379 98.4879C196.184 98.6799 195.032 98.8399 193.923 98.9679C192.813 99.0746 191.651 99.1706 190.435 99.2559C189.24 99.3199 187.885 99.3626 186.371 99.3839V97.8799L195.171 97.7839L195.235 96.3759C195.235 95.2026 194.904 94.2639 194.243 93.5599C193.581 92.8346 192.696 92.4719 191.587 92.4719C191.117 92.4719 190.627 92.5572 190.115 92.7279C189.603 92.8772 189.112 93.0906 188.643 93.3679C188.216 94.1359 187.875 94.9679 187.619 95.8639C187.384 96.7599 187.267 97.6559 187.267 98.5519C187.267 100.515 187.736 102.029 188.675 103.096C189.635 104.163 190.925 104.696 192.547 104.696C193.976 104.696 195.555 104.28 197.283 103.448L197.475 103.928C196.579 104.845 195.619 105.539 194.595 106.008C193.571 106.456 192.525 106.68 191.459 106.68ZM210.166 93.2719C208.096 93.1866 206.134 93.6559 204.278 94.6799V94.1359C204.896 93.4319 205.536 92.8132 206.198 92.2799C206.859 91.7466 207.552 91.2666 208.278 90.8399C208.662 90.8399 209.014 90.8932 209.334 90.9999C209.675 91.1066 209.995 91.2559 210.294 91.4479L210.166 93.2719ZM199.702 106.424V105.688C200 105.539 200.32 105.411 200.662 105.304C201.024 105.176 201.451 105.069 201.942 104.984L202.23 94.0399L200.598 91.9919C201.728 91.2879 202.944 90.8399 204.246 90.6479L204.502 94.1999V104.984L207.99 105.656V106.424H199.702ZM217.181 106.648C216.456 106.648 215.677 106.584 214.845 106.456C214.034 106.349 213.192 106.168 212.317 105.912L213.277 104.024C214.258 104.28 215.208 104.483 216.125 104.632C217.042 104.781 217.949 104.856 218.845 104.856C219.186 104.856 219.517 104.845 219.837 104.824C220.178 104.781 220.52 104.739 220.861 104.696L219.805 105.208C220.253 104.995 220.637 104.675 220.957 104.248C221.298 103.821 221.469 103.373 221.469 102.904C221.469 102.392 221.256 101.955 220.829 101.592C220.402 101.229 219.848 100.888 219.165 100.568C218.504 100.248 217.8 99.9172 217.053 99.5759C216.306 99.2346 215.592 98.8612 214.909 98.4559C214.248 98.0292 213.704 97.5279 213.277 96.9519C212.85 96.3546 212.637 95.6506 212.637 94.8399C212.637 93.5386 213.213 92.5252 214.365 91.7999C215.517 91.0746 217.021 90.7119 218.877 90.7119C219.517 90.7119 220.2 90.7546 220.925 90.8399C221.65 90.9252 222.397 91.0639 223.165 91.2559L222.493 93.2719C221.576 93.0159 220.69 92.8239 219.837 92.6959C218.984 92.5679 218.173 92.5039 217.405 92.5039C217.085 92.5039 216.754 92.5146 216.413 92.5359C216.093 92.5572 215.752 92.5892 215.389 92.6319L216.189 92.2799C215.741 92.4932 215.41 92.7919 215.197 93.1759C215.005 93.5599 214.909 93.9546 214.909 94.3599C214.909 94.8932 215.122 95.3626 215.549 95.7679C215.976 96.1732 216.52 96.5359 217.181 96.8559C217.864 97.1759 218.578 97.5066 219.325 97.8479C220.072 98.1679 220.776 98.5412 221.437 98.9679C222.12 99.3732 222.674 99.8532 223.101 100.408C223.528 100.963 223.741 101.635 223.741 102.424C223.741 103.747 223.133 104.781 221.917 105.528C220.701 106.275 219.122 106.648 217.181 106.648ZM212.317 105.912L212.445 101.176H213.469L214.781 105.88L212.317 105.912ZM222.077 95.7039L220.701 91.2559H223.165L223.101 95.7039H222.077Z" fill="black"/>
</svg>
