<svg width="343" height="225" viewBox="0 0 343 225" fill="none" xmlns="http://www.w3.org/2000/svg">
<path d="M48.6679 10.8173C48.95 11.5478 49.1334 16.8587 49.1232 24.7837C49.075 27.774 48.9392 28.6705 48.8234 31.7044C48.7076 34.7383 48.6158 39.8826 48.5212 45.1827" stroke="#001A33" stroke-linecap="round"/>
<path d="M47.6792 10.6676C49.5605 8.51214 52.1087 5.41579 54.2307 2.75311C55.0724 1.69695 58.8161 2.21503 63.5526 2.87456C65.9728 3.21157 70.5581 3.64342 76.7789 4.47002C79.5817 4.84245 83.7075 4.12769 89.2286 3.74005C92.3388 3.52168 94.271 3.27642 95.6913 3.19606C96.4772 3.1516 99.5285 3.48517 104.496 3.94894C108.814 4.3521 113.019 3.77983 116.535 4.25449C119.574 4.66488 121.66 4.50798 125.789 4.66812C130.578 4.8539 134.204 4.19075 136.85 4.12991C142.36 4.00321 146.522 3.25901 148.798 3.25758C156.299 3.25286 158.188 2.46632 161.033 1.90594C163.492 1.16835 164.984 0.929153 166.325 0.665604C166.7 0.605183 167.12 0.553404 167.553 0.500055" stroke="#001A33" stroke-linecap="round"/>
<path d="M165.381 1.48444C166.893 1.71339 169.396 1.64239 171.204 1.34503C172.985 1.05207 177.869 1.6706 180.837 1.78071C181.409 1.80196 182.23 1.76497 189.027 2.73628C195.825 3.70759 208.575 5.63825 215.561 6.58364C223.358 7.63865 224.748 7.40529 225.667 7.48826C226.399 7.55428 227.333 7.45569 232.336 7.36938C236.737 7.29346 244.918 6.74284 249.383 6.54953C254.35 6.3345 255.503 6.38176 256.768 6.23223C257.998 6.08667 262.333 6.28396 269.617 6.36401C276.544 6.44013 281.051 7.52253 283.093 7.37818C284.64 7.2688 285.789 7.10113 286.709 7.5217C288.642 8.40554 288.262 12.0036 288.789 14.0287C289.343 16.156 290.193 21.1546 290.721 24.542C290.905 25.7221 291.393 27.5761 291.686 30.7983C291.979 34.0206 292.116 38.5421 291.945 42.4664C291.774 46.3907 291.291 49.5807 290.997 53.58" stroke="#001A33" stroke-linecap="round"/>
<path d="M71.2454 16.2589C71.212 16.4793 70.995 19.9445 70.7845 26.1077C70.614 31.0996 71.098 33.6551 71.1476 34.6823C71.3917 39.7343 72.0118 45.3979 71.8945 47.2094C71.7681 49.1606 72.1309 52.1251 71.9051 55.6897C71.8408 56.7043 72.6019 58.581 73.6027 60.8403C74.2839 62.3782 76.9181 61.5268 78.613 61.9525C79.7969 62.2499 80.319 63.7429 80.8001 65.0097C82.5734 69.6781 78.9783 78.7961 77.5809 80.5214C75.8671 82.6373 72.1664 82.8887 64.7858 82.8028C61.2611 82.7617 55.5746 81.5241 52.5129 80.8351C49.4513 80.146 49.2172 79.6596 49.0547 79.0082C48.1396 75.3388 48.1303 71.071 47.8014 69.1373C47.5644 67.7434 47.5395 65.4065 47.9728 62.1654C48.2675 59.961 51.1907 59.6875 53.5368 59.2417C56.2749 58.7214 60.5404 57.3524 63.8932 56.5398C64.5295 56.4637 65.1479 56.4446 66.369 56.5714C67.5901 56.6982 69.3952 56.9716 71.2549 57.2532" stroke="#001A33" stroke-linecap="round"/>
<path d="M47.3648 46.1399C47.1641 46.1095 43.1474 45.5013 37.1098 43.9628C31.7139 42.5878 33.6929 33.7654 32.7225 31.9469C31.8535 30.3183 29.9807 29.5232 28.1165 28.1541C26.5105 26.9746 20.7702 25.604 16.9332 25.3085C13.9827 25.0812 9.69491 28.6182 8.41281 30.2039C7.35703 31.5097 6.59599 33.308 5.621 34.9402C4.88401 36.174 4.49378 37.5777 3.94484 39.498C2.99445 42.8227 4.14542 45.9995 4.82929 48.005C5.68775 50.5226 8.19386 52.1293 9.85537 53.8099C11.6766 55.6521 13.1243 56.5422 14.9295 57.9626C16.4845 59.0011 18.0059 59.9228 18.7395 59.8636C19.0718 59.7437 19.3229 59.4412 19.5816 59.1296" stroke="#001A33" stroke-linecap="round"/>
<path d="M35.0624 42.1333C36.3043 44.4123 38.3672 49.1728 38.4619 51.02C38.5661 53.0532 36.8775 54.8271 35.443 56.556C33.9698 58.3316 32.5225 58.9488 30.4743 59.4693C27.0135 60.3489 25.4191 60.0906 23.355 60.3357C22.2868 60.4626 20.8046 60.2841 19.2747 59.8327C18.6738 59.522 18.4292 59.0455 18.3439 58.5315C18.2585 58.0174 18.3398 57.4804 18.4236 56.9271" stroke="#001A33" stroke-linecap="round"/>
<path d="M15.862 27.0891C18.177 28.6982 21.2827 31.2338 22.7201 32.6634C24.015 33.9513 24.4801 35.9727 25.0453 38.0116C25.5667 39.8921 26.4268 41.4394 26.9665 43.3003C28.0392 46.9984 28.4706 48.3 28.7605 50.4678C28.867 51.1184 29.0642 51.831 29.0059 53.2547C28.9475 54.6785 28.6275 56.7919 27.644 59.2152" stroke="#001A33" stroke-linecap="round"/>
<path d="M23.3535 66.3033C21.9591 66.0921 20.2448 65.8326 18.5699 65.6895C15.9702 65.4675 13.5258 69.3859 12.7385 70.8333C12.2367 71.7558 11.8689 72.8244 11.8452 73.9903C11.7954 76.4372 13.6162 77.5559 15.9369 79.194C17.5474 80.3309 19.7153 82.0515 27.3664 83.4447C29.521 83.837 30.4741 82.4643 31.5306 81.2369C35.0123 77.1922 34.9331 74.7721 35.4402 71.1075C35.7767 68.6753 33.0723 67.4466 31.614 66.4952C30.1613 65.5481 28.2232 64.8089 26.2129 64.1694C25.365 63.9271 24.867 63.8517 24.3539 63.774" stroke="#001A33" stroke-linecap="round"/>
<path d="M31.4541 60.8035C32.9432 61.2563 34.844 62.4602 36.2983 63.8858C36.9939 64.5677 37.5677 65.1698 37.8642 65.9586C38.5488 67.7795 38.0948 69.9506 37.977 71.7718C37.7863 74.7191 36.8091 78.4829 35.4102 79.8208C34.0068 81.163 32.4747 81.6184 32.1177 82.2514C31.4125 83.5016 33.1823 85.166 34.0402 86.3894C34.8464 87.5391 34.8659 89.2093 35.2895 91.2244C35.6625 92.9988 35.6462 95.747 35.8002 98.5306C35.9921 101.999 35.6507 105.384 34.3618 107.73C33.3645 109.546 30.7022 109.931 28.1892 110.302C26.5528 110.543 24.9364 110.787 21.7393 111.617C19.1263 112.295 17.6977 112.446 15.9584 112.582C11.955 112.896 7.08462 111.645 5.51711 110.605C4.26404 109.774 2.43416 107.283 1.15801 104.268C0.396457 102.468 0.146524 98.2237 1.22634 90.349C1.50634 88.3071 3.31489 87.5451 4.6542 86.601C6.98492 84.9582 9.83903 85.7709 12.6699 85.9137C18.0304 86.1842 21.8683 86.9071 22.5969 86.2167C22.9722 85.8138 23.3591 85.3041 23.6172 84.6527C23.8754 84.0012 23.9931 83.2235 24.1145 82.4222" stroke="#001A33" stroke-linecap="round"/>
<path d="M37.199 79.8786C37.5523 81.0947 39.6181 84.5948 41.8452 86.0626C44.262 87.6555 47.5716 87.3066 51.5027 86.4152C52.9497 86.2047 53.8535 86.0222 54.5984 85.3941C54.9969 84.9242 55.4369 84.1477 55.8903 83.3477" stroke="#001A33" stroke-linecap="round"/>
<path d="M36.99 87.9382C37.3654 90.0604 37.7409 92.1827 40.1617 94.0149C42.5824 95.847 47.0372 97.3248 49.512 97.8838C51.9868 98.4429 52.3467 98.0384 52.7175 97.6216" stroke="#001A33" stroke-linecap="round"/>
<path d="M49.8448 89.8754C50.1724 97.3196 50.2081 101.888 50.348 107.798C50.4554 112.336 50.358 120.01 50.3856 124.363C50.4265 130.792 50.4835 132.376 50.9414 133.815C51.403 135.266 51.5527 136.984 51.8611 138.741C52.1852 140.587 52.7788 141.958 52.9414 143.637C52.981 144.045 53.0348 144.391 53.3966 144.733C54.3036 145.591 57.6394 145.444 61.7557 145.041C63.9551 144.826 65.5047 145.147 75.5728 146.106C84.7243 146.977 102.057 148.873 127.663 149.24C153.27 149.606 186.619 148.448 204.554 147.966C222.489 147.484 223.999 147.713 233.152 147.293C242.305 146.873 259.055 145.797 267.885 145.274C277.116 144.726 278.271 144.76 279.751 144.586C282.268 144.289 286.045 144.118 288.606 143.873C288.921 143.843 289.224 143.908 289.597 142.497C289.969 141.087 290.404 138.218 290.43 129.881C290.456 121.545 290.06 107.828 289.789 100.526C289.518 93.224 289.384 92.7521 289.221 90.4068C289.058 88.0615 288.87 83.857 288.677 79.5251" stroke="#001A33" stroke-linecap="round"/>
<path d="M53.2588 87.3675C53.2423 87.4768 53.2257 87.5862 52.9086 90.7289C52.5914 93.8716 51.9742 100.044 51.8692 105.662C51.7641 111.28 52.1898 116.156 52.5147 119.019C52.9217 122.607 53.5367 125.03 53.9729 128.143C54.8038 133.583 55.9868 138.52 56.9809 142.512C57.366 142.818 57.842 141.771 58.3324 140.692" stroke="#001A33" stroke-linecap="round"/>
<path d="M69.9148 84.2395C69.8815 84.4599 69.3659 89.9085 68.6726 100.988C68.3135 106.729 68.6018 112.726 68.6827 116.042C68.8086 121.201 68.8058 124.589 68.7881 126.419C68.7816 127.094 68.7217 127.89 68.9583 128.722C69.0772 129.139 69.5308 129.379 76.6196 130.287C83.7084 131.194 97.5048 132.72 104.931 133.441C112.978 134.223 114.275 133.883 116.024 133.977C121.282 134.259 123.996 134.333 127.696 133.925C134.918 133.129 138.95 133.291 141.249 133.243C142.536 133.216 145.049 132.852 149.345 132.595C151.778 132.45 154.716 132.051 158.213 132.061C165.694 132.084 170.401 132.705 171.628 132.492C172.732 132.302 174.284 132.493 179.163 132.387C183.036 132.302 189.738 131.452 193.703 131.125C197.669 130.798 198.694 130.84 204.548 130.429C210.402 130.017 221.054 129.15 226.751 128.679C232.869 128.173 233.705 128.169 234.475 128.23C235.16 128.283 240.347 128.721 248.537 129.621C253.504 130.167 256.306 129.546 258.112 129.307C261.731 128.828 266.727 127.479 269.473 126.532C270.232 126.27 270.979 126.19 271.436 125.974C272.148 125.636 272.599 122.473 273.152 115.752C273.933 106.267 273.038 100.313 272.986 99.6234C272.867 98.0354 272.895 95.7447 272.827 93.4578C272.675 88.3252 272.836 85.1537 272.967 82.2052C273.029 80.8197 272.912 79.1226 273.013 77.4318C273.126 75.5482 271.047 74.9634 269.841 73.9832C267.873 72.384 266.852 70.3454 266.09 68.8056C265.308 67.2254 266.123 64.1002 267.221 60.9549C268.257 58.9411 269.235 57.9518 270.594 57.2455C270.935 57.0683 271.271 56.8937 272.228 56.8063" stroke="#001A33" stroke-linecap="round"/>
<path d="M69.3103 14.76C69.4107 14.7752 69.5111 14.7904 74.5263 14.586C79.5414 14.3816 89.4682 13.957 104.324 14.8733C119.18 15.7896 138.664 18.0596 151.873 18.9723C165.083 19.885 171.427 19.3716 176.646 18.7788C181.865 18.1859 185.765 17.5293 188.344 17.1638C194.077 16.3511 197.06 16.0095 199.472 15.8593C201.147 15.7551 205.559 15.9221 214.785 16.0683C220.557 16.1598 228.564 15.3165 232.837 15.0289C237.409 14.7211 238.14 14.7839 240.95 14.584C243.341 14.414 247.694 14.1861 250.355 14.0083C253.016 13.8305 253.853 13.7305 256.895 14.0743C259.938 14.4182 265.16 15.209 268.185 17.1411C273.248 20.3753 272.331 26.8163 271.966 29.5633C271.704 31.5388 271.148 36.6879 270.164 43.5229C270.002 48.345 270.306 51.8272 270.389 54.0201C270.423 54.4873 270.473 54.8351 270.474 55.5293" stroke="#001A33" stroke-linecap="round"/>
<path d="M285.877 58.3024C283.918 57.3397 279.515 56.3298 274.629 55.59C273.652 55.442 279.078 55.1534 287.833 54.797C294.384 54.5303 297.517 55.8025 298.245 56.2475C299.561 57.0519 299.375 59.66 299.436 61.7501C299.494 63.7097 299.412 65.0552 298.23 72.5332C297.848 74.955 296.528 75.7237 295.591 76.3086C293.317 77.7284 290.353 77.9275 285.231 78.4976C282.107 78.8452 278.351 78.021 275.586 76.8235C275.3 76.2235 275.243 75.2156 275.289 74.5413C275.335 73.8671 275.487 73.5571 275.644 73.2377" stroke="#001A33" stroke-linecap="round"/>
<path d="M296.449 44.2916C297.114 43.9164 300.353 43.3289 305.584 42.8591C309.602 43.0385 311.697 43.5938 312.407 44.2997C312.756 44.7131 313.082 45.2383 313.417 45.7794" stroke="#001A33" stroke-linecap="round"/>
<path d="M311.089 57.3424C311.015 55.026 310.733 52.6432 310.284 50.656C310.014 49.4587 310.411 44.8267 311.6 38.0248C312.441 33.2153 314.662 31.5763 315.893 30.5402C317.544 29.151 319.895 28.8759 325.568 27.4105C328.46 26.6634 329.809 27.1149 332.947 27.5866C333.696 27.6992 334.053 28.0998 334.319 28.4893C335.443 30.1373 335.882 32.3306 336.193 34.1851C336.785 37.718 338.037 42.9045 338.403 44.3589C338.882 46.2584 339.584 51.0325 339.199 55.7627C338.918 59.216 335.718 61.0649 334.448 62.0391C332.429 63.5882 330.195 64.9997 328.355 66.1811C326.147 66.9538 324.557 67.5304 323.695 67.5745C323.265 67.5688 322.85 67.506 322.423 67.4412" stroke="#001A33" stroke-linecap="round"/>
<path d="M315.116 61.2778C315.185 60.8232 316.081 54.9066 317.66 45.8735C318.663 40.1302 321.378 38.8694 322.941 37.6899C324.884 36.2237 327.063 35.0308 329.126 33.7544C329.554 33.407 329.932 32.9993 330.341 32.7636C330.751 32.5279 331.18 32.4766 331.622 32.4238" stroke="#001A33" stroke-linecap="round"/>
<path d="M310.75 63.9611C310.17 63.6478 309.548 63.5502 308.6 63.9157C305.228 65.2147 304.214 68.0898 303.846 69.459C302.987 72.6618 303.033 78.6058 303.818 81.4683C304.411 83.631 308.026 83.2502 312.557 83.9961C314.863 84.3757 317.468 83.6616 319.614 82.7941C321.585 81.9973 321.708 77.3744 322.204 73.7508C322.934 68.4274 319.434 62.4332 318.72 61.5853C317.028 59.5772 312.95 60.6451 311.41 61.0405C310.971 61.1449 310.426 61.288 310.019 61.5115C309.611 61.7351 309.357 62.0348 308.785 62.2968" stroke="#001A33" stroke-linecap="round"/>
<path d="M312.113 67.9028C310.601 69.8683 309.669 74.7827 310.221 78.2014C310.352 79.0162 311.74 78.9575 312.998 78.976C314.561 78.9991 315.919 77.2847 316.623 75.768C317.068 74.8085 317.491 73.1269 317.547 71.2275C317.434 70.4482 317.032 70.0436 316.599 69.801C316.166 69.5583 315.714 69.4898 315.248 69.4193" stroke="#001A33" stroke-linecap="round"/>
<path d="M332.387 70.9728C329.968 73.2565 328.095 77.3664 327.64 79.3361C327.443 80.1848 327.102 81.1649 327.527 82.0975C329.108 85.571 333.742 82.528 335.739 81.7312C336.876 81.2775 337.365 79.9508 337.688 78.8467C338.134 77.3197 337.867 75.9738 337.412 75.212C336.534 73.8028 334.412 72.7869 332.585 72.1037C332.235 71.9918 331.934 71.9461 331.369 71.5134" stroke="#001A33" stroke-linecap="round"/>
<path d="M323.69 68.851C327.216 66.5871 333.547 66.6445 337.062 67.846C338.498 68.3366 338.997 70.3753 339.628 71.9875C340.368 73.8779 341 75.5009 341.466 77.532C342.094 80.2723 340.816 83.5473 340.308 84.1968C338.528 86.4757 335.312 86.6383 333.933 86.8786C330.405 87.4938 324.361 85.5451 323.223 84.5338C322.861 83.8652 322.373 82.3385 321.908 80.3093C321.777 79.4404 321.86 78.8979 321.742 77.6358" stroke="#001A33" stroke-linecap="round"/>
<path d="M293.81 88.4396C293.746 88.8576 293.932 89.6404 294.47 90.7989C295.99 94.0701 302.552 93.4366 305.187 92.6533C308.925 89.977 310.196 88.3393 311.075 86.5874C311.416 85.7158 311.542 84.8799 311.673 84.0186" stroke="#001A33" stroke-linecap="round"/>
<path d="M304.854 94.0088C303.243 96.5226 300.219 104.15 299.983 108.081C299.947 108.682 300.18 109.153 300.49 109.493C302.211 111.386 305.199 112.81 311.65 115.006C315.414 116.287 322.239 116.786 326.007 117.242C330.386 117.772 331.413 117.137 332.161 116.615C332.93 116.078 333.825 115.536 334.559 114.435C336.733 111.173 336.398 105.398 335.627 102.673C334.681 99.3304 333.529 97.7812 330.579 95.1342C326.836 91.775 323.479 91.1606 317.495 88.808C316.255 88.3267 315.972 88.1693 315.627 88.0579C315.281 87.9465 314.881 87.8859 314.52 87.484" stroke="#001A33" stroke-linecap="round"/>
<path d="M317.653 86.947C317.62 87.1676 316.86 90.8918 315.761 97.1562C314.563 103.986 316.216 106.894 317.185 109.317C318.333 110.517 319.519 111.274 320.412 111.58C320.843 111.704 321.227 111.762 321.622 111.822" stroke="#001A33" stroke-linecap="round"/>
<path d="M153.77 151.632C154.837 154.839 155.905 158.047 157.453 162.332C159.002 166.617 161 171.884 162.496 176.641C163.992 181.399 164.925 185.489 165.725 191.987C166.524 198.485 167.161 207.268 167.574 212.256C168.066 218.186 168.586 219.506 169.384 220.422C171.588 222.952 173.814 222.92 178.814 223.68C181.089 224.027 182.541 222.652 183.161 222.007C183.468 221.688 183.595 221.222 185.452 209.313C187.308 197.404 190.849 174.024 192.647 161.807C194.394 149.244 194.441 148.226 194.458 147.09C194.375 146.616 194.104 146.349 193.826 146.074" stroke="#001A33" stroke-linecap="round"/>
<path d="M155.296 188.787C154.453 188.984 151.528 189.201 148.876 190.051C147.824 190.388 147.305 191.182 146.842 192.199C146.044 193.952 146.32 195.625 146.574 196.318C147.201 198.028 149.433 198.173 151.551 198.825C152.56 199.303 154.589 200.158 158.183 201.194C160.228 201.671 162.723 202.049 165.294 202.438" stroke="#001A33" stroke-linecap="round"/>
<path d="M188.64 202.939C190.75 202.25 196.352 200.398 199.414 198.881C200.785 198.202 200.557 195.953 200.57 194.828C200.594 192.561 196.315 191.697 193.746 191.081C192.651 190.581 191.021 190.104 189.141 189.875C188.394 189.818 188.068 189.88 187.37 190.228" stroke="#001A33" stroke-linecap="round"/>
<path d="M166.636 189.493C164.821 189.329 162.781 189.914 160.661 190.999C159.671 191.505 159.124 192.509 158.648 193.501C158.38 194.06 158.333 194.85 158.73 195.423C159.127 195.995 160.04 196.356 161.509 196.693C162.977 197.03 164.974 197.332 167.031 197.644" stroke="#001A33" stroke-linecap="round"/>
<path d="M189.831 198.062C190.027 198.092 191.5 198.315 193.684 197.936C194.64 197.771 194.706 195.963 193.981 195.122C191.59 194.029 189.252 193.894 188.149 194.166C187.666 194.315 187.34 194.484 186.707 194.613" stroke="#001A33" stroke-linecap="round"/>
<path d="M161.666 179.638C154.832 178.376 151.084 177.12 148.227 176.513C145.06 175.841 142.478 175.128 140.24 174.216C138.469 173.494 137.381 172.521 137.079 171.788C136.777 171.056 136.69 170.237 136.976 169.364C137.562 168.537 140.13 167.208 145.209 165.345C148.1 164.4 151.625 163.457 155.864 162.577" stroke="#001A33" stroke-linecap="round"/>
<path d="M160.288 175.384C156.955 174.879 154.521 173.814 152.793 172.551C151.316 171.473 150.422 170.959 150.032 170.55C149.85 170.36 149.968 169.958 150.166 169.635C150.364 169.311 150.707 169.015 151.875 168.548C153.044 168.081 155.027 167.453 157.07 166.805" stroke="#001A33" stroke-linecap="round"/>
<path d="M164.243 175.982C173.597 176.725 178.828 177.294 181.496 177.528C183.633 177.236 185.867 176.674 186.538 176.272C186.88 176.042 187.226 175.761 187.582 175.471" stroke="#001A33" stroke-linecap="round"/>
<path d="M166.46 181.375C176.373 182.289 180.247 181.934 182.158 181.924C183.586 181.611 185.376 180.94 187.092 179.786C187.526 179.379 188.022 178.87 189.26 177.748" stroke="#001A33" stroke-linecap="round"/>
<path d="M193.815 162.511C195.423 162.527 200.09 163.116 205.978 164.178C208.049 164.552 208.174 165.023 208.073 166.378C207.538 173.519 205.337 176.425 204.146 177.917C202.764 179.647 200.691 178.948 198.342 179.339C195.749 179.351 192.143 179.033 190.011 179.627C189.365 179.874 188.412 180.185 186.834 180.415" stroke="#001A33" stroke-linecap="round"/>
<path d="M190.399 176.909C195.032 176.42 197.974 176.154 200.16 175.471C201.051 175.192 201.921 174.13 202.884 172.91C203.376 172.288 203.398 171.268 203.304 170.532C202.959 167.832 200.099 167.057 198.38 166.082C197.59 165.84 196.284 165.643 195.351 165.56C194.418 165.478 193.899 165.518 192.754 165.466" stroke="#001A33" stroke-linecap="round"/>
<path d="M163.042 150.516C163.084 152.974 163.856 157.534 164.96 161.989C165.809 165.417 166.571 167.922 167.317 170.619C167.805 172.211 168.046 173.433 168.044 174.134C168.093 174.495 168.244 174.866 168.347 175.593" stroke="#001A33" stroke-linecap="round"/>
<path d="M169.426 181.824C169.546 183.791 170.002 189.086 170.576 195.731C170.712 199.073 170.833 201.05 171.065 202.3C171.184 202.215 171.366 201.701 171.554 201.172" stroke="#001A33" stroke-linecap="round"/>
<path d="M184.254 150.693C183.354 156.637 182.819 163.179 182.766 168.684C182.927 172.21 182.836 174.014 182.733 176.213C182.757 176.957 182.891 177.878 183.028 178.827" stroke="#001A33" stroke-linecap="round"/>
<path d="M183.119 184.909L179.975 205.672" stroke="#001A33" stroke-linecap="round"/>
<path d="M106.118 61.7119C104.305 61.7119 102.705 61.2852 101.318 60.4319C99.9313 59.5572 98.8539 58.3412 98.0859 56.7839C97.3179 55.2266 96.9339 53.4132 96.9339 51.3439C96.9339 49.1892 97.3499 47.3012 98.1819 45.6799C99.0139 44.0372 100.155 42.7466 101.606 41.8079C103.057 40.8692 104.699 40.3999 106.534 40.3999C108.369 40.3999 109.979 40.8372 111.366 41.7119C112.774 42.5866 113.873 43.8026 114.662 45.3599C115.451 46.9172 115.846 48.7199 115.846 50.7679C115.846 52.9226 115.43 54.8212 114.598 56.4639C113.787 58.1066 112.657 59.3972 111.206 60.3359C109.755 61.2532 108.059 61.7119 106.118 61.7119ZM106.342 59.9199C107.686 59.9199 108.859 59.5466 109.862 58.7999C110.886 58.0532 111.686 57.0079 112.262 55.6639C112.838 54.3199 113.126 52.7412 113.126 50.9279C113.126 49.1999 112.849 47.6959 112.294 46.4159C111.739 45.1146 110.95 44.1119 109.926 43.4079C108.923 42.6826 107.718 42.3199 106.31 42.3199C105.414 42.3199 104.507 42.4799 103.59 42.7999C102.694 43.1199 101.862 43.5999 101.094 44.2399L102.054 43.0879C100.411 45.6479 99.5899 48.3679 99.5899 51.2479C99.5899 52.9759 99.8673 54.4906 100.422 55.7919C100.998 57.0932 101.798 58.1066 102.822 58.8319C103.846 59.5572 105.019 59.9199 106.342 59.9199ZM125.6 61.6799C124.918 61.6799 124.182 61.6052 123.392 61.4559C122.624 61.3279 121.824 61.1359 120.992 60.8799L121.568 59.0559C122.4 59.3546 123.158 59.5786 123.84 59.7279C124.523 59.8559 125.142 59.9199 125.696 59.9199C127.382 59.9199 128.683 59.3866 129.6 58.3199C130.539 57.2319 131.008 55.7172 131.008 53.7759C131.008 52.7092 130.87 51.7172 130.592 50.7999C130.315 49.8826 129.899 49.0292 129.344 48.2399L130.816 49.6799C129.408 48.5066 127.979 47.9199 126.528 47.9199C125.291 47.9199 124.043 48.4106 122.784 49.3919L122.752 48.6879C123.35 48.0479 123.958 47.4932 124.576 47.0239C125.216 46.5332 125.878 46.1066 126.56 45.7439C126.624 45.7226 126.699 45.7119 126.784 45.7119C126.87 45.7119 126.944 45.7119 127.008 45.7119C128.31 45.7119 129.44 46.0426 130.4 46.7039C131.36 47.3652 132.096 48.2826 132.608 49.4559C133.142 50.6079 133.408 51.9306 133.408 53.4239C133.408 55.1519 133.088 56.6346 132.448 57.8719C131.808 59.1092 130.902 60.0586 129.728 60.7199C128.555 61.3599 127.179 61.6799 125.6 61.6799ZM118.272 67.5999V66.8959C118.571 66.7679 118.88 66.6292 119.2 66.4799C119.542 66.3519 119.958 66.2452 120.448 66.1599L120.768 49.0399L119.104 46.9919C119.723 46.6506 120.331 46.3626 120.928 46.1279C121.526 45.8932 122.144 45.7332 122.784 45.6479L123.008 48.7839V66.2239L126.048 66.8639V67.5999H118.272ZM142.381 61.6799C141.079 61.6799 139.938 61.3599 138.957 60.7199C137.997 60.0799 137.239 59.1732 136.685 57.9999C136.151 56.8266 135.885 55.4719 135.885 53.9359C135.885 52.3359 136.173 50.9172 136.749 49.6799C137.325 48.4426 138.125 47.4719 139.149 46.7679C140.194 46.0639 141.41 45.7119 142.797 45.7119C143.927 45.7119 144.909 45.9572 145.741 46.4479C146.573 46.9172 147.223 47.5786 147.693 48.4319C148.183 49.2852 148.418 50.2879 148.397 51.4399L148.301 53.4879C147.106 53.6799 145.954 53.8399 144.845 53.9679C143.735 54.0746 142.573 54.1706 141.357 54.2559C140.162 54.3199 138.807 54.3626 137.293 54.3839V52.8799L146.093 52.7839L146.157 51.3759C146.157 50.2026 145.826 49.2639 145.165 48.5599C144.503 47.8346 143.618 47.4719 142.509 47.4719C142.039 47.4719 141.549 47.5572 141.037 47.7279C140.525 47.8772 140.034 48.0906 139.565 48.3679C139.138 49.1359 138.797 49.9679 138.541 50.8639C138.306 51.7599 138.189 52.6559 138.189 53.5519C138.189 55.5146 138.658 57.0292 139.597 58.0959C140.557 59.1626 141.847 59.6959 143.469 59.6959C144.898 59.6959 146.477 59.2799 148.205 58.4479L148.397 58.9279C147.501 59.8452 146.541 60.5386 145.517 61.0079C144.493 61.4559 143.447 61.6799 142.381 61.6799ZM150.623 61.4239V60.6879C150.922 60.5599 151.242 60.4319 151.583 60.3039C151.925 60.1759 152.351 60.0692 152.863 59.9839L153.151 49.0399L151.519 46.9919C152.65 46.2879 153.866 45.8399 155.167 45.6479L155.423 48.7839V60.0479L157.791 60.6559V61.4239H150.623ZM160.191 61.4239V60.6879C160.49 60.5386 160.81 60.4106 161.151 60.3039C161.493 60.1759 161.909 60.0692 162.399 59.9839L162.719 49.3279L164.959 48.2399V60.0479L167.359 60.6559V61.4239H160.191ZM155.199 49.4239L155.167 48.7839C155.786 48.1012 156.426 47.5146 157.087 47.0239C157.749 46.5332 158.453 46.1066 159.199 45.7439C159.327 45.7439 159.455 45.7439 159.583 45.7439C159.711 45.7226 159.829 45.7119 159.935 45.7119C160.917 45.7119 161.823 45.9146 162.655 46.3199C163.487 46.7252 164.255 47.3652 164.959 48.2399L162.719 49.3279C161.61 48.3679 160.415 47.8879 159.135 47.8879C157.813 47.8879 156.501 48.3999 155.199 49.4239ZM177.947 43.4399V46.0319H183.355L183.195 47.5039H177.947V59.4719L183.323 59.4079C183.025 59.8986 182.651 60.3252 182.203 60.6879C181.755 61.0292 181.265 61.2852 180.731 61.4559C180.198 61.6266 179.665 61.7119 179.131 61.7119C178.321 61.7119 177.563 61.5412 176.859 61.1999C176.177 60.8372 175.686 60.3039 175.387 59.5999L175.771 47.5039H173.467V46.9919C174.107 46.3092 174.79 45.6692 175.515 45.0719C176.262 44.4746 177.073 43.9306 177.947 43.4399ZM191.198 61.7119C189.854 61.7119 188.68 61.3919 187.678 60.7519C186.675 60.0906 185.896 59.1839 185.342 58.0319C184.787 56.8586 184.51 55.5039 184.51 53.9679C184.51 52.3252 184.798 50.8852 185.374 49.6479C185.971 48.4106 186.792 47.4506 187.838 46.7679C188.904 46.0639 190.131 45.7119 191.518 45.7119C192.883 45.7119 194.067 46.0426 195.07 46.7039C196.094 47.3439 196.883 48.2506 197.438 49.4239C198.014 50.5759 198.302 51.9199 198.302 53.4559C198.302 55.0986 198.003 56.5386 197.406 57.7759C196.808 59.0132 195.976 59.9839 194.91 60.6879C193.843 61.3706 192.606 61.7119 191.198 61.7119ZM191.358 60.0479C192.254 60.0479 193.032 59.8026 193.694 59.3119C194.355 58.7999 194.867 58.0639 195.23 57.1039C195.614 56.1226 195.806 54.9599 195.806 53.6159C195.806 52.3146 195.624 51.2159 195.262 50.3199C194.899 49.4026 194.376 48.6986 193.694 48.2079C193.032 47.7172 192.232 47.4719 191.294 47.4719C190.718 47.4719 190.099 47.5786 189.438 47.7919C188.776 48.0052 188.051 48.3146 187.262 48.7199L188.606 47.7279C188.072 48.6666 187.667 49.6372 187.39 50.6399C187.134 51.6212 187.006 52.6666 187.006 53.7759C187.006 55.0772 187.187 56.1972 187.55 57.1359C187.934 58.0746 188.446 58.7999 189.086 59.3119C189.747 59.8026 190.504 60.0479 191.358 60.0479ZM224.257 59.9839C224.641 60.0692 225.015 60.1652 225.377 60.2719C225.761 60.3572 226.135 60.4532 226.497 60.5599V61.4239H218.113V60.5599L221.377 59.9519L215.009 41.6479H215.681L209.057 59.8879C209.719 59.9732 210.359 60.0799 210.977 60.2079C211.617 60.3146 212.257 60.4319 212.897 60.5599V61.4239H204.833V60.5599L206.977 59.8559L214.209 40.6879H217.153L224.257 59.9839ZM210.241 54.5119V52.8799H220.833V54.5119H210.241ZM227.495 61.4239V60.6879C227.794 60.5599 228.114 60.4319 228.455 60.3039C228.818 60.1759 229.245 60.0692 229.735 59.9839L230.087 41.2959L228.391 39.1199C228.967 38.7572 229.575 38.4692 230.215 38.2559C230.877 38.0212 231.57 37.8612 232.295 37.7759V60.0479L234.663 60.6559V61.4239H227.495ZM235.933 61.4239V60.6879C236.232 60.5599 236.552 60.4319 236.893 60.3039C237.256 60.1759 237.682 60.0692 238.173 59.9839L238.525 41.2959L236.829 39.1199C237.405 38.7572 238.013 38.4692 238.653 38.2559C239.314 38.0212 240.008 37.8612 240.733 37.7759V60.0479L243.101 60.6559V61.4239H235.933ZM146.897 104.888L150.449 105.496V106.424H140.753V105.592C141.35 105.4 141.937 105.251 142.513 105.144C143.089 105.016 143.665 104.92 144.241 104.856V86.7439L144.561 86.8079L136.529 106.424H135.249L127.633 87.0959L127.985 87.0319L127.697 104.888L131.633 105.496V106.424H122.193V105.592C122.811 105.4 123.409 105.251 123.985 105.144C124.561 105.016 125.126 104.92 125.681 104.856L126.321 87.2879L122.481 86.5839V85.6879H129.617L136.497 103.256H135.825L143.089 85.6879H150.161V86.4879C149.627 86.6586 149.062 86.8079 148.465 86.9359C147.889 87.0639 147.281 87.1599 146.641 87.2239L146.897 104.888ZM164.29 106.616C163.65 106.616 163.042 106.371 162.466 105.88C161.912 105.389 161.538 104.675 161.346 103.736L161.666 94.1039C160.28 92.9732 158.562 92.4079 156.514 92.4079C156.109 92.4079 155.704 92.4399 155.298 92.5039C154.893 92.5466 154.509 92.6212 154.146 92.7279L155.49 92.0239L154.914 96.5359C154.232 96.4079 153.709 96.1626 153.346 95.7999C152.984 95.4372 152.802 94.9892 152.802 94.4559C152.802 93.7732 153.048 93.1439 153.538 92.5679C154.029 91.9919 154.69 91.5439 155.522 91.2239C156.376 90.8826 157.304 90.7119 158.306 90.7119C159.437 90.7119 160.472 90.9359 161.41 91.3839C162.37 91.8106 163.213 92.4292 163.938 93.2399V104.312L167.074 104.152C166.968 104.664 166.776 105.112 166.498 105.496C166.221 105.859 165.89 106.136 165.506 106.328C165.122 106.52 164.717 106.616 164.29 106.616ZM157.186 106.744C155.757 106.723 154.605 106.328 153.73 105.56C152.856 104.792 152.418 103.789 152.418 102.552C152.418 101.955 152.546 101.432 152.802 100.984C153.08 100.536 153.57 100.131 154.274 99.7679C154.978 99.3839 155.97 98.9999 157.25 98.6159C158.53 98.2319 160.173 97.8052 162.178 97.3359V98.8079L154.562 100.312L155.362 99.8959C155.256 100.237 155.17 100.589 155.106 100.952C155.064 101.293 155.042 101.613 155.042 101.912C155.042 102.787 155.256 103.469 155.682 103.96C156.109 104.429 156.76 104.664 157.634 104.664C158.253 104.664 158.914 104.536 159.618 104.28C160.344 104.024 161.101 103.619 161.89 103.064V103.576C161.208 104.28 160.493 104.899 159.746 105.432C159 105.944 158.146 106.381 157.186 106.744ZM167.265 112.76L166.977 112.28L169.729 108.28L170.049 94.0399L168.385 91.9919C168.983 91.6292 169.601 91.3412 170.241 91.1279C170.903 90.8932 171.585 90.7332 172.289 90.6479V106.2C172.289 107.715 171.852 109.005 170.977 110.072C170.103 111.139 168.865 112.035 167.265 112.76ZM171.457 83.9599C171.799 84.2586 172.087 84.6212 172.321 85.0479C172.556 85.4532 172.695 85.8586 172.737 86.2639C172.481 86.6052 172.14 86.8932 171.713 87.1279C171.308 87.3626 170.892 87.5012 170.465 87.5439C170.145 87.2879 169.868 86.9572 169.633 86.5519C169.399 86.1252 169.228 85.6986 169.121 85.2719C169.42 84.9519 169.772 84.6746 170.177 84.4399C170.604 84.1839 171.031 84.0239 171.457 83.9599ZM182.885 106.712C181.541 106.712 180.368 106.392 179.365 105.752C178.363 105.091 177.584 104.184 177.029 103.032C176.475 101.859 176.197 100.504 176.197 98.9679C176.197 97.3252 176.485 95.8852 177.061 94.6479C177.659 93.4106 178.48 92.4506 179.525 91.7679C180.592 91.0639 181.819 90.7119 183.205 90.7119C184.571 90.7119 185.755 91.0426 186.757 91.7039C187.781 92.3439 188.571 93.2506 189.125 94.4239C189.701 95.5759 189.989 96.9199 189.989 98.4559C189.989 100.099 189.691 101.539 189.093 102.776C188.496 104.013 187.664 104.984 186.597 105.688C185.531 106.371 184.293 106.712 182.885 106.712ZM183.045 105.048C183.941 105.048 184.72 104.803 185.381 104.312C186.043 103.8 186.555 103.064 186.917 102.104C187.301 101.123 187.493 99.9599 187.493 98.6159C187.493 97.3146 187.312 96.2159 186.949 95.3199C186.587 94.4026 186.064 93.6986 185.381 93.2079C184.72 92.7172 183.92 92.4719 182.981 92.4719C182.405 92.4719 181.787 92.5786 181.125 92.7919C180.464 93.0052 179.739 93.3146 178.949 93.7199L180.293 92.7279C179.76 93.6666 179.355 94.6372 179.077 95.6399C178.821 96.6212 178.693 97.6666 178.693 98.7759C178.693 100.077 178.875 101.197 179.237 102.136C179.621 103.075 180.133 103.8 180.773 104.312C181.435 104.803 182.192 105.048 183.045 105.048ZM202.4 93.2719C200.331 93.1866 198.368 93.6559 196.512 94.6799V94.1359C197.131 93.4319 197.771 92.8132 198.432 92.2799C199.093 91.7466 199.787 91.2666 200.512 90.8399C200.896 90.8399 201.248 90.8932 201.568 90.9999C201.909 91.1066 202.229 91.2559 202.528 91.4479L202.4 93.2719ZM191.936 106.424V105.688C192.235 105.539 192.555 105.411 192.896 105.304C193.259 105.176 193.685 105.069 194.176 104.984L194.464 94.0399L192.832 91.9919C193.963 91.2879 195.179 90.8399 196.48 90.6479L196.736 94.1999V104.984L200.224 105.656V106.424H191.936ZM209.415 106.648C208.69 106.648 207.911 106.584 207.079 106.456C206.269 106.349 205.426 106.168 204.551 105.912L205.511 104.024C206.493 104.28 207.442 104.483 208.359 104.632C209.277 104.781 210.183 104.856 211.079 104.856C211.421 104.856 211.751 104.845 212.071 104.824C212.413 104.781 212.754 104.739 213.095 104.696L212.039 105.208C212.487 104.995 212.871 104.675 213.191 104.248C213.533 103.821 213.703 103.373 213.703 102.904C213.703 102.392 213.49 101.955 213.063 101.592C212.637 101.229 212.082 100.888 211.399 100.568C210.738 100.248 210.034 99.9172 209.287 99.5759C208.541 99.2346 207.826 98.8612 207.143 98.4559C206.482 98.0292 205.938 97.5279 205.511 96.9519C205.085 96.3546 204.871 95.6506 204.871 94.8399C204.871 93.5386 205.447 92.5252 206.599 91.7999C207.751 91.0746 209.255 90.7119 211.111 90.7119C211.751 90.7119 212.434 90.7546 213.159 90.8399C213.885 90.9252 214.631 91.0639 215.399 91.2559L214.727 93.2719C213.81 93.0159 212.925 92.8239 212.071 92.6959C211.218 92.5679 210.407 92.5039 209.639 92.5039C209.319 92.5039 208.989 92.5146 208.647 92.5359C208.327 92.5572 207.986 92.5892 207.623 92.6319L208.423 92.2799C207.975 92.4932 207.645 92.7919 207.431 93.1759C207.239 93.5599 207.143 93.9546 207.143 94.3599C207.143 94.8932 207.357 95.3626 207.783 95.7679C208.21 96.1732 208.754 96.5359 209.415 96.8559C210.098 97.1759 210.813 97.5066 211.559 97.8479C212.306 98.1679 213.01 98.5412 213.671 98.9679C214.354 99.3732 214.909 99.8532 215.335 100.408C215.762 100.963 215.975 101.635 215.975 102.424C215.975 103.747 215.367 104.781 214.151 105.528C212.935 106.275 211.357 106.648 209.415 106.648ZM204.551 105.912L204.679 101.176H205.703L207.015 105.88L204.551 105.912ZM214.311 95.7039L212.935 91.2559H215.399L215.335 95.7039H214.311Z" fill="black"/>
</svg>
