<svg width="343" height="225" viewBox="0 0 343 225" fill="none" xmlns="http://www.w3.org/2000/svg">
<path d="M48.6679 10.8173C48.95 11.5478 49.1334 16.8587 49.1232 24.7837C49.075 27.774 48.9392 28.6705 48.8234 31.7044C48.7076 34.7383 48.6158 39.8826 48.5212 45.1827" stroke="#001A33" stroke-linecap="round"/>
<path d="M47.6792 10.6676C49.5605 8.51214 52.1087 5.41579 54.2307 2.75311C55.0724 1.69695 58.8161 2.21503 63.5526 2.87456C65.9728 3.21157 70.5581 3.64342 76.7789 4.47002C79.5817 4.84245 83.7075 4.12769 89.2286 3.74005C92.3388 3.52168 94.271 3.27642 95.6913 3.19606C96.4772 3.1516 99.5285 3.48517 104.496 3.94894C108.814 4.3521 113.019 3.77983 116.535 4.25449C119.574 4.66488 121.66 4.50798 125.789 4.66812C130.578 4.8539 134.204 4.19075 136.85 4.12991C142.36 4.00321 146.522 3.25901 148.798 3.25758C156.299 3.25286 158.188 2.46632 161.033 1.90594C163.492 1.16835 164.984 0.929153 166.325 0.665604C166.7 0.605183 167.12 0.553404 167.553 0.500055" stroke="#001A33" stroke-linecap="round"/>
<path d="M165.381 1.48444C166.893 1.71339 169.396 1.64239 171.204 1.34503C172.985 1.05207 177.869 1.6706 180.837 1.78071C181.409 1.80196 182.23 1.76497 189.027 2.73628C195.825 3.70759 208.575 5.63825 215.561 6.58364C223.358 7.63865 224.748 7.40529 225.667 7.48826C226.399 7.55428 227.333 7.45569 232.336 7.36938C236.737 7.29346 244.918 6.74284 249.383 6.54953C254.35 6.3345 255.503 6.38176 256.768 6.23223C257.998 6.08667 262.333 6.28396 269.617 6.36401C276.544 6.44013 281.051 7.52253 283.093 7.37818C284.64 7.2688 285.789 7.10113 286.709 7.5217C288.642 8.40554 288.262 12.0036 288.789 14.0287C289.343 16.156 290.193 21.1546 290.721 24.542C290.905 25.7221 291.393 27.5761 291.686 30.7983C291.979 34.0206 292.116 38.5421 291.945 42.4664C291.774 46.3907 291.291 49.5807 290.997 53.58" stroke="#001A33" stroke-linecap="round"/>
<path d="M71.2454 16.2589C71.212 16.4793 70.995 19.9445 70.7845 26.1077C70.614 31.0996 71.098 33.6551 71.1476 34.6823C71.3917 39.7343 72.0118 45.3979 71.8945 47.2094C71.7681 49.1606 72.1309 52.1251 71.9051 55.6897C71.8408 56.7043 72.6019 58.581 73.6027 60.8403C74.2839 62.3782 76.9181 61.5268 78.613 61.9525C79.7969 62.2499 80.319 63.7429 80.8001 65.0097C82.5734 69.6781 78.9783 78.7961 77.5809 80.5214C75.8671 82.6373 72.1664 82.8887 64.7858 82.8028C61.2611 82.7617 55.5746 81.5241 52.5129 80.8351C49.4513 80.146 49.2172 79.6596 49.0547 79.0082C48.1396 75.3388 48.1303 71.071 47.8014 69.1373C47.5644 67.7434 47.5395 65.4065 47.9728 62.1654C48.2675 59.961 51.1907 59.6875 53.5368 59.2417C56.2749 58.7214 60.5404 57.3524 63.8932 56.5398C64.5295 56.4637 65.1479 56.4446 66.369 56.5714C67.5901 56.6982 69.3952 56.9716 71.2549 57.2532" stroke="#001A33" stroke-linecap="round"/>
<path d="M47.3648 46.1399C47.1641 46.1095 43.1474 45.5013 37.1098 43.9628C31.7139 42.5878 33.6929 33.7654 32.7225 31.9469C31.8535 30.3183 29.9807 29.5232 28.1165 28.1541C26.5105 26.9746 20.7702 25.604 16.9332 25.3085C13.9827 25.0812 9.69491 28.6182 8.41281 30.2039C7.35703 31.5097 6.59599 33.308 5.621 34.9402C4.88401 36.174 4.49378 37.5777 3.94484 39.498C2.99445 42.8227 4.14542 45.9995 4.82929 48.005C5.68775 50.5226 8.19386 52.1293 9.85537 53.8099C11.6766 55.6521 13.1243 56.5422 14.9295 57.9626C16.4845 59.0011 18.0059 59.9228 18.7395 59.8636C19.0718 59.7437 19.3229 59.4412 19.5816 59.1296" stroke="#001A33" stroke-linecap="round"/>
<path d="M35.0624 42.1333C36.3043 44.4123 38.3672 49.1728 38.4619 51.02C38.5661 53.0532 36.8775 54.8271 35.443 56.556C33.9698 58.3316 32.5225 58.9488 30.4743 59.4693C27.0135 60.3489 25.4191 60.0906 23.355 60.3357C22.2868 60.4626 20.8046 60.2841 19.2747 59.8327C18.6738 59.522 18.4292 59.0455 18.3439 58.5315C18.2585 58.0174 18.3398 57.4804 18.4236 56.9271" stroke="#001A33" stroke-linecap="round"/>
<path d="M15.862 27.0891C18.177 28.6982 21.2827 31.2338 22.7201 32.6634C24.015 33.9513 24.4801 35.9727 25.0453 38.0116C25.5667 39.8921 26.4268 41.4394 26.9665 43.3003C28.0392 46.9984 28.4706 48.3 28.7605 50.4678C28.867 51.1184 29.0642 51.831 29.0059 53.2547C28.9475 54.6785 28.6275 56.7919 27.644 59.2152" stroke="#001A33" stroke-linecap="round"/>
<path d="M23.3535 66.3033C21.9591 66.0921 20.2448 65.8326 18.5699 65.6895C15.9702 65.4675 13.5258 69.3859 12.7385 70.8333C12.2367 71.7558 11.8689 72.8244 11.8452 73.9903C11.7954 76.4372 13.6162 77.5559 15.9369 79.194C17.5474 80.3309 19.7153 82.0515 27.3664 83.4447C29.521 83.837 30.4741 82.4643 31.5306 81.2369C35.0123 77.1922 34.9331 74.7721 35.4402 71.1075C35.7767 68.6753 33.0723 67.4466 31.614 66.4952C30.1613 65.5481 28.2232 64.8089 26.2129 64.1694C25.365 63.9271 24.867 63.8517 24.3539 63.774" stroke="#001A33" stroke-linecap="round"/>
<path d="M31.4541 60.8035C32.9432 61.2563 34.844 62.4602 36.2983 63.8858C36.9939 64.5677 37.5677 65.1698 37.8642 65.9586C38.5488 67.7795 38.0948 69.9506 37.977 71.7718C37.7863 74.7191 36.8091 78.4829 35.4102 79.8208C34.0068 81.163 32.4747 81.6184 32.1177 82.2514C31.4125 83.5016 33.1823 85.166 34.0402 86.3894C34.8464 87.5391 34.8659 89.2093 35.2895 91.2244C35.6625 92.9988 35.6462 95.747 35.8002 98.5306C35.9921 101.999 35.6507 105.384 34.3618 107.73C33.3645 109.546 30.7022 109.931 28.1892 110.302C26.5528 110.543 24.9364 110.787 21.7393 111.617C19.1263 112.295 17.6977 112.446 15.9584 112.582C11.955 112.896 7.08462 111.645 5.51711 110.605C4.26404 109.774 2.43416 107.283 1.15801 104.268C0.396457 102.468 0.146524 98.2237 1.22634 90.349C1.50634 88.3071 3.31489 87.5451 4.6542 86.601C6.98492 84.9582 9.83903 85.7709 12.6699 85.9137C18.0304 86.1842 21.8683 86.9071 22.5969 86.2167C22.9722 85.8138 23.3591 85.3041 23.6172 84.6527C23.8754 84.0012 23.9931 83.2235 24.1145 82.4222" stroke="#001A33" stroke-linecap="round"/>
<path d="M37.199 79.8786C37.5523 81.0947 39.6181 84.5948 41.8452 86.0626C44.262 87.6555 47.5716 87.3066 51.5027 86.4152C52.9497 86.2047 53.8535 86.0222 54.5984 85.3941C54.9969 84.9242 55.4369 84.1477 55.8903 83.3477" stroke="#001A33" stroke-linecap="round"/>
<path d="M36.99 87.9382C37.3654 90.0604 37.7409 92.1827 40.1617 94.0149C42.5824 95.847 47.0372 97.3248 49.512 97.8838C51.9868 98.4429 52.3467 98.0384 52.7175 97.6216" stroke="#001A33" stroke-linecap="round"/>
<path d="M49.8448 89.8754C50.1724 97.3196 50.2081 101.888 50.348 107.798C50.4554 112.336 50.358 120.01 50.3856 124.363C50.4265 130.792 50.4835 132.376 50.9414 133.815C51.403 135.266 51.5527 136.984 51.8611 138.741C52.1852 140.587 52.7788 141.958 52.9414 143.637C52.981 144.045 53.0348 144.391 53.3966 144.733C54.3036 145.591 57.6394 145.444 61.7557 145.041C63.9551 144.826 65.5047 145.147 75.5728 146.106C84.7243 146.977 102.057 148.873 127.663 149.24C153.27 149.606 186.619 148.448 204.554 147.966C222.489 147.484 223.999 147.713 233.152 147.293C242.305 146.873 259.055 145.797 267.885 145.274C277.116 144.726 278.271 144.76 279.751 144.586C282.268 144.289 286.045 144.118 288.606 143.873C288.921 143.843 289.224 143.908 289.597 142.497C289.969 141.087 290.404 138.218 290.43 129.881C290.456 121.545 290.06 107.828 289.789 100.526C289.518 93.224 289.384 92.7521 289.221 90.4068C289.058 88.0615 288.87 83.857 288.677 79.5251" stroke="#001A33" stroke-linecap="round"/>
<path d="M53.2588 87.3675C53.2423 87.4768 53.2257 87.5862 52.9086 90.7289C52.5914 93.8716 51.9742 100.044 51.8692 105.662C51.7641 111.28 52.1898 116.156 52.5147 119.019C52.9217 122.607 53.5367 125.03 53.9729 128.143C54.8038 133.583 55.9868 138.52 56.9809 142.512C57.366 142.818 57.842 141.771 58.3324 140.692" stroke="#001A33" stroke-linecap="round"/>
<path d="M69.9148 84.2395C69.8815 84.4599 69.3659 89.9085 68.6726 100.988C68.3135 106.729 68.6018 112.726 68.6827 116.042C68.8086 121.201 68.8058 124.589 68.7881 126.419C68.7816 127.094 68.7217 127.89 68.9583 128.722C69.0772 129.139 69.5308 129.379 76.6196 130.287C83.7084 131.194 97.5048 132.72 104.931 133.441C112.978 134.223 114.275 133.883 116.024 133.977C121.282 134.259 123.996 134.333 127.696 133.925C134.918 133.129 138.95 133.291 141.249 133.243C142.536 133.216 145.049 132.852 149.345 132.595C151.778 132.45 154.716 132.051 158.213 132.061C165.694 132.084 170.401 132.705 171.628 132.492C172.732 132.302 174.284 132.493 179.163 132.387C183.036 132.302 189.738 131.452 193.703 131.125C197.669 130.798 198.694 130.84 204.548 130.429C210.402 130.017 221.054 129.15 226.751 128.679C232.869 128.173 233.705 128.169 234.475 128.23C235.16 128.283 240.347 128.721 248.537 129.621C253.504 130.167 256.306 129.546 258.112 129.307C261.731 128.828 266.727 127.479 269.473 126.532C270.232 126.27 270.979 126.19 271.436 125.974C272.148 125.636 272.599 122.473 273.152 115.752C273.933 106.267 273.038 100.313 272.986 99.6234C272.867 98.0354 272.895 95.7447 272.827 93.4578C272.675 88.3252 272.836 85.1537 272.967 82.2052C273.029 80.8197 272.912 79.1226 273.013 77.4318C273.126 75.5482 271.047 74.9634 269.841 73.9832C267.873 72.384 266.852 70.3454 266.09 68.8056C265.308 67.2254 266.123 64.1002 267.221 60.9549C268.257 58.9411 269.235 57.9518 270.594 57.2455C270.935 57.0683 271.271 56.8937 272.228 56.8063" stroke="#001A33" stroke-linecap="round"/>
<path d="M69.3103 14.76C69.4107 14.7752 69.5111 14.7904 74.5263 14.586C79.5414 14.3816 89.4682 13.957 104.324 14.8733C119.18 15.7896 138.664 18.0596 151.873 18.9723C165.083 19.885 171.427 19.3716 176.646 18.7788C181.865 18.1859 185.765 17.5293 188.344 17.1638C194.077 16.3511 197.06 16.0095 199.472 15.8593C201.147 15.7551 205.559 15.9221 214.785 16.0683C220.557 16.1598 228.564 15.3165 232.837 15.0289C237.409 14.7211 238.14 14.7839 240.95 14.584C243.341 14.414 247.694 14.1861 250.355 14.0083C253.016 13.8305 253.853 13.7305 256.895 14.0743C259.938 14.4182 265.16 15.209 268.185 17.1411C273.248 20.3753 272.331 26.8163 271.966 29.5633C271.704 31.5388 271.148 36.6879 270.164 43.5229C270.002 48.345 270.306 51.8272 270.389 54.0201C270.423 54.4873 270.473 54.8351 270.474 55.5293" stroke="#001A33" stroke-linecap="round"/>
<path d="M285.877 58.3024C283.918 57.3397 279.515 56.3298 274.629 55.59C273.652 55.442 279.078 55.1534 287.833 54.797C294.384 54.5303 297.517 55.8025 298.245 56.2475C299.561 57.0519 299.375 59.66 299.436 61.7501C299.494 63.7097 299.412 65.0552 298.23 72.5332C297.848 74.955 296.528 75.7237 295.591 76.3086C293.317 77.7284 290.353 77.9275 285.231 78.4976C282.107 78.8452 278.351 78.021 275.586 76.8235C275.3 76.2235 275.243 75.2156 275.289 74.5413C275.335 73.8671 275.487 73.5571 275.644 73.2377" stroke="#001A33" stroke-linecap="round"/>
<path d="M296.449 44.2916C297.114 43.9164 300.353 43.3289 305.584 42.8591C309.602 43.0385 311.697 43.5938 312.407 44.2997C312.756 44.7131 313.082 45.2383 313.417 45.7794" stroke="#001A33" stroke-linecap="round"/>
<path d="M311.089 57.3424C311.015 55.026 310.733 52.6432 310.284 50.656C310.014 49.4587 310.411 44.8267 311.6 38.0248C312.441 33.2153 314.662 31.5763 315.893 30.5402C317.544 29.151 319.895 28.8759 325.568 27.4105C328.46 26.6634 329.809 27.1149 332.947 27.5866C333.696 27.6992 334.053 28.0998 334.319 28.4893C335.443 30.1373 335.882 32.3306 336.193 34.1851C336.785 37.718 338.037 42.9045 338.403 44.3589C338.882 46.2584 339.584 51.0325 339.199 55.7627C338.918 59.216 335.718 61.0649 334.448 62.0391C332.429 63.5882 330.195 64.9997 328.355 66.1811C326.147 66.9538 324.557 67.5304 323.695 67.5745C323.265 67.5688 322.85 67.506 322.423 67.4412" stroke="#001A33" stroke-linecap="round"/>
<path d="M315.116 61.2778C315.185 60.8232 316.081 54.9066 317.66 45.8735C318.663 40.1302 321.378 38.8694 322.941 37.6899C324.884 36.2237 327.063 35.0308 329.126 33.7544C329.554 33.407 329.932 32.9993 330.341 32.7636C330.751 32.5279 331.18 32.4766 331.622 32.4238" stroke="#001A33" stroke-linecap="round"/>
<path d="M310.75 63.9611C310.17 63.6478 309.548 63.5502 308.6 63.9157C305.228 65.2147 304.214 68.0898 303.846 69.459C302.987 72.6618 303.033 78.6058 303.818 81.4683C304.411 83.631 308.026 83.2502 312.557 83.9961C314.863 84.3757 317.468 83.6616 319.614 82.7941C321.585 81.9973 321.708 77.3744 322.204 73.7508C322.934 68.4274 319.434 62.4332 318.72 61.5853C317.028 59.5772 312.95 60.6451 311.41 61.0405C310.971 61.1449 310.426 61.288 310.019 61.5115C309.611 61.7351 309.357 62.0348 308.785 62.2968" stroke="#001A33" stroke-linecap="round"/>
<path d="M312.113 67.9028C310.601 69.8683 309.669 74.7827 310.221 78.2014C310.352 79.0162 311.74 78.9575 312.998 78.976C314.561 78.9991 315.919 77.2847 316.623 75.768C317.068 74.8085 317.491 73.1269 317.547 71.2275C317.434 70.4482 317.032 70.0436 316.599 69.801C316.166 69.5583 315.714 69.4898 315.248 69.4193" stroke="#001A33" stroke-linecap="round"/>
<path d="M332.387 70.9728C329.968 73.2565 328.095 77.3664 327.64 79.3361C327.443 80.1848 327.102 81.1649 327.527 82.0975C329.108 85.571 333.742 82.528 335.739 81.7312C336.876 81.2775 337.365 79.9508 337.688 78.8467C338.134 77.3197 337.867 75.9738 337.412 75.212C336.534 73.8028 334.412 72.7869 332.585 72.1037C332.235 71.9918 331.934 71.9461 331.369 71.5134" stroke="#001A33" stroke-linecap="round"/>
<path d="M323.69 68.851C327.216 66.5871 333.547 66.6445 337.062 67.846C338.498 68.3366 338.997 70.3753 339.628 71.9875C340.368 73.8779 341 75.5009 341.466 77.532C342.094 80.2723 340.816 83.5473 340.308 84.1968C338.528 86.4757 335.312 86.6383 333.933 86.8786C330.405 87.4938 324.361 85.5451 323.223 84.5338C322.861 83.8652 322.373 82.3385 321.908 80.3093C321.777 79.4404 321.86 78.8979 321.742 77.6358" stroke="#001A33" stroke-linecap="round"/>
<path d="M293.81 88.4396C293.746 88.8576 293.932 89.6404 294.47 90.7989C295.99 94.0701 302.552 93.4366 305.187 92.6533C308.925 89.977 310.196 88.3393 311.075 86.5874C311.416 85.7158 311.542 84.8799 311.673 84.0186" stroke="#001A33" stroke-linecap="round"/>
<path d="M304.854 94.0088C303.243 96.5226 300.219 104.15 299.983 108.081C299.947 108.682 300.18 109.153 300.49 109.493C302.211 111.386 305.199 112.81 311.65 115.006C315.414 116.287 322.239 116.786 326.007 117.242C330.386 117.772 331.413 117.137 332.161 116.615C332.93 116.078 333.825 115.536 334.559 114.435C336.733 111.173 336.398 105.398 335.627 102.673C334.681 99.3304 333.529 97.7812 330.579 95.1342C326.836 91.775 323.479 91.1606 317.495 88.808C316.255 88.3267 315.972 88.1693 315.627 88.0579C315.281 87.9465 314.881 87.8859 314.52 87.484" stroke="#001A33" stroke-linecap="round"/>
<path d="M317.653 86.947C317.62 87.1676 316.86 90.8918 315.761 97.1562C314.563 103.986 316.216 106.894 317.185 109.317C318.333 110.517 319.519 111.274 320.412 111.58C320.843 111.704 321.227 111.762 321.622 111.822" stroke="#001A33" stroke-linecap="round"/>
<path d="M153.77 151.632C154.837 154.839 155.905 158.047 157.453 162.332C159.002 166.617 161 171.884 162.496 176.641C163.992 181.399 164.925 185.489 165.725 191.987C166.524 198.485 167.161 207.268 167.574 212.256C168.066 218.186 168.586 219.506 169.384 220.422C171.588 222.952 173.814 222.92 178.814 223.68C181.089 224.027 182.541 222.652 183.161 222.007C183.468 221.688 183.595 221.222 185.452 209.313C187.308 197.404 190.849 174.024 192.647 161.807C194.394 149.244 194.441 148.226 194.458 147.09C194.375 146.616 194.104 146.349 193.826 146.074" stroke="#001A33" stroke-linecap="round"/>
<path d="M155.296 188.787C154.453 188.984 151.528 189.201 148.876 190.051C147.824 190.388 147.305 191.182 146.842 192.199C146.044 193.952 146.32 195.625 146.574 196.318C147.201 198.028 149.433 198.173 151.551 198.825C152.56 199.303 154.589 200.158 158.183 201.194C160.228 201.671 162.723 202.049 165.294 202.438" stroke="#001A33" stroke-linecap="round"/>
<path d="M188.64 202.939C190.75 202.25 196.352 200.398 199.414 198.881C200.785 198.202 200.557 195.953 200.57 194.828C200.594 192.561 196.315 191.697 193.746 191.081C192.651 190.581 191.021 190.104 189.141 189.875C188.394 189.818 188.068 189.88 187.37 190.228" stroke="#001A33" stroke-linecap="round"/>
<path d="M166.636 189.493C164.821 189.329 162.781 189.914 160.661 190.999C159.671 191.505 159.124 192.509 158.648 193.501C158.38 194.06 158.333 194.85 158.73 195.423C159.127 195.995 160.04 196.356 161.509 196.693C162.977 197.03 164.974 197.332 167.031 197.644" stroke="#001A33" stroke-linecap="round"/>
<path d="M189.831 198.062C190.027 198.092 191.5 198.315 193.684 197.936C194.64 197.771 194.706 195.963 193.981 195.122C191.59 194.029 189.252 193.894 188.149 194.166C187.666 194.315 187.34 194.484 186.707 194.613" stroke="#001A33" stroke-linecap="round"/>
<path d="M161.666 179.638C154.832 178.376 151.084 177.12 148.227 176.513C145.06 175.841 142.478 175.128 140.24 174.216C138.469 173.494 137.381 172.521 137.079 171.788C136.777 171.056 136.69 170.237 136.976 169.364C137.562 168.537 140.13 167.208 145.209 165.345C148.1 164.4 151.625 163.457 155.864 162.577" stroke="#001A33" stroke-linecap="round"/>
<path d="M160.288 175.384C156.955 174.879 154.521 173.814 152.793 172.551C151.316 171.473 150.422 170.959 150.032 170.55C149.85 170.36 149.968 169.958 150.166 169.635C150.364 169.311 150.707 169.015 151.875 168.548C153.044 168.081 155.027 167.453 157.07 166.805" stroke="#001A33" stroke-linecap="round"/>
<path d="M164.243 175.982C173.597 176.725 178.828 177.294 181.496 177.528C183.633 177.236 185.867 176.674 186.538 176.272C186.88 176.042 187.226 175.761 187.582 175.471" stroke="#001A33" stroke-linecap="round"/>
<path d="M166.46 181.375C176.373 182.289 180.247 181.934 182.158 181.924C183.586 181.611 185.376 180.94 187.092 179.786C187.526 179.379 188.022 178.87 189.26 177.748" stroke="#001A33" stroke-linecap="round"/>
<path d="M193.815 162.511C195.423 162.527 200.09 163.116 205.978 164.178C208.049 164.552 208.174 165.023 208.073 166.378C207.538 173.519 205.337 176.425 204.146 177.917C202.764 179.647 200.691 178.948 198.342 179.339C195.749 179.351 192.143 179.033 190.011 179.627C189.365 179.874 188.412 180.185 186.834 180.415" stroke="#001A33" stroke-linecap="round"/>
<path d="M190.399 176.909C195.032 176.42 197.974 176.154 200.16 175.471C201.051 175.192 201.921 174.13 202.884 172.91C203.376 172.288 203.398 171.268 203.304 170.532C202.959 167.832 200.099 167.057 198.38 166.082C197.59 165.84 196.284 165.643 195.351 165.56C194.418 165.478 193.899 165.518 192.754 165.466" stroke="#001A33" stroke-linecap="round"/>
<path d="M163.042 150.516C163.084 152.974 163.856 157.534 164.96 161.989C165.809 165.417 166.571 167.922 167.317 170.619C167.805 172.211 168.046 173.433 168.044 174.134C168.093 174.495 168.244 174.866 168.347 175.593" stroke="#001A33" stroke-linecap="round"/>
<path d="M169.426 181.824C169.546 183.791 170.002 189.086 170.576 195.731C170.712 199.073 170.833 201.05 171.065 202.3C171.184 202.215 171.366 201.701 171.554 201.172" stroke="#001A33" stroke-linecap="round"/>
<path d="M184.254 150.693C183.354 156.637 182.819 163.179 182.766 168.684C182.927 172.21 182.836 174.014 182.733 176.213C182.757 176.957 182.891 177.878 183.028 178.827" stroke="#001A33" stroke-linecap="round"/>
<path d="M183.119 184.909L179.975 205.672" stroke="#001A33" stroke-linecap="round"/>
<path d="M154.984 61.4239V60.5919C155.731 60.3999 156.467 60.2506 157.192 60.1439C157.918 60.0159 158.622 59.9199 159.304 59.8559L159.56 44.0479H155.24V43.2159L160.424 42.0319H161.992V59.8559L166.12 60.4639V61.4239H154.984ZM168.485 61.4239V59.3119C168.507 58.3946 168.773 57.5519 169.285 56.7839C169.797 55.9946 170.448 55.2586 171.237 54.5759C172.048 53.8719 172.912 53.1999 173.829 52.5599C174.747 51.8986 175.6 51.2372 176.389 50.5759C177.179 49.9146 177.829 49.2426 178.341 48.5599C178.853 47.8559 179.109 47.1092 179.109 46.3199C179.109 45.7226 178.992 45.2106 178.757 44.7839C178.523 44.3359 178.128 43.9412 177.573 43.5999L179.205 44.5279C177.712 44.1866 176.24 44.0159 174.789 44.0159C173.893 44.0159 172.997 44.0692 172.101 44.1759C171.227 44.2826 170.341 44.4426 169.445 44.6559L169.061 42.7359C170.171 42.5012 171.205 42.3199 172.165 42.1919C173.147 42.0639 174.064 41.9999 174.917 41.9999C177.008 41.9999 178.64 42.3626 179.813 43.0879C180.987 43.8132 181.573 44.8799 181.573 46.2879C181.573 47.2479 181.317 48.1332 180.805 48.9439C180.293 49.7546 179.632 50.5119 178.821 51.2159C178.032 51.9199 177.179 52.6026 176.261 53.2639C175.365 53.9039 174.512 54.5439 173.701 55.1839C172.912 55.8239 172.261 56.4852 171.749 57.1679C171.237 57.8506 170.971 58.5759 170.949 59.3439L170.917 61.4239H168.485ZM169.541 61.4239V59.7599L181.541 59.4719V61.4239H169.541ZM179.749 61.4239L181.285 55.1199H182.213L182.309 61.4239H179.749ZM169.157 49.1679L169.061 42.7359H171.493L170.085 49.1679H169.157ZM142.658 85.6879V93.6559H141.762L140.61 87.4159H134.594V104.856L138.914 105.496V106.424H127.554V105.592C128.301 105.4 129.026 105.24 129.73 105.112C130.456 104.984 131.17 104.888 131.874 104.824L132.162 87.4159H126.082L124.93 93.6559H124.034V85.6879H142.658ZM155.291 93.2719C153.221 93.1866 151.259 93.6559 149.403 94.6799V94.1359C150.021 93.4319 150.661 92.8132 151.323 92.2799C151.984 91.7466 152.677 91.2666 153.403 90.8399C153.787 90.8399 154.139 90.8932 154.459 90.9999C154.8 91.1066 155.12 91.2559 155.419 91.4479L155.291 93.2719ZM144.827 106.424V105.688C145.125 105.539 145.445 105.411 145.787 105.304C146.149 105.176 146.576 105.069 147.067 104.984L147.355 94.0399L145.723 91.9919C146.853 91.2879 148.069 90.8399 149.371 90.6479L149.627 94.1999V104.984L153.115 105.656V106.424H144.827ZM168.962 106.616C168.322 106.616 167.714 106.371 167.138 105.88C166.583 105.389 166.21 104.675 166.018 103.736L166.338 94.1039C164.951 92.9732 163.234 92.4079 161.186 92.4079C160.781 92.4079 160.375 92.4399 159.97 92.5039C159.565 92.5466 159.181 92.6212 158.818 92.7279L160.162 92.0239L159.586 96.5359C158.903 96.4079 158.381 96.1626 158.018 95.7999C157.655 95.4372 157.474 94.9892 157.474 94.4559C157.474 93.7732 157.719 93.1439 158.21 92.5679C158.701 91.9919 159.362 91.5439 160.194 91.2239C161.047 90.8826 161.975 90.7119 162.978 90.7119C164.109 90.7119 165.143 90.9359 166.082 91.3839C167.042 91.8106 167.885 92.4292 168.61 93.2399V104.312L171.746 104.152C171.639 104.664 171.447 105.112 171.17 105.496C170.893 105.859 170.562 106.136 170.178 106.328C169.794 106.52 169.389 106.616 168.962 106.616ZM161.858 106.744C160.429 106.723 159.277 106.328 158.402 105.56C157.527 104.792 157.09 103.789 157.09 102.552C157.09 101.955 157.218 101.432 157.474 100.984C157.751 100.536 158.242 100.131 158.946 99.7679C159.65 99.3839 160.642 98.9999 161.922 98.6159C163.202 98.2319 164.845 97.8052 166.85 97.3359V98.8079L159.234 100.312L160.034 99.8959C159.927 100.237 159.842 100.589 159.778 100.952C159.735 101.293 159.714 101.613 159.714 101.912C159.714 102.787 159.927 103.469 160.354 103.96C160.781 104.429 161.431 104.664 162.306 104.664C162.925 104.664 163.586 104.536 164.29 104.28C165.015 104.024 165.773 103.619 166.562 103.064V103.576C165.879 104.28 165.165 104.899 164.418 105.432C163.671 105.944 162.818 106.381 161.858 106.744ZM179.329 106.68C178.113 106.68 177.025 106.349 176.065 105.688C175.105 105.005 174.359 104.077 173.825 102.904C173.292 101.731 173.025 100.376 173.025 98.8399C173.025 97.1546 173.324 95.7146 173.921 94.5199C174.54 93.3039 175.393 92.3652 176.481 91.7039C177.569 91.0426 178.807 90.7119 180.193 90.7119C180.876 90.7119 181.559 90.7866 182.241 90.9359C182.924 91.0852 183.585 91.3092 184.225 91.6079L183.809 93.4959C182.487 92.8772 181.036 92.5679 179.457 92.5679C178.839 92.5679 178.231 92.6532 177.633 92.8239C177.057 92.9946 176.503 93.2399 175.969 93.5599L177.025 92.6319C176.535 93.5066 176.151 94.4452 175.873 95.4479C175.617 96.4506 175.489 97.4639 175.489 98.4879C175.489 99.7892 175.703 100.899 176.129 101.816C176.556 102.733 177.143 103.437 177.889 103.928C178.657 104.419 179.532 104.664 180.513 104.664C181.111 104.664 181.729 104.579 182.369 104.408C183.031 104.216 183.703 103.928 184.385 103.544L184.577 103.992C183.063 105.784 181.313 106.68 179.329 106.68ZM183.265 96.0879L181.921 91.6079H184.225L184.129 96.0879H183.265ZM186.324 106.424V105.688C186.602 105.56 186.911 105.432 187.252 105.304C187.615 105.176 188.042 105.069 188.532 104.984L188.884 86.2959L187.188 84.1199C187.786 83.7572 188.404 83.4692 189.044 83.2559C189.684 83.0212 190.367 82.8612 191.092 82.7759V105.048L193.46 105.656V106.424H186.324ZM198.548 106.68L192.02 98.2959L198.068 91.3199H199.892V91.6399L193.78 98.7119L193.812 97.0479L201.236 106.008C200.831 106.136 200.404 106.264 199.956 106.392C199.508 106.499 199.039 106.595 198.548 106.68ZM198.356 92.8559C197.759 92.7706 197.194 92.6319 196.66 92.4399C196.127 92.2479 195.626 92.0239 195.156 91.7679V90.9999H201.204V91.7679L198.356 92.8559ZM208.15 106.648C207.424 106.648 206.646 106.584 205.814 106.456C205.003 106.349 204.16 106.168 203.286 105.912L204.246 104.024C205.227 104.28 206.176 104.483 207.094 104.632C208.011 104.781 208.918 104.856 209.814 104.856C210.155 104.856 210.486 104.845 210.806 104.824C211.147 104.781 211.488 104.739 211.83 104.696L210.774 105.208C211.222 104.995 211.606 104.675 211.926 104.248C212.267 103.821 212.438 103.373 212.438 102.904C212.438 102.392 212.224 101.955 211.798 101.592C211.371 101.229 210.816 100.888 210.134 100.568C209.472 100.248 208.768 99.9172 208.022 99.5759C207.275 99.2346 206.56 98.8612 205.878 98.4559C205.216 98.0292 204.672 97.5279 204.246 96.9519C203.819 96.3546 203.606 95.6506 203.606 94.8399C203.606 93.5386 204.182 92.5252 205.334 91.7999C206.486 91.0746 207.99 90.7119 209.846 90.7119C210.486 90.7119 211.168 90.7546 211.894 90.8399C212.619 90.9252 213.366 91.0639 214.134 91.2559L213.462 93.2719C212.544 93.0159 211.659 92.8239 210.806 92.6959C209.952 92.5679 209.142 92.5039 208.374 92.5039C208.054 92.5039 207.723 92.5146 207.382 92.5359C207.062 92.5572 206.72 92.5892 206.358 92.6319L207.158 92.2799C206.71 92.4932 206.379 92.7919 206.166 93.1759C205.974 93.5599 205.878 93.9546 205.878 94.3599C205.878 94.8932 206.091 95.3626 206.518 95.7679C206.944 96.1732 207.488 96.5359 208.15 96.8559C208.832 97.1759 209.547 97.5066 210.294 97.8479C211.04 98.1679 211.744 98.5412 212.406 98.9679C213.088 99.3732 213.643 99.8532 214.07 100.408C214.496 100.963 214.71 101.635 214.71 102.424C214.71 103.747 214.102 104.781 212.886 105.528C211.67 106.275 210.091 106.648 208.15 106.648ZM203.286 105.912L203.414 101.176H204.438L205.75 105.88L203.286 105.912ZM213.046 95.7039L211.67 91.2559H214.134L214.07 95.7039H213.046Z" fill="black"/>
</svg>
