<?xml version="1.0" encoding="UTF-8"?>
<svg id="Layer_1" xmlns="http://www.w3.org/2000/svg" version="1.1" viewBox="0 0 381.7 160">
  <!-- Generator: Adobe Illustrator 29.3.1, SVG Export Plug-In . SVG Version: 2.1.0 Build 151)  -->
  <defs>
    <style>
      .st0 {
        fill: #1401d2;
      }

      .st1 {
        fill: none;
        opacity: .4;
      }
    </style>
  </defs>
  <g>
    <path class="st0" d="M357.6,72c-2.3-1.6-5-2.8-8.6-3.8-2.1-.6-4.2-1.1-6.2-1.7-2.4-.6-5-1.3-7.4-2-2.7-.7-4.8-1.8-6.5-3.1-1.7-1.3-2.4-2.9-2.2-4.8,0-.7.6-1.3,1.2-1.5h0c3.3-1.2,6.7-1.7,10.1-1.4,3.7.2,7,1.3,9.5,3.2,0,0,0,0,.1,0,.2.1.4.3.5.4.1.1.3.3.4.4,0,0,0,0,0,0,0,0,.2.2.3.3.3.4.6.7.9,1.1,0,0,0,0,0,0,0,0,0,0,0,0,0,0,0,0,0,0,1,1.5,1.7,3.1,2.3,4.7h0c.5,1.6,1.2,1.2,1.8.7l1.1-1.1c1.9-1.8,3.7-3.6,5.4-5.3.4-.4.8-1.2.6-2,0-.3-.2-.7-.2-1-.2-1-.4-2.1-.9-3.1-1.4-3-3.9-5.1-7.6-6.7-4.2-1.7-8.6-2.2-13.4-1.5-2.7.4-6.1,1.1-9,3.3-2.1,1.6-4.2,3.4-6.1,5.2-1.9,1.8-4.2,4.2-6,7.2-2.1,3.8-1,8.6,2.6,11.1,2.6,1.8,5.6,2.8,8.2,3.5,1.9.5,3.8,1,5.7,1.6,2.7.7,5.5,1.5,8.2,2.3,2.3.7,5.3,1.7,7.5,3.8,2,1.8,2.8,3.8,2.5,6.2,0,.7-.6,1.3-1.2,1.6-2.9,1-5.8,1.5-8.6,1.5-6.7.3-12.9-1.8-16-6.2-1.5-2.2-2.5-4.8-3.1-7.1,0,0,0,0,0,0-.3-1-.7-1.3-1.6-.4l-1.1,1.1c-1.8,1.7-4,3.4-5.7,5.1-.7.7-.7,1.7-.7,2,.1,4.6,2.9,8.3,6.9,11.1,4,2.8,8.7,4.2,14.2,4.2.3,0,.7,0,1,0,6.9-.2,12-2.1,16-6.1.6-.6,1.3-1.2,1.9-1.8,1.9-1.8,4-3.7,5.6-6,1.8-2.6,2.5-5.5,2-8.3-.5-2.7-2.1-5.1-4.7-6.9Z"/>
    <path class="st0" d="M324.2,38.9l2.6,1.7c.3.2.8.2,1.1,0h0c7.5-5.3,11.7-12.8,12.3-21.7v-.2c0-.6-.4-1.1-1-1.1h-10.7c-.6,0-1,.5-1,1.1v.2c.5,8.1-.4,13.9-3.6,18.5h0c-.3.6-.2,1.2.3,1.5Z"/>
    <path class="st0" d="M225,27.4c-2.2-.5-4.4-.1-6.3,1.1-2,1.3-3.4,3.3-3.8,5.6-.7,3.7,1.4,7.3,4.9,8.2.6.2,1.3.2,1.9.2,1.8,0,3.7-.6,5.2-1.8,2.1-1.6,3.4-4.1,3.4-6.6,0-3.3-2.1-6-5.3-6.8Z"/>
    <path class="st0" d="M315.7,41l-17.9,3c-.6,0-1.1-.3-1.1-.9,0-.2,0-.5,0-.7,0-3.9,0-5.5,0-8.2,0-2,.4-4.1,1.2-6.3.3-.8,1-1.5,1.9-1.6,2-.4,4.1,0,6.4,1.2,1.5.8,2.9,1.9,4.2,3.5h0c.6.8,1.8.8,2.5,0l7.7-7.9c.6-.6.6-1.6,0-2.3h0c-3.2-3.8-7-5.8-11.4-5.7-3.1,0-5.8,1.4-7.9,2.8-3.5,2.2-6.3,5.1-8.9,8l-.7.8c-3.5,3.8-7.3,8.4-7.6,14.1,0,.8,0-.4-.1,1.9,0,.9,0,1.8,0,2.5,0,.4-.3.8-.8.9l-25.7,4.3c-.6,0-1.1-.3-1.1-.9h0c0-4.6,0-13.2,0-15.1,0-1.2.3-2.4.6-3.7.1-.7.3-1.4.4-2.1.3-1.6,1-2.2,2.7-2.2.2,0,.3,0,.5,0,.4,0,.7,0,1,0,3.2.3,5.7,1.7,7.9,4,.2.2.4.4.5.6h.1c.7.8,1.7.8,2.4.2l7.9-7.9c.7-.7.6-1.8-.1-2.5h0c-.3-.3-.7-.6-1-.9-.8-.7-1.7-1.5-2.7-2.2-1.7-1.2-3.7-2-5.8-2.2-4.2-.5-7.6,1.3-9.7,2.7-3.9,2.5-7,5.9-9.8,9.1-.6.7-1.4,1.4-2.2,2.1-2.1,2-3.8,4.2-4.5,6.9-.3,1-.4,3.9-.7,9.8,0,2-.2,4.2-.3,5.8,0,.4-.3.8-.8.8l-6.4,1.1c-.8.1-1.4.8-1.4,1.7v7.9c0,1,.9,1.8,2,1.7l5.6-.9c.6,0,1.1.3,1.1.9v33.2c0,.9.8,1.7,1.7,1.7h9.4c.9,0,1.7-.8,1.7-1.7v-35.5c0-.4.3-.8.8-.9l5.3-.9c3.6-.6,6.8-2.5,9.1-5.3l3.2-4.1c.5-.7,1.6-.3,1.6.6v5.5c0,.6.5,1,1.1.9l5.4-.9c.6,0,1.1.3,1.1.9v39.7c0,.9.8,1.7,1.7,1.7h9.3c.9,0,1.7-.8,1.7-1.7v-41.9c0-.4.3-.8.8-.9l6.6-1.1c4.6-.8,8.5-3.6,10.6-7.8l2.1-4c.4-.7-.2-1.5-1-1.4Z"/>
    <path class="st0" d="M226.6,47h-9.2c-1,0-1.8.8-1.8,1.8v49.4c0,.9.8,1.7,1.7,1.7h9.4c.9,0,1.7-.8,1.7-1.7v-49.4c0-1-.8-1.8-1.8-1.8Z"/>
    <path class="st0" d="M215.4,22.7h-57.8c-.6,0-1.1.5-1.1,1.1v8.2c0,.6.5,1.1,1.1,1.1h20.6v65c0,.9.8,1.7,1.7,1.7h9.4c.9,0,1.7-.8,1.7-1.7V33.1h14.5c2.5,0,4.9-1.3,6.2-3.5l4-6.5c.1-.2,0-.4-.3-.4Z"/>
    <polygon class="st0" points="358.8 43.1 359.7 43.1 359.7 36.1 362.2 36.1 362.2 35.3 356.2 35.3 356.2 36.1 358.8 36.1 358.8 43.1"/>
    <polygon class="st0" points="371 35.3 368 39.9 365 35.3 364 35.3 364 43.1 364.9 43.1 364.9 36.8 367.9 41.3 368 41.3 371.1 36.8 371.1 43.1 371.9 43.1 371.9 35.3 371 35.3"/>
    <g>
      <path class="st0" d="M183.6,135.2v-17.2h-6.8v-4h18.4v4h-6.8v17.2h-4.9Z"/>
      <path class="st0" d="M209.2,135.2v-21.2h9.2c1.9,0,3.5.3,4.9.9s2.4,1.5,3.2,2.6c.7,1.1,1.1,2.5,1.1,4.1s-.4,2.9-1.1,4.1-1.8,2-3.2,2.6-3,.9-4.9.9h-6.4l2.2-2.1v8h-4.9ZM214.1,127.7l-2.2-2.3h6.2c1.5,0,2.6-.3,3.4-1,.7-.7,1.1-1.6,1.1-2.7s-.4-2.1-1.1-2.7c-.7-.6-1.9-1-3.4-1h-6.2l2.2-2.3v12ZM222.7,135.2l-5.3-7.7h5.2l5.3,7.7h-5.3Z"/>
      <path class="st0" d="M248.3,131.3h11.5v3.9h-16.4v-21.2h16v3.9h-11.1v13.3ZM247.9,122.6h10.2v3.8h-10.2v-3.8Z"/>
      <path class="st0" d="M272.9,135.2l9.4-21.2h4.8l9.5,21.2h-5.1l-7.7-18.7h1.9l-7.8,18.7h-5ZM277.6,130.7l1.3-3.7h10.9l1.3,3.7h-13.5Z"/>
      <path class="st0" d="M312.4,135.2v-17.2h-6.8v-4h18.4v4h-6.8v17.2h-4.9Z"/>
      <path class="st0" d="M344.6,135.6c-1.7,0-3.3-.2-4.9-.7-1.6-.5-2.8-1-3.7-1.8l1.7-3.7c.9.6,2,1.2,3.2,1.6,1.2.4,2.5.6,3.8.6s1.7,0,2.3-.3,1-.5,1.3-.8c.3-.3.4-.7.4-1.2s-.2-1-.7-1.3c-.4-.3-1-.6-1.8-.8-.7-.2-1.5-.4-2.4-.6-.9-.2-1.8-.4-2.6-.7-.9-.3-1.7-.6-2.4-1.1-.7-.4-1.3-1-1.8-1.8s-.7-1.7-.7-2.8.3-2.3,1-3.3c.7-1,1.6-1.8,3-2.4,1.3-.6,3-.9,5-.9s2.6.2,3.9.5c1.3.3,2.4.8,3.4,1.4l-1.5,3.7c-1-.6-2-1-3-1.3-1-.3-2-.4-2.9-.4s-1.7.1-2.3.3c-.6.2-1,.5-1.3.9-.3.4-.4.8-.4,1.2s.2,1,.7,1.3c.4.3,1,.6,1.8.8s1.5.4,2.4.6c.9.2,1.8.4,2.6.7s1.7.6,2.4,1.1c.7.4,1.3,1,1.8,1.8.5.7.7,1.6.7,2.7s-.3,2.3-1,3.3-1.7,1.8-3,2.4c-1.3.6-3,.9-5,.9Z"/>
    </g>
    <path class="st0" d="M132.6,22.8H30.8c-5.6,0-10.1,4.5-10.1,10.1v92.3c0,5.6,4.5,10.1,10.1,10.1h101.8c5.6,0,10.1-4.5,10.1-10.1V32.9c0-5.6-4.5-10.1-10.1-10.1ZM137,125.1c0,2.4-2,4.4-4.4,4.4H30.8c-2.4,0-4.4-2-4.4-4.4v-41.4l42.9-3.9c-3,2.8-6.1,7.4-9.5,12.5-6.5,9.8-14,20.9-23.3,24h-.3c0,0,0,.4,0,.4.1.6,6.9,2.8,9.7,3.4,0,0,.1,0,.2,0,.5.1.9,0,1.2,0,4.5-2.7,8.9-6.5,13-11.5,5.8-7.1,9.4-12,13.8-21.1,2-4,3.9-7,5.2-7.9,1,.6,1.7.9,2.4.9.6,0,1.3-.4,2.4-.9,1.3.9,3.3,3.8,5.2,7.9,4.4,9,8,14,13.8,21.1,4,4.9,8.4,8.7,12.9,11.4.3.2.7.2,1.4.1h0c2.7-.5,9.7-2.8,9.8-3.4v-.3s-.2,0-.2,0c-9.4-3.1-16.8-14.2-23.3-24-3.4-5.1-6.5-9.8-9.5-12.5l42.9,3.9v41.4ZM56.5,58.8c-.8-.7-2.3-2-3.1-2.9l-.2-.2s0,0,0-.1l-.2-.2c-.5-.5-1.1-1.3-1.3-2.1,1.1-.5,2.7-.5,3.4-.4.1,0,.2,0,.3,0,2.4.4,4.3,1.9,5.5,3,3.6,3.2,6.6,7.2,9.7,12.8l.5,1c-1-.7-2-1.4-3-2.1-2.7-1.9-5.3-3.7-7.9-5.6-.9-.7-1.9-1.5-3.1-2.5l-.7-.6h0ZM106.2,59.4c-1.1,1-2.1,1.8-3.1,2.5-2.6,1.9-5.1,3.7-7.9,5.6-1,.7-2,1.4-3,2.1l.4-.8h0s.1-.2.1-.2c3-5.5,6.1-9.6,9.7-12.8,1.2-1.1,3.2-2.6,5.6-3,.1,0,.2,0,.3,0,.8,0,2.3,0,3.4.4-.2.8-.9,1.6-1.3,2.1l-.2.2s0,0-.1.2l-.2.2c-.8.9-2.2,2.2-3.1,2.9h0s-.7.6-.7.6ZM137,72.8l-41,2.4c1-.4,1.9-.9,3-1.4l1-.6c.6-.4,1.2-.7,1.7-1,3.4-2,7.7-4.7,11.3-8.6l.3-.4c2.2-2.4,5-5.5,5.3-9,0-.7-.1-1.4-.4-2.2-.8-1.6-1.6-3.5-2.3-5.3-.7-1.6-1.3-3.2-2-4.5-.5-1.1-1.3-1.7-2.7-1.8-4.5-.5-9.6,1.5-13.6,5.4-4.4,4.3-7.8,9.6-10.4,16.3-.4,1-.8,2.2-1.2,3.5-.5,1.5-1,3.1-1.6,4.4-.2.5-.5,1-.9,1.3-.4.4-1.3.7-1.7.7-.5,0-1.4-.3-1.8-.7-.3-.3-.6-.8-.9-1.3-.5-1.2-1.1-2.8-1.6-4.4-.4-1.3-.8-2.5-1.2-3.5-2.6-6.7-6-12-10.4-16.3-4-3.9-9.1-5.9-13.6-5.4-1.4.2-2.2.7-2.7,1.8-.6,1.4-1.3,3-2,4.5-.8,1.8-1.6,3.7-2.3,5.3-.3.7-.5,1.5-.4,2.2.3,3.5,3,6.5,5.3,9l.3.4c3.5,3.9,7.9,6.7,11.3,8.6.5.3,1.1.6,1.7,1l1,.6c1,.6,2,1,3,1.4l-41-2.4v-40c0-2.4,2-4.4,4.4-4.4h101.8c2.4,0,4.4,2,4.4,4.4v40Z"/>
  </g>
  <rect class="st1" width="381.7" height="160"/>
</svg>