<svg width="535" height="323" viewBox="0 0 535 323" fill="none" xmlns="http://www.w3.org/2000/svg">
<rect x="1.0618" y="322.216" width="154.856" height="534" rx="77.4282" transform="rotate(-90.4142 1.0618 322.216)" fill="#D9D9D9"/>
<rect x="1.0618" y="322.216" width="154.856" height="534" rx="77.4282" transform="rotate(-90.4142 1.0618 322.216)" stroke="black" stroke-opacity="0.2"/>
<rect x="1.0618" y="322.216" width="154.856" height="534" rx="77.4282" transform="rotate(-90.4142 1.0618 322.216)" stroke="black" stroke-opacity="0.2"/>
<rect x="1.0618" y="322.216" width="154.856" height="534" rx="77.4282" transform="rotate(-90.4142 1.0618 322.216)" stroke="black"/>
<rect x="244.939" y="112.5" width="134" height="79" rx="19.5" fill="#D9D9D9"/>
<rect x="244.939" y="112.5" width="134" height="79" rx="19.5" stroke="black" stroke-opacity="0.2"/>
<rect x="244.939" y="112.5" width="134" height="79" rx="19.5" stroke="black"/>
<rect x="244.939" y="112.5" width="134" height="79" rx="19.5" stroke="black" stroke-opacity="0.2"/>
<rect x="276.939" y="32.5" width="9" height="111" fill="#D9D9D9"/>
<rect x="276.939" y="32.5" width="9" height="111" stroke="black" stroke-opacity="0.2"/>
<rect x="276.939" y="32.5" width="9" height="111" stroke="black" stroke-opacity="0.2"/>
<rect x="276.939" y="32.5" width="9" height="111" stroke="black"/>
<rect x="312.939" y="0.5" width="14" height="131" fill="#D9D9D9"/>
<rect x="312.939" y="0.5" width="14" height="131" stroke="black" stroke-opacity="0.2"/>
<rect x="312.939" y="0.5" width="14" height="131" stroke="black" stroke-opacity="0.2"/>
<rect x="312.939" y="0.5" width="14" height="131" stroke="black"/>
</svg>
