<svg width="1127" height="812" viewBox="0 0 1127 812" fill="none" xmlns="http://www.w3.org/2000/svg">
<path d="M3.17889 303.845C3.29881 304.145 3.63038 305.618 4.08414 307.752C4.31678 308.846 4.48066 309.294 4.61602 309.791C4.83095 310.581 5.35638 311.531 5.82513 312.378C6.10711 312.888 6.35746 313.2 7.09329 314.462C7.72805 315.55 8.93829 317.522 9.63096 318.632C10.4467 319.938 10.6879 320.256 10.8387 320.543C10.9933 320.837 11.5627 321.613 12.408 322.957C13.7366 325.071 14.3507 325.191 14.7295 325.525C15.0119 325.773 15.1692 326.131 15.3204 326.222C15.5146 326.34 15.4426 324.45 15.5026 322.436C15.5215 321.798 15.6824 321.95 15.7892 322.132C15.8959 322.314 15.9858 322.524 16.5268 323.427C17.0678 324.329 18.057 325.918 18.7315 326.901C19.6666 328.265 20.1655 328.734 20.3767 329.082C20.5936 329.438 21.3419 330.273 22.2494 331.438C22.7466 332.076 23.4022 332.638 24.8325 333.933C25.8093 334.818 27.432 336.009 28.3554 336.747C29.5094 337.669 30.0046 338.121 30.5937 338.574C30.8933 338.804 31.1529 339.087 32.371 339.855C33.5892 340.624 35.7477 341.883 37.0094 342.576C38.2712 343.27 38.571 343.36 39.2501 343.631C39.9291 343.902 40.9783 344.352 41.8186 344.688C42.6589 345.025 43.2585 345.235 45.0513 345.942C46.844 346.65 49.8118 347.849 53.0513 349.175" stroke="#001A33" stroke-linecap="round"/>
<path d="M2.90635 303.663C2.87638 304.176 2.81551 305.502 2.72512 306.598C2.69969 306.906 2.63383 307.175 2.61884 307.507C2.60104 307.901 2.54299 309.464 2.57296 311.703C2.58488 312.593 2.6629 312.982 2.9486 313.857C3.23429 314.733 3.74392 316.082 4.11138 316.956C4.63916 318.213 4.93486 318.682 5.04024 318.968C5.5691 320.407 6.44738 322.373 6.73581 323.086C7.02423 323.708 7.17503 324.192 7.43121 324.809C7.59745 325.247 7.83727 325.936 8.08436 326.556" stroke="#001A33" stroke-linecap="round"/>
<path d="M2.72469 314.837C2.39312 314.957 1.66911 315.74 1.19673 316.47C1.01669 316.748 0.848802 317.736 0.621696 319.562C0.34806 321.762 0.604436 323.223 0.725256 323.795C0.801209 324.156 0.846076 324.668 1.19173 326.085C1.53739 327.501 2.16692 329.81 2.59615 331.239C3.17519 333.166 3.51139 333.851 3.66219 334.274C3.82089 334.719 4.35622 335.783 5.08114 337.43C5.72958 338.903 6.41652 339.846 7.09466 340.84C7.55733 341.518 8.16251 342.613 9.41613 344.338C10.6698 346.063 12.5284 348.401 14.2353 350.355C15.9422 352.31 17.4411 353.808 18.558 354.85C21.3146 357.108 21.8915 357.381 22.1477 357.427C22.3139 357.442 22.5537 357.442 22.8008 357.442" stroke="#001A33" stroke-linecap="round"/>
<path d="M14.8835 353.15C15.118 354.62 15.2728 358.379 15.8954 360.058C17.5977 364.649 19.7233 367.05 20.8195 368.66C21.3928 369.502 22.6145 370.34 24.4048 371.625C29.4825 375.27 31.9963 377.921 33.1289 379.017C34.7932 380.628 36.3718 380.969 39.6089 382.923C41.8012 384.245 43.8754 385.429 45.1662 386.209C46.5758 387.06 47.8616 387.46 49.4245 387.969C51.6371 388.689 54.9571 389.57 59.5753 390.586C63.7383 391.501 66.4657 390.982 67.9488 390.63C68.9606 390.358 69.8282 390.121 70.4133 390.004C70.6888 389.964 70.9209 389.964 71.1601 389.495" stroke="#001A33" stroke-linecap="round"/>
<path d="M15.587 356.433C16.131 356.822 17.2237 357.291 18.7456 358.693C19.7231 359.594 21.7493 360.799 24.5925 363.098C30.1162 367.565 31.5274 367.763 32.776 368.311C35.8854 369.674 38.093 370.267 39.4213 370.501C39.7367 370.579 39.9689 370.657 40.2045 370.735C40.4402 370.814 40.6723 370.891 40.9115 370.971" stroke="#001A33" stroke-linecap="round"/>
<path d="M51.9323 391.137C52.6334 391.526 54.0333 392.15 55.6395 392.62C57.2179 393.082 58.648 394.18 59.7442 394.691C61.1011 395.324 64.1021 396.286 67.3146 396.996C71.1575 397.846 74.1264 398.326 74.906 398.56C75.6566 398.786 76.4712 398.718 79.1467 398.835C81.4335 398.935 85.6138 398.875 88.9658 398.642C94.7447 398.242 97.8845 397.236 99.0944 396.768C99.9774 396.426 101.165 395.674 103.539 394.546C107.008 392.898 109.299 391.296 110.156 390.479C112.732 387.01 114.929 383.558 115.241 382.973C115.398 382.697 115.553 382.465 115.712 381.992" stroke="#001A33" stroke-linecap="round"/>
<path d="M99.7674 398.64C102.255 398.563 107.557 397.787 110.779 397.196C113.593 396.3 117.258 394.197 120.109 392.283C121.181 391.531 121.49 391.221 122.278 390.433" stroke="#001A33" stroke-linecap="round"/>
<path d="M128.375 389.026C128.996 387.781 130.091 386.062 130.95 385.005C131.422 384.424 132.276 383.173 133.911 380.374C136.554 375.846 137.909 372.615 138.453 371.489C138.842 370.596 139.461 369.048 139.78 367.98C140.099 366.912 140.099 366.37 140.099 365.812" stroke="#001A33" stroke-linecap="round"/>
<path d="M53.5737 348.695C54.3475 349.004 55.9842 349.551 60.2589 350.64C63.2791 351.409 68.093 352.348 70.6806 352.905C73.506 353.513 73.9716 353.619 74.4781 353.658C74.7543 353.679 75.0619 353.774 84.0427 353.813C93.0235 353.853 110.666 353.853 119.91 353.931C129.465 354.011 130.168 354.322 131.103 354.477C133.456 354.867 134.542 356.039 135.951 356.937C137.635 358.01 138.842 359.007 139.589 360.141C139.707 360.417 139.785 360.649 139.825 361.387C139.864 362.126 139.864 363.364 139.864 364.64" stroke="#001A33" stroke-linecap="round"/>
<path d="M142.539 365.8C143.359 365.253 145.966 363.743 152.145 360.72C156.078 358.795 161.875 356.604 165.854 354.793C174.844 350.702 177.701 349.527 181.016 348.765C184.317 348.007 188.039 345.67 191.365 344.558C194.004 343.676 195.779 342.491 198.396 341.252C204.905 338.17 208.865 333.817 212.472 331.799C215.213 330.266 217.299 328.147 219.646 326.764C222.552 325.052 224.335 323.18 228.192 320.974C232.782 318.35 236.469 315.325 238.549 313.933C239.44 313.336 242.392 310.914 246.596 307.743C252.479 303.308 260.341 298.763 262.207 297.792C264.466 296.617 267.368 294.492 270.344 292.896C272.663 291.652 274.826 290.212 277.311 288.826C279.749 287.466 283.236 285.651 285.659 284.755C287.387 283.996 289.038 282.895 290.695 282.202C291.111 282.063 291.521 281.927 292.771 281.786" stroke="#001A33" stroke-linecap="round"/>
<path d="M135.09 350.487C135.09 350.76 136.319 350.901 140.981 350.286C156.593 348.228 158.258 345.661 159.915 344.629C161.785 343.464 163.771 341.804 166.053 340.283C167.7 339.185 169.432 338.212 171.09 336.904C172.9 335.476 175.085 333.8 177.089 332.558C180.455 330.472 183.777 328.287 190.175 323.605C195.28 319.868 198.675 318.487 201.916 316.352C204.117 314.901 205.852 314.208 207.578 312.968C209.485 311.599 211.919 310.624 216.463 307.392C221.047 304.131 223.772 299.88 226.545 296.557C228.193 294.581 232.455 292.29 235.236 289.865C238.474 287.041 240.616 285.933 242.683 284.414C246.82 281.375 249.58 278.897 255.774 275.386C260.086 272.941 262.137 271.58 268.603 267.593C271.202 265.99 273.17 264.958 277.156 262.49C283.638 258.474 288.487 255.44 290.137 254.616C294.294 252.54 296.347 251.442 298.968 250.612C300.434 250.148 307.467 246.91 317.466 242.91C322.572 240.868 324.903 240.955 327.388 240.402C327.945 240.263 328.355 240.127 328.77 239.988C329.186 239.85 329.596 239.713 330.846 239.572" stroke="#001A33" stroke-linecap="round"/>
<path d="M334.157 240.4C333.333 240.537 331.409 241.906 329.747 243.361C327.38 245.434 325.333 250.184 324.297 252.325C323.368 254.244 321.336 256.665 320.09 258.808C318.599 261.373 317.47 263.427 316.09 265.569C315.052 267.18 314.159 269.494 312.092 272.807C310.811 274.86 308.92 277.631 307.881 279.915C306.509 282.933 305.054 284.675 304.293 286.676C303.6 288.496 302.025 291.694 300.092 298.361C298.796 302.832 297.903 311.683 297.199 320.898C296.496 330.113 296.496 339.536 296.7 345.21C297.062 355.23 298.424 358.201 299.25 362.536C300.506 369.132 301.735 371.991 302.492 375.232C303.494 379.515 303.945 383.447 304.082 385.785C304.236 388.424 304.773 394.037 304.841 400.862C304.875 404.278 305.187 407.165 305.255 410.679C305.3 412.972 305.601 418.451 305.669 425.896C305.695 428.699 305.874 429.518 305.944 433.559C306.014 437.6 306.014 444.839 305.946 449.046C305.833 456.021 305.054 459.589 304.086 462.701C303.159 465.681 303.531 468.561 301.058 475.858C299.719 479.81 298.027 483.179 296.843 485.399C295.638 487.661 293.334 490.363 291.811 492.708C290.426 494.839 288.367 496.431 287.256 498.297C285.929 500.526 285.189 503.599 284.976 506.022C285.044 506.508 285.181 506.918 285.388 507.334C285.595 507.75 285.868 508.159 285.735 508.168" stroke="#001A33" stroke-linecap="round"/>
<path d="M284.08 508.168C284.08 513.358 285.172 518.763 287.511 524.062C291.361 532.788 294.004 535.747 296.349 539.675C299.02 544.151 303.655 550.092 305.319 552.372C308.665 556.959 312.346 563.054 314.561 565.686C316.165 567.593 318.687 571.323 321.458 574.309C322.806 575.762 324.075 577.688 326.217 580.033C328.292 582.304 331.525 584.583 333.323 587.136C334.994 589.509 337.319 592.165 338.635 594.929C340.464 598.771 341.466 600.45 341.538 608.978C341.575 613.285 341.739 618.238 343.599 620.181C344.925 621.566 347.251 621.839 349.803 622.323C351.892 622.719 354.424 622.257 359.222 622.05C362.789 621.896 368.665 621.979 372.919 621.638C382.748 620.849 386.411 617.99 389.881 616.947C391.982 616.315 394.018 614.538 396.503 612.537C397.529 611.711 398.028 610.809 398.303 609.984C399.783 605.543 398.173 597.57 396.037 595.225C394.424 593.454 392.106 592.463 390.723 590.946C388.459 588.461 381.925 584.624 378.452 580.749C372.365 573.953 371.826 571.083 370.581 567.983C370.05 566.663 368.929 562.694 367.551 557.179C366.014 551.027 364.096 543.917 363.268 540.186C362.457 536.529 362.026 532.594 361.544 526.914C361.133 522.066 361.199 513.175 361.265 508.124C361.368 500.246 363.4 497.556 364.365 495.415C365.178 493.608 366.703 491.216 371.042 487.075C372.584 485.604 378.8 481.308 387.28 474.895C392.716 470.785 395.946 467.767 398.57 464.588C402.598 459.709 404.505 456.998 405.475 454.925C406.264 453.24 407.543 451.891 409.059 449.135C410.465 446.58 412.228 444.168 414.849 439.417C416.024 437.289 417.202 435.614 419.255 431.092C420.902 427.464 424.312 421.381 426.137 417.669C429.383 411.067 431.538 405.704 432.585 402.228C432.656 401.127 432.929 400.018 433.343 397.141C433.483 394.811 433.483 390.714 433.483 386.493" stroke="#001A33" stroke-linecap="round"/>
<path d="M353.608 626.946C353.745 628.734 355.115 632.301 356.501 634.803C357.579 636.749 361.985 641.944 365.943 645.081C369.492 647.893 376.47 644.609 385.852 642.405C388.341 641.821 390.806 641.439 395.692 640.204C400.577 638.968 407.816 636.92 412.023 635.591C416.23 634.263 417.186 633.716 420.205 632.479C428.222 629.193 434.849 626.54 437.601 625.025C442.549 622.302 446.984 621.574 450.783 619.709C453.844 618.207 462.52 616.202 468.649 614.054C472.178 612.817 477.725 610.135 482.238 608.258C484.895 607.153 486.722 605.847 490.646 604.192C497.98 601.097 502.176 598.671 503.833 597.841C505.628 596.324 508.376 594.673 512.309 591.985C513.214 591.358 513.897 590.948 515.014 589.698" stroke="#001A33" stroke-linecap="round"/>
<path d="M405.341 592.181C406.438 592.181 410.282 591.908 419.996 589.502C423.313 588.68 425.335 587.906 430.471 586.197C434.708 584.787 442.026 581.62 446.712 579.594C453.246 576.77 458.009 574.261 462.971 572.055C467.073 570.232 469.34 568.74 471.275 567.561C474.491 565.601 476.657 562.938 477.69 562.797C479.967 562.487 481.069 565.959 482.795 567.757C484.613 569.651 486.863 570.379 489.824 570.797C491.707 571.063 495.807 571.488 500.771 571.42C502.595 571.395 503.004 571.215 503.215 573.33C503.859 579.787 503.699 585.001 504.249 586.24C505.628 588.175 507.283 589.694 509.34 590.861C510.851 591.619 513.309 592.711 517.083 593.837" stroke="#001A33" stroke-linecap="round"/>
<path d="M438.036 598.803C438.582 598.53 439.128 598.257 445.897 596.204C452.666 594.151 465.64 590.327 472.529 588.221C479.87 585.976 480.933 585.286 483.06 584.19C490.208 580.504 493.891 578.259 496.314 576.873C497.21 576.322 498.178 575.768 499.279 575.354C499.834 575.213 500.38 575.213 500.943 575.213" stroke="#001A33" stroke-linecap="round"/>
<path d="M140.282 540.035C150.825 523.741 157.454 513.67 160.468 508.972C165.034 501.853 167.388 496.236 169.308 492.387C176.458 478.061 180.683 471.591 182.633 465.383C183.998 461.035 186.259 456.56 188.801 449.539C191.034 443.37 193.027 435.518 194.977 430.406C196.534 426.322 200.767 422.912 212.723 416.497C217.661 413.847 226.864 409.857 238.707 402.85C251.958 395.01 254.268 391.675 257.415 387.931C259.803 385.093 261.297 382.235 264.059 377.548C275.121 358.783 277.024 352.479 278.963 348.957C280.899 345.441 283.312 341.587 285.498 336.377C285.985 335.277 286.464 334.558 286.95 333.828C287.437 333.099 287.916 332.38 288.41 330.913" stroke="#001A33" stroke-linecap="round"/>
<path d="M296.397 468.149C291.823 468.149 282.644 468.629 267.291 468.995C258.105 469.215 254.297 471.533 251.149 472.862C245.28 475.34 235.229 483.107 228.643 488.346C223.908 492.113 215.856 497.397 208.439 502.865C202.136 507.511 197.18 513.14 194.748 517.391C193.022 520.407 191.124 523.32 185.925 531.169C181.933 537.197 177.328 545.568 175.382 549.943C172.921 555.477 177.546 560.352 179.245 566.27C180.279 569.872 179.013 572.943 177.927 574.754C175.719 578.439 170.328 580.93 164.988 582.749C160.285 584.351 153.395 584.328 148.044 582.404C142.053 580.25 137.9 574.918 131.95 569.101C125.999 563.285 122.623 552.902 120.923 547.558C118.941 541.323 123.32 534.749 128.402 529.038C130.581 527.938 132.527 527.451 134.338 526.968C135.192 526.725 135.91 526.486 138.103 526.239" stroke="#001A33" stroke-linecap="round"/>
<path d="M138.103 526.239C134.734 526.239 129.404 526.718 126.496 528.41C123.475 530.167 121.17 532.759 119.714 536.749C116.381 545.886 118.73 557.927 119.703 563.002C121.728 573.565 123.334 577.779 123.701 581.289C124.145 585.539 125.266 593.245 126.602 601.966C126.902 603.929 127.444 605.357 127.691 612.567C128.38 632.706 128.177 646.767 128.54 648.335C129.391 652.01 130.348 656.432 131.082 661.518C132.004 667.916 133.5 672.174 134.469 675.202C135.741 679.176 137.61 683.066 139.309 688.624C140.09 691.18 139.795 693.239 140.518 694.208C142.274 696.565 149.198 691.808 160.21 691.187C165.786 690.873 169.065 693.725 172.942 696.622C176.342 699.163 187.145 703.615 194.004 706.432C195.554 707.069 196.912 708.008 198.6 708.251C203.826 709.004 209.481 704.385 213.485 702.21C216.552 700.544 220.14 699.549 224.254 698.935C228.132 698.357 232.484 698.808 238.649 696.898C251.135 693.03 234.938 676.095 231.304 667.745C227.503 659.01 222.594 654.558 219.559 649.574C216.827 645.086 212.923 638.584 209.517 632.637C205.822 626.185 202.989 623.074 200.077 619.559C196.075 614.729 192.591 608.101 187.857 600.448C185.069 593.789 182.883 588.213 182.52 582.204C182.397 577.394 182.397 569.007 181.67 558.914" stroke="#001A33" stroke-linecap="round"/>
<path d="M236.129 551.653C234.924 552.611 233.472 556.954 233.345 560.958C233.242 564.176 235.643 566.168 237.803 567.257C239.549 568.138 243.318 567.627 245.409 567.268C249.846 566.505 250.884 561.107 251.861 558.079C252.42 556.344 250.899 554.565 249.813 553.236C247.314 550.177 242.192 550.687 240.018 550.923C239.041 551.399 238.322 552.597 238.191 553.693C238.061 554.79 238.54 555.748 239.034 556.736" stroke="#001A33" stroke-linecap="round"/>
<path d="M258.639 591.589C256.722 593.027 255.495 594.487 255.132 596.654C254.536 600.212 255.248 603.44 255.97 605.012C256.586 606.351 258.871 606.112 260.803 605.872C262.848 605.618 264.441 604.18 265.53 602.256C265.9 600.811 265.9 598.415 265.541 596.941C265.181 595.467 264.462 594.988 263.722 593.768" stroke="#001A33" stroke-linecap="round"/>
<path d="M302.206 602.481C300.289 602.481 298.343 602.481 296.531 602.721C295.653 602.837 294.959 603.44 294.349 604.286C292.995 606.164 292.766 608.762 293.246 611.057C293.758 613.512 296.39 614.578 298.198 615.304C303.256 617.336 308 613.38 310.299 611.932C311.253 611.33 311.399 610.483 311.402 609.633C311.41 607.81 310.201 606.119 308.273 604.67C305.691 602.73 302.46 602.242 300.285 602.118C299.309 602.234 298.59 602.713 298.22 603.44C297.849 604.166 297.849 605.124 297.849 606.112" stroke="#001A33" stroke-linecap="round"/>
<path d="M306.563 621.36C305.604 621.36 303.433 621.36 300.173 621.839C296.863 622.326 294.952 625.223 293.863 627.993C292.23 632.147 293.732 636.115 294.335 637.927C294.628 638.806 295.177 639.499 295.903 640.109C297.439 641.399 300.732 641.691 304.479 641.452C306.084 641.349 307.027 640.733 307.881 640.007C309.635 638.514 310.193 634.459 309.834 629.863C309.474 628.142 308.756 627.663 307.906 627.176C307.056 626.69 306.098 626.211 304.384 625.717" stroke="#001A33" stroke-linecap="round"/>
<path d="M449.608 682.354C448.649 682.354 446.718 682.354 444.18 682.714C442.087 683.01 440.902 685.97 439.813 689.107C438.62 692.541 439.682 695.896 441.123 699.149C443.54 704.603 447.662 707.521 449.474 708.128C450.968 708.628 452.745 706.57 454.556 704.036C456.411 701.442 456.869 698.104 456.51 695.203C455.431 693.26 453.493 691.801 450 690.712C447.706 690.341 444.351 690.341 440.895 690.341" stroke="#001A33" stroke-linecap="round"/>
<path d="M374.818 667.106C371.434 670.003 369.982 672.181 369.376 673.63C369.09 674.313 369.488 675.078 369.851 675.808C370.214 676.538 370.693 677.257 371.899 677.627C373.104 677.997 375.021 677.997 376.368 677.638C377.715 677.279 378.434 676.56 378.804 675.351C379.174 674.142 379.174 672.464 378.935 671.241C378.695 670.017 378.216 669.298 377.49 668.928C376.764 668.558 375.805 668.558 374.952 669.277C374.099 669.996 373.38 671.433 372.639 672.915" stroke="#001A33" stroke-linecap="round"/>
<path d="M347.225 699.781C346.027 699.781 344.829 699.781 344.092 700.14C340.569 701.859 339.964 708.473 340.324 712.1C340.473 713.606 341.402 714.289 342.371 714.899C347.458 718.1 354.232 716.002 356.167 714.797C357.82 713.768 357.391 709.968 357.151 706.341C356.433 704.152 355.46 702.693 353.775 701.603C352.57 701.233 350.653 701.233 347.225 702.685" stroke="#001A33" stroke-linecap="round"/>
<path d="M392.245 699.055C391.765 699.055 390.56 699.055 388.748 699.414C386.879 699.785 385.956 701.952 385.23 703.88C384.795 705.035 384.983 706.766 385.343 707.99C385.702 709.213 386.421 709.932 387.271 710.422C388.96 711.397 391.504 711.399 394.162 711.159C395.4 711.048 396.34 710.44 396.834 708.756C397.327 707.071 397.327 704.196 396.968 702.475C396.609 700.754 395.89 700.275 395.149 699.781" stroke="#001A33" stroke-linecap="round"/>
<path d="M381.353 482.672C383.764 486.535 387.627 489.918 395.102 493.785C405.634 499.232 417.615 502.023 424.63 504.078C430.875 505.907 441.301 508.797 449.216 510.62C461.63 513.479 467.964 514.127 474.757 515.463C480.44 516.581 485.652 517.525 496.138 518.731C518.435 521.294 521.958 518.251 527.041 516.443C531.556 514.838 540.554 511.731 557.179 507.875C567.802 505.411 582.909 502.103 591.884 500.255C608.295 496.875 615.628 495.263 619.385 494.896C620.238 494.776 620.957 494.536 622.406 494.413C623.855 494.29 626.011 494.29 629.685 493.563" stroke="#001A33" stroke-linecap="round"/>
<path d="M570.08 600.496C566.155 601.477 563.479 607.707 562.815 617.115C562.298 624.447 565.779 626.583 567.674 628.9C571.602 633.7 578.813 633.036 584.351 634.109C587.888 634.794 592.53 635.018 601.597 634.941C604.518 634.916 605.921 633.046 606.994 631.646C609.299 628.638 606.763 623.312 605.272 619.095C604.704 617.489 604.276 614.724 604.766 610.521C605.265 606.252 608.394 603.643 610.374 602.158C611.782 601.103 615.476 598.043 622.476 593.181C629.967 587.978 635.324 585.47 637.544 583.497C643.801 577.938 647.53 574.091 652.164 568.224C656.703 562.476 659.275 561.028 661.835 558.711C666.034 554.91 671.655 550.948 675.543 548.388C679.358 545.876 682.885 540.729 686.852 535.52C695.933 523.597 696.444 520.717 698.347 518.239C700.717 515.153 703.055 510.647 704.707 508.243C706.179 506.104 707.019 502.886 709.083 498.751C710.361 496.192 711.48 492.806 713.046 488.68C716.317 480.062 720.896 478.097 722.794 476.112C725.583 473.196 729.806 469.841 733.525 467.606C735.348 466.51 737.081 465.207 738.895 464.219C740.463 463.364 746.616 459.617 755.45 454.582C761.771 450.979 765.974 446.39 771.928 439.375C774.192 436.708 774.587 433.664 775.742 428.386C777.065 423.588 777.729 420.109 777.32 419.366C776.911 419.113 776.093 419.113 775.251 419.113" stroke="#001A33" stroke-linecap="round"/>
<path d="M568.594 596.036C568.921 595.381 572.36 587.849 577.725 576.373C581.715 567.838 584.938 564.487 587.411 561.94C588.747 560.564 591.014 558.253 595.219 555.029C605.215 547.365 612.2 543.34 613.189 542.766C615.789 541.254 616.001 537.408 618.226 530.894C619.275 527.822 618.811 525.505 619.059 520.343C619.675 507.51 619.307 498.084 619.718 496.436C620.636 492.758 622.434 486.879 625.903 480.092C628.105 475.783 631.523 473.31 633.096 470.664C634.746 467.888 637.797 465.876 647.517 457.553C650.513 455.301 653.155 453.977 656.207 452.657C657.461 452.154 658.115 451.99 658.294 451.326" stroke="#001A33" stroke-linecap="round"/>
<path d="M511.106 524.176C510.611 527.12 510.938 535.386 513.163 547.506C513.879 551.407 515.061 554.06 517.046 556.793C518.604 558.938 521.325 562.148 523.654 565.218C524.605 566.471 526.459 567.614 528.273 568.935C529.59 569.894 533.868 569.606 540.053 569.195C544.791 568.88 549.405 567.465 557.131 565.49C562.207 564.193 569.763 562.861 574.375 561.776C582.944 559.759 589.031 556.905 597.31 553.921C602.12 551.602 604.598 550.938 606.327 550.774C607.239 550.611 608.22 550.284 609.231 549.947" stroke="#001A33" stroke-linecap="round"/>
<path d="M520.522 524.176C520.195 524.176 519.7 524.667 519.204 526.146C517.415 531.488 523.308 539.004 525.307 543.653C527.917 549.719 529.106 552.415 530.018 554.811C530.955 557.275 533.398 559.026 537.028 561.171C538.353 561.999 539.513 562.663 540.75 563.322C541.332 563.654 541.822 563.981 542.328 564.318" stroke="#001A33" stroke-linecap="round"/>
<path d="M538.859 549.451C538.532 550.432 538.363 551.755 538.936 553.567C540.653 555.705 543.141 557.702 545.368 559.187C546.288 559.853 546.778 560.344 548.275 560.849" stroke="#001A33" stroke-linecap="round"/>
<path d="M547.284 549.451C547.774 551.26 550.733 554.228 552.401 556.218C553.017 556.954 554.217 557.048 555.206 557.214C555.704 557.217 556.194 557.053 556.692 556.805C557.19 556.558 557.681 556.231 558.187 555.894" stroke="#001A33" stroke-linecap="round"/>
<path d="M559.178 546.973C559.178 548.281 559.341 549.61 559.916 551.01C560.635 552.76 562.637 553.906 564.369 554.65C565.12 554.902 565.61 554.902 566.108 554.739C566.606 554.575 567.097 554.248 567.603 553.911" stroke="#001A33" stroke-linecap="round"/>
<path d="M567.107 544.495C567.434 546.458 568.42 547.959 569.905 548.784C570.571 549.119 571.062 549.283 571.642 549.367C572.221 549.451 572.876 549.451 573.55 549.451" stroke="#001A33" stroke-linecap="round"/>
<path d="M565.125 509.805C570.393 525.951 574.699 535.565 575.859 537.55C576.891 539.316 577.346 541.839 578.5 544.404C579.566 546.77 581.142 549.273 583.781 554.142C584.324 555.144 584.938 555.229 585.6 555.314C590.353 555.919 596.336 553.257 598.403 551.029C599.515 549.831 600.474 548.96 600.722 547.726C601.391 544.394 594.909 534.831 590.902 528.647C589.228 526.062 588.09 524.186 586.115 521.054C582.966 515.261 581.984 512.956 580.986 510.392C580.82 509.81 580.656 509.319 580.488 508.813" stroke="#001A33" stroke-linecap="round"/>
<path d="M565.125 513.769C568.257 513.11 571.547 512.778 574.201 512.203C574.863 511.955 575.681 511.628 576.511 511.46C577.341 511.291 578.158 511.291 579.001 511.291" stroke="#001A33" stroke-linecap="round"/>
<path d="M579.001 526.654C579.001 526.981 579.819 527.15 581.303 527.068C581.969 526.986 582.46 526.823 583.367 526.739C584.274 526.654 585.582 526.654 586.93 527.15" stroke="#001A33" stroke-linecap="round"/>
<path d="M579.001 540.035C583.456 539.044 585.761 538.39 587.914 537.066C588.412 536.734 588.903 536.407 589.237 536.484C589.572 536.561 589.735 537.052 589.904 537.557" stroke="#001A33" stroke-linecap="round"/>
<path d="M584.948 549.947C588.908 548.628 591.539 547.31 594.356 546.316C594.696 545.987 594.532 545.496 594.121 545.08C593.71 544.664 593.056 544.337 592.382 544" stroke="#001A33" stroke-linecap="round"/>
<path d="M571.072 522.69C572.712 521.376 576.999 518.735 579.982 517.818C580.646 517.734 581.3 517.734 581.883 517.57C582.465 517.407 582.956 517.08 583.461 516.743" stroke="#001A33" stroke-linecap="round"/>
<path d="M602.789 502.371C602.789 502.693 603.116 505.989 603.859 508.722C605.262 511.281 608.875 515.236 613.758 518.138C614.678 518.72 615.168 519.211 616.665 519.716" stroke="#001A33" stroke-linecap="round"/>
<path d="M604.771 542.513C606.912 542.022 609.549 539.391 611.95 536.658C613.586 534.795 615 531.789 615.756 528.813C615.837 528.146 616.001 527.655 616.085 526.34C616.169 525.024 616.169 522.898 616.169 520.707" stroke="#001A33" stroke-linecap="round"/>
<path d="M684.56 544C687.523 541.036 691.151 537.735 694.707 535.334C696.765 533.944 699.576 531.957 701.979 529.635C705.214 526.511 710.31 520.737 712.719 517.741C713.135 517.243 713.462 516.753 713.385 516.336C713.308 515.92 712.818 515.593 712.312 515.256" stroke="#001A33" stroke-linecap="round"/>
<path d="M671.675 561.841C673.31 562.832 681.864 561.523 687.191 559.37C689.804 558.314 690.338 554.585 691.902 552.348C693.943 549.426 697.435 552.92 699.085 552.593C701.746 552.066 701.736 548.143 703.877 545.66C705.668 543.583 708.011 543.514 714.267 539.72C718.797 536.974 721.054 535.912 723.289 534.177C725.788 532.238 727.992 528.815 729.159 526.58C729.751 525.448 729.985 523.691 730.398 521.959C730.485 521.208 730.322 520.717 729.91 520.464C729.499 520.212 728.845 520.212 728.171 520.212" stroke="#001A33" stroke-linecap="round"/>
<path d="M686.046 544.991C687.028 544.991 688.187 545.808 689.342 547.456C690.17 549.104 690.997 550.601 691.741 551.837C691.993 552.42 691.993 552.91 692.984 554.407" stroke="#001A33" stroke-linecap="round"/>
<path d="M693.48 539.044C695.457 538.875 698.089 539.866 702.467 541.514C703.387 542.012 703.877 542.503 704.13 543.246C704.383 543.99 704.383 544.971 704.878 545.982" stroke="#001A33" stroke-linecap="round"/>
<path d="M705.87 530.619C706.197 530.292 707.51 530.45 709.572 531.191C711.143 532.096 713.125 533.583 715.353 535.233C716.272 535.902 716.762 536.229 717.268 537.557" stroke="#001A33" stroke-linecap="round"/>
<path d="M714.294 523.681C715.281 523.681 717.258 524.335 719.325 525.658C721.723 526.818 724.028 527.804 726.674 529.539C727.338 529.955 727.992 530.282 728.666 530.619" stroke="#001A33" stroke-linecap="round"/>
<path d="M709.339 506.831C713.457 506.335 717.417 506.663 720.972 507.817C723.509 508.641 726.337 509.963 730.381 511.861C736.692 514.823 740.699 514.75 744.019 516.16C747.357 517.578 756.359 518.229 761.444 517.655C766.448 517.089 768.303 515.424 770.699 513.94C774.146 511.805 780.028 509.319 786.211 504.95C791.111 501.488 793.082 499.734 795.067 498C797.839 495.577 801.834 491.974 804.312 489.498C810.696 483.12 817.514 478.107 821 474.794C823.098 472.801 824.799 469.345 827.032 466.781C830.149 463.2 833.224 455.965 834.304 453.811C835.543 451.172 836.207 448.194 835.962 446.957C835.717 446.375 835.226 445.885 834.721 445.379" stroke="#001A33" stroke-linecap="round"/>
<path d="M731.64 497.415C734.911 496.107 740.194 493.797 747.771 490.093C751.75 488.024 756.003 485.571 758.765 484.062C761.528 482.553 762.673 482.062 763.853 481.556" stroke="#001A33" stroke-linecap="round"/>
<path d="M740.065 501.38C740.882 501.053 741.7 500.726 744.738 499.085C747.776 497.445 753.009 494.501 758.897 490.972" stroke="#001A33" stroke-linecap="round"/>
<path d="M752.95 502.866C758.347 499.759 763.744 496.652 766.933 494.806C770.122 492.96 770.939 492.469 771.524 491.889C772.109 491.309 772.436 490.655 772.773 489.981" stroke="#001A33" stroke-linecap="round"/>
<path d="M788.136 438.441C789.94 435.814 793.905 431.513 796.14 430.351C796.719 430.021 797.374 429.53 798.855 429.032C800.337 428.534 802.627 428.044 805.481 427.538" stroke="#001A33" stroke-linecap="round"/>
<path d="M791.109 442.406C793.236 441.261 795.362 440.116 798.992 438.627C802.622 437.138 807.692 435.339 809.567 434.739C811.443 434.139 809.971 434.793 808.455 435.467" stroke="#001A33" stroke-linecap="round"/>
<path d="M673.161 510.3C673.161 511.281 671.362 516.366 667.737 524.531C662.967 535.274 656.5 537.874 653.264 539.948C652.842 540.04 652.842 539.549 653.251 538.724C653.66 537.899 654.478 536.754 655.32 535.575" stroke="#001A33" stroke-linecap="round"/>
<path d="M677.621 514.265C676.14 522.021 674.162 524.662 671.521 527.715C670.693 528.627 669.712 529.608 669.697 529.459C669.682 529.311 670.664 528.002 671.675 526.654" stroke="#001A33" stroke-linecap="round"/>
<path d="M694.967 503.858C691.369 509.745 687.062 516.212 682.691 522.07C676.809 527.968 672.19 531.263 666.981 534.824C666.382 534.926 667.036 533.781 667.71 532.601" stroke="#001A33" stroke-linecap="round"/>
<path d="M696.949 509.805C696.622 510.132 694.655 512.917 691.602 517.045C690.348 518.557 689.694 518.884 689.112 519.216C688.529 519.548 688.039 519.875 687.038 519.221" stroke="#001A33" stroke-linecap="round"/>
<path d="M691.498 477.592C694.793 474.955 699.397 471.992 702.97 471.395C703.392 472.13 702.738 473.944 701.746 476.254C701.409 477.255 701.409 477.909 701.409 478.583" stroke="#001A33" stroke-linecap="round"/>
<path d="M699.923 482.548C700.25 482.548 702.054 481.076 704.777 478.764C705.865 477.924 706.355 477.76 706.853 477.594C707.351 477.428 707.842 477.265 708.843 477.096" stroke="#001A33" stroke-linecap="round"/>
<path d="M705.374 485.521C707.664 482.904 709.661 480.902 711.227 479.748C712.629 478.92 714.121 478.419 715.524 477.926C716.108 477.597 716.435 477.106 716.772 476.601" stroke="#001A33" stroke-linecap="round"/>
<path d="M928.036 41.7586C924.878 41.7586 919.594 42.806 916.146 45.4481C913.713 47.3134 913.754 52.0495 914.147 55.8817C914.303 57.4009 915.325 57.8812 916.384 58.2819C922.132 60.456 931.432 58.6905 936.617 56.9727C938.365 56.3937 939.668 55.2549 940.592 53.672C943.033 49.493 941.263 43.3534 940.604 41.7705C940.207 40.9731 939.684 40.1876 938.236 39.783C936.788 39.3783 934.431 39.3783 932.003 39.3783" stroke="#001A33" stroke-linecap="round"/>
<path d="M950.252 0.500122C946.587 1.54745 943.651 2.61066 941.802 4.05867C937.098 7.74325 940.199 15.0358 941.12 17.0154C942.14 19.2107 944.952 20.0662 947.848 20.8596C949.65 21.3533 952.315 21.1294 954.449 20.6057C956.584 20.0821 958.155 19.0347 958.964 16.7933C959.773 14.5518 959.773 11.148 959.381 9.00176C958.988 6.85553 958.202 6.07003 957.405 5.53446C956.608 4.99889 955.822 4.73706 954.763 4.60217C953.704 4.46729 952.394 4.46729 951.046 4.46729" stroke="#001A33" stroke-linecap="round"/>
<path d="M964.534 43.3455C961.916 44.3929 959.52 46.5034 957.802 49.2764C956.646 51.1427 956.6 54.168 956.992 57.6035C957.151 58.9917 958.171 59.4681 959.23 59.6069C961.581 59.9152 963.994 58.4287 965.843 56.8458C966.702 56.1105 967.168 55.2629 967.307 54.2037C967.446 53.1444 967.184 51.8353 966.656 50.899C965.692 49.1884 963.749 48.6377 961.904 48.3719C960.845 48.368 959.535 48.6298 957.945 49.9429C956.354 51.2561 954.521 53.6126 952.633 56.0405" stroke="#001A33" stroke-linecap="round"/>
<path d="M931.21 80.6369C926.195 85.3896 923.807 87.7699 923.541 89.4837C923.399 90.401 923.799 91.4593 924.589 92.5225C926.363 94.9121 930.654 95.7121 935.014 95.5812C936.76 95.5288 937.541 95.1885 937.946 93.8753C939.033 90.3472 938.089 86.9923 937.299 85.5403C936.772 84.8738 935.986 84.3502 935.451 84.4732C934.915 84.5961 934.653 85.3816 934.384 86.1909" stroke="#001A33" stroke-linecap="round"/>
<path d="M960.567 100.473C958.996 101.52 957.663 102.845 956.739 104.69C955.637 106.889 955.806 109.716 956.199 112.223C956.394 113.469 957.377 114.469 958.175 115.139C959.581 116.322 961.614 116.341 963.594 116.21C965.352 116.094 967.43 114.762 969.545 113.049C971.289 111.635 970.881 108.161 970.489 104.991C970.317 103.608 969.31 102.869 968.382 102.464C964.542 101.798 961.376 101.266 958.996 102.706C958.187 104.146 958.187 107.026 958.187 109.994" stroke="#001A33" stroke-linecap="round"/>
<path d="M961.36 130.623C960.837 130.623 958.996 130.623 956.354 131.016C955.225 131.184 954.759 132.194 954.62 133.123C954.327 135.08 955.536 136.963 956.984 138.677C958.909 140.954 961.614 142.255 963.856 142.656C965.037 142.867 966.359 141.747 967.033 140.033C967.708 138.32 967.708 135.701 967.315 134.221C966.922 132.742 966.137 132.48 963.741 132.21" stroke="#001A33" stroke-linecap="round"/>
<path d="M983.576 139.351C983.053 139.351 980.688 139.875 977.253 141.061C975.839 141.549 975.388 142.509 975.249 143.306C974.977 144.87 976.166 146.484 977.483 147.805C980.262 150.593 984.616 149.666 987.917 149.404C989.403 149.286 990.432 148.618 990.971 147.039C991.511 145.46 991.511 142.842 990.987 142.017C990.463 141.192 989.416 142.239 988.337 144.905" stroke="#001A33" stroke-linecap="round"/>
<path d="M1039.91 309.939C1038.86 310.201 1037.82 310.463 1037.15 311.121C1035.76 312.484 1035.94 314.954 1036.34 316.802C1037.17 320.744 1043.07 321.571 1048.22 321.579C1052.16 321.585 1053.13 316.303 1054.58 313.125C1054.92 312.389 1054.46 311.542 1053.54 311.137C1052.62 310.733 1051.05 310.733 1049.32 310.864C1047.6 310.994 1045.77 311.256 1043.88 311.526" stroke="#001A33" stroke-linecap="round"/>
<path d="M1074.03 302.798C1071.13 304.107 1067.95 308.336 1067.02 312.565C1066.74 313.866 1066.89 315.462 1067.54 316.664C1068.2 317.866 1069.51 318.651 1070.97 319.056C1072.43 319.46 1074 319.46 1075.46 318.937C1078.46 317.863 1081.15 314.716 1083.4 311.812C1084.32 310.629 1083.82 309.431 1083.29 308.761C1082.76 308.091 1081.98 307.829 1080.53 307.694C1079.07 307.559 1076.98 307.559 1074.03 306.765" stroke="#001A33" stroke-linecap="round"/>
<path d="M1063.71 276.615C1063.45 276.615 1063.19 276.615 1062.92 277.008C1062.2 278.077 1062.13 281.614 1062.65 285.974C1062.87 287.779 1064.22 288.501 1065.42 288.905C1066.61 289.31 1067.92 289.31 1068.99 288.917C1070.05 288.524 1070.84 287.739 1071.24 285.763C1071.65 283.788 1071.65 280.646 1070.85 276.615" stroke="#001A33" stroke-linecap="round"/>
<path d="M1086.72 259.159C1085.94 259.159 1085.15 259.159 1084.49 259.814C1082.85 261.423 1082.76 267.84 1083.28 275.504C1083.48 278.495 1084.85 279.503 1086.18 279.912C1088.95 280.766 1091.48 279.527 1093.45 277.952C1100.29 272.503 1098.62 266.316 1098.23 263.674C1098.06 262.546 1097.05 262.079 1096.26 261.94C1095.46 261.802 1094.67 262.063 1094.01 262.722C1093.34 263.381 1092.82 264.428 1092.55 265.884C1092.28 267.34 1092.28 269.173 1092.28 271.061" stroke="#001A33" stroke-linecap="round"/>
<path d="M1101.8 286.93C1101.27 286.93 1099.96 287.191 1097.98 288.374C1095.38 289.925 1095.45 294.317 1095.71 297.486C1095.82 298.844 1096.5 299.609 1097.42 300.013C1098.35 300.418 1099.66 300.418 1100.72 300.156C1102.68 299.677 1104.69 297.522 1106.81 295.146C1107.7 294.147 1107.88 293.293 1107.62 292.496C1106.57 290.913 1104.98 289.842 1103.27 289.445C1102.34 289.31 1101.29 289.31 1098.62 288.517" stroke="#001A33" stroke-linecap="round"/>
<path d="M565.437 590.815C560.43 590.815 554.091 591.862 550.112 594.901C545.565 598.373 543.237 602.431 537.687 610.75C532.265 618.876 537.651 634.152 540.563 639.325C545.979 648.948 550.092 655.067 552.73 657.717C556.462 661.466 559.074 666.699 562.779 670.805C565.621 673.954 568.595 678.33 570.983 683.365C572.912 687.431 576.783 693.66 580.369 703.447C582.493 709.243 585.511 716.13 589.887 723.294C593.382 729.018 595.841 733.347 601.645 740.214C607.958 747.683 610.647 754.754 613.563 760.328C615.919 764.833 620.692 772.21 623.35 779.89C625.216 785.284 627.579 789.951 629.039 793.39C630.922 797.828 632.863 800.535 635.644 804.363C639.388 809.518 642.392 810.858 643.844 810.862C648.6 810.875 652.429 802.677 656.535 800.289C661.335 797.497 668.298 794.997 673.709 793.41C686.294 789.719 691.037 794.457 696.73 795.648C697.969 795.907 698.718 796.568 699.646 796.969C700.575 797.369 701.622 797.631 703.471 795.41C713.733 783.077 717.221 776.494 721.069 774.106C722.972 772.925 726.218 772.511 729.523 772.118C730.733 771.726 730.995 770.94 731.13 769.619C731.265 768.298 731.265 766.465 731.265 764.577" stroke="#001A33" stroke-linecap="round"/>
<path d="M608.282 632.073C609.33 639.706 611.98 650.291 616.332 660.204C618.316 664.726 620.707 667.762 625.452 673.574C628.898 677.794 636.782 686.217 644.495 694.072C649.841 699.518 656.11 707.926 663.93 716.023C667.742 719.97 672.011 724.096 679.529 732.804C684.063 738.056 692.053 745.217 699.376 750.414C706.158 755.227 716.681 761.641 723.045 764.569C728.075 766.687 732.312 768.012 734.422 768.409C735.486 768.544 736.533 768.544 737.612 768.544" stroke="#001A33" stroke-linecap="round"/>
<path d="M590.033 693.961C590.557 695.008 595.802 703.403 603.994 716.09C608.247 722.677 614.32 731.443 621.588 743.206C628.102 753.175 632.339 761.641 636.172 767.211C636.846 767.243 636.846 765.148 636.846 762.99" stroke="#001A33" stroke-linecap="round"/>
<path d="M617.01 688.407C624.667 701.872 628.896 710.322 635.477 720.866C639.603 727.476 647.272 739.472 652.885 747.51C661.345 759.622 665.671 763.775 666.461 765.358C671.987 772.202 679.945 782.286 681.663 783.48C682.333 783.627 682.595 782.842 682.865 782.032" stroke="#001A33" stroke-linecap="round"/>
<path d="M816.543 491.913C832.263 498.009 842.927 502.111 847.297 503.81C849.113 504.516 850.063 505.028 855.291 507.04C860.518 509.052 869.982 512.581 875.259 514.399C882.488 516.89 884.584 517.024 887.902 517.673C890.92 518.263 893.489 518.968 895.766 520.665C899.122 523.164 901.441 527.708 902.413 530.868C903.397 534.065 903.065 540.307 901.451 549.001C900.415 554.582 899.176 563.328 898.612 567.729C898.179 571.113 897.232 574.527 896.265 578.581C894.968 584.015 893.022 588.468 891.89 590.9C890.049 594.856 888.969 600.756 890.016 605.723C890.301 607.076 897.655 607.114 907.534 607.274C913.665 607.374 916.821 608.893 926.841 608.817C930.808 608.787 932.711 606.958 933.6 605.665C935.226 603.302 935.788 600.804 936.038 593.129C936.115 590.751 935.632 583.524 935.873 572.918C935.994 567.558 937.411 564.839 938.539 561.208C941.609 551.324 942.923 547.015 944.214 542.725C945.303 539.105 947.444 530.702 948.35 524.575C948.841 521.26 949.398 518.016 950.212 515.014C952.22 507.612 949.573 495.345 948.195 492.083C946.609 488.331 940.182 485.925 934.3 482.219C930.159 479.609 922.022 475.474 916.767 472.762C909.346 468.931 905.189 466.973 900.029 463.266C885.4 452.758 884.438 449.314 882.657 447.121C880.794 444.829 878.936 441.546 876.904 438.455C876.175 437.162 875.684 436.019 875.12 435.13C874.717 434.722 874.075 434.401 871.956 434.07" stroke="#001A33" stroke-linecap="round"/>
<path d="M840.361 440.389C852.493 442.173 859.289 441.206 863.114 440.715C865.632 439.743 867.571 438.775 869.355 436.914C870.002 436.345 870.964 435.703 872.442 434.556" stroke="#001A33" stroke-linecap="round"/>
<path d="M884.108 593.017C882.499 593.017 878.936 593.659 876.744 594.634C875.416 595.224 874.07 597.057 872.534 599.4C868.604 605.395 871.46 615.348 872.843 618.77C874.028 621.702 874.542 625.41 876.241 627.842C877.772 630.035 881.332 632.535 884.813 635.126C886.754 636.571 889.916 638.368 896.369 642.242C911.764 651.485 914.556 651.823 917.715 653.609C920.91 655.416 923.791 656.042 926.87 657.498C930.115 659.032 934.475 660.252 945.876 665.1C949.413 666.604 952.144 667.217 959.144 670.357C964.643 672.824 974.324 676.545 979.843 678.608C988.194 681.73 991.191 682.776 996.28 684.713C1003.2 687.348 1011.59 688.284 1017.66 689.253C1020.21 689.661 1021.64 690.223 1028.08 691.674C1034.51 693.125 1045.9 695.531 1053.37 697.252C1060.85 698.972 1064.05 699.935 1068.43 700.912C1078.22 703.094 1086.61 704.485 1091.39 705.537C1096.81 706.733 1100.07 707.566 1104.04 707.972C1106.78 708.253 1108.99 709.19 1110.45 708.628C1115.45 706.698 1118.37 693.383 1120.74 688.216C1121.86 685.793 1123.25 683.437 1124.95 676.423C1127.18 667.281 1124.88 660.587 1123.91 659.778C1121.2 657.506 1113.27 657.189 1103.32 655.731C1099 655.098 1096.1 655.235 1092.12 654.914C1088.15 654.594 1083.18 653.952 1078.05 653.621C1067.8 652.961 1061.54 653.131 1059.52 652.887C1057.35 652.627 1052.17 651.682 1042.97 649.339C1037.79 648.023 1031.52 646.836 1025.65 645.052C1019.78 643.268 1014.48 641.022 1010.71 639.304C1004.79 636.605 1000.79 634.664 994.1 632.168C989.313 630.381 981.8 627.266 977.515 625.456C972.376 623.284 968.073 622.026 961.443 620.653C950.404 617.812 943.263 616.354 940.111 615.304C938.563 614.735 937.119 614.094 935.146 613.433" stroke="#001A33" stroke-linecap="round"/>
<path d="M982.295 647.944C985.824 648.907 993.577 651.808 1005.46 656.336C1011.36 658.584 1017.18 660.222 1022 661.372C1026.82 662.522 1030.5 663.003 1040.35 664.855C1050.19 666.707 1066.07 669.915 1074.65 671.728C1086.14 674.513 1091.47 675.485 1097.21 675.971C1100.22 676.137 1103.43 676.137 1106.73 676.137" stroke="#001A33" stroke-linecap="round"/>
<path d="M886.12 601.804C887.55 602.752 891.364 607.995 896.039 611.253C899.957 613.982 905.484 614.488 912.193 614.614C916.517 613.54 920.338 612.104 923.566 611.148C924.898 610.667 925.61 610.193 926.342 607.55" stroke="#001A33" stroke-linecap="round"/>
<path d="M883.247 602.522C883.01 608.735 882.529 615.882 884.196 620.945C887.091 629.744 909.779 627.646 916.624 628.498C918.911 628.782 926.752 629.097 937.522 628.505C941.457 628.288 942.129 626.727 942.495 624.102C944.12 612.46 941.669 608.527 939.522 605.643C938.567 605.158 937.145 604.921 935.938 604.918C934.731 604.914 933.783 605.151 932.806 605.395" stroke="#001A33" stroke-linecap="round"/>
<path d="M562.192 597.495C559.348 597.969 557.646 598.924 556.931 600.475C554.913 604.857 553.573 621.771 554.884 631.241C555.61 636.49 563.844 642.485 568.52 645.606C573.625 649.014 586.526 651.363 594.851 650.411C601.995 649.594 605.746 644.669 608.63 641.918C609.352 640.13 610.07 638.442 610.789 636.772C611.033 635.813 611.033 634.628 611.033 633.407" stroke="#001A33" stroke-linecap="round"/>
<path d="M356.056 631.252C360.358 632.926 367.49 633.407 373.279 632.096C377.017 631.25 379.744 629.342 382.739 627.668C386.948 625.316 392.184 621.929 395.549 619.767C396.997 618.836 398.188 617.613 398.906 615.35C398.202 607.09 395.566 601.818 394.015 599.427C393.175 598.457 392.227 597.983 391.25 597.495" stroke="#001A33" stroke-linecap="round"/>
<path d="M123.345 559.428C124.063 566.84 124.537 570.187 126.092 573.063C127.747 576.125 129.565 579.524 132.308 582.519C136.374 586.957 141.042 587.913 145.233 589.35C151.274 591.42 163.48 591.03 172.404 589.483C175.295 586.728 176.724 581.018 177.928 576.676C178.168 575.954 178.405 575.243 178.649 574.511" stroke="#001A33" stroke-linecap="round"/>
<path d="M756.837 250.996C751.893 257.093 749.918 259.4 744.652 263.107C740.38 266.114 738.04 266.497 734.58 267.9C730.981 269.36 728.477 271.278 725.666 272.768C725.011 273.115 724.35 273.426 723.768 273.758C723.187 274.089 722.697 274.416 724.731 275.156C731.187 277.504 737.52 278.217 740.155 278.299C742.152 278.36 745.429 279.855 749.386 281.996C753.012 283.957 752.709 287.116 753.368 293.206C753.875 297.902 763.4 297.841 772.356 299.078C784.632 300.774 793.12 299.009 795.506 298.103C800.061 296.374 803.836 296.529 806.323 295.955C808.559 295.439 809.458 290.293 810.616 283.859C811.111 281.107 810.784 276.495 809.314 273.812C804.833 265.635 797.273 269.477 792.091 268.982C778.867 267.719 775.001 266.012 770.876 264.859C767.5 263.915 765.261 262.716 760.898 259.754C758.247 257.954 756.842 256.113 756.508 255.455C755.976 254.408 765.018 254.46 775.491 254.624C781.492 254.717 785.355 256.272 789.406 257.262C792.889 258.113 796.58 258.746 803.252 261.543C807.386 263.276 809.295 263.532 810.037 264.515C811.425 266.352 809.963 268.808 809.141 269.632C807.993 270.13 806.503 270.298 805.103 270.053C804.519 269.808 804.192 269.318 803.855 268.813" stroke="#001A33" stroke-linecap="round"/>
<path d="M742.979 166.363C742.157 170.481 741.494 179.647 741.002 185.408C740.667 189.325 739.029 193.564 737.869 197.939C736.724 202.257 736.05 210.025 736.624 215.348C736.997 218.802 738.683 222.27 740.004 225.168C740.987 227.323 742.801 229.209 744.54 231.11C746.444 233.189 749.73 235.475 752.128 238.858C752.709 240.097 753.531 241.092 754.766 241.998C755.347 242.414 755.837 242.74 757.827 243.077" stroke="#001A33" stroke-linecap="round"/>
<path d="M744.959 165.373C745.612 165.373 747.092 165.373 749.151 165.7C752.788 166.277 756.471 175.054 760.292 182.587C763.74 189.386 762.935 192.584 763.682 195.14C764.588 198.24 764.588 200.998 768.78 212.673C770.148 216.484 771.517 217.831 772.338 218.818C774.157 221.003 778.094 221.132 785.481 221.627C797.741 222.448 806.483 221.468 808.542 220.892C809.456 220.636 810.111 220.478 810.938 220.394C811.764 220.31 812.744 220.31 813.821 221.698C818.917 228.271 818.367 231.189 819.277 233.253C819.826 234.496 820.678 235.485 821.502 236.306C823.29 238.089 821.02 241.087 820.027 243.807C818.515 247.952 818.05 250.986 815.414 252.968C814.2 253.882 813.264 254.624 812.44 255.116C812.037 255.357 811.943 255.935 812.022 256.433C812.428 257.42 813.744 258.415 815.147 258.912C815.57 258.92 815.407 258.43 815.239 256.935" stroke="#001A33" stroke-linecap="round"/>
<path d="M809.795 217.836C807.325 216.682 805.023 216.351 802.383 215.366C798.023 213.74 795.946 213.054 791.91 211.409C788.873 210.17 786.216 207.947 783.902 205.554C780.842 202.389 777.139 199.206 773.266 192.126C771.243 188.428 771.19 184.027 771.517 182.05C771.994 179.163 776.614 179.073 782.633 177.751C789.695 176.2 801.014 177.736 805.162 178.734C809.388 179.75 811.764 180.053 814.813 180.713C818.346 181.479 821 181.706 823.643 182.527C826.122 183.022 827.607 184.012 828.513 184.834C828.929 185.328 829.255 185.982 829.592 187.645" stroke="#001A33" stroke-linecap="round"/>
<path d="M809.3 217.835C816.159 218.162 820.673 218.657 822.485 219.315C823.316 219.647 823.969 219.974 825.041 220.142C826.112 220.31 827.582 220.31 829.097 220.31" stroke="#001A33" stroke-linecap="round"/>
<path d="M837.511 138.647C837.021 141.102 835.699 147.041 835.038 150.349C834.904 151.022 834.709 151.505 834.543 162.782C834.378 174.059 834.214 196.108 833.804 209.182C833.393 222.255 832.739 225.685 832.403 229.167C832.066 232.649 832.066 236.079 832.23 237.437C832.393 238.796 832.72 237.979 833.056 237.138" stroke="#001A33" stroke-linecap="round"/>
<path d="M847.904 168.837C848.562 171.297 849.221 176.895 849.8 182.171C850.585 189.325 849.394 197.019 848.651 202.371C848.072 206.548 847.909 211.372 847.167 217.214C846.588 228.368 845.924 236.94 846.169 241.236C846.414 242.265 846.904 240.959 847.409 239.612" stroke="#001A33" stroke-linecap="round"/>
<path d="M849.884 192.099C853.507 196.712 857.446 199.345 862.321 203.302C866.933 207.045 870.988 208.749 875.105 210.652C878.478 212.21 882.203 213.376 885.249 214.445C887.927 215.385 895.68 218.801 907.622 223.329C912.869 225.408 916.462 227.041 918.721 228.128C920.981 229.214 921.797 229.704 923.133 230.209" stroke="#001A33" stroke-linecap="round"/>
<path d="M848.894 222.785C849.547 222.453 852.18 223.438 856.951 226.071C865.849 230.982 868.681 230.862 871.896 231.773C873.136 232.347 874.457 233.01 876.103 233.668C876.932 234 877.748 234.327 880.075 234.663" stroke="#001A33" stroke-linecap="round"/>
<path d="M821.673 220.31C821.346 221.295 820.03 222.943 819.04 224.341C818.568 225.008 818.703 225.903 819.357 226.732C820.01 227.561 821.316 228.378 822.643 228.798C823.969 229.219 825.276 229.219 826.622 229.219" stroke="#001A33" stroke-linecap="round"/>
<path d="M824.147 229.714C823.821 229.714 822.999 229.877 821.928 230.37C821.015 230.789 820.688 232.184 819.946 233.416C819.541 234.088 819.693 235.138 820.02 235.806C822.163 237.301 823.648 237.796 825.288 238.043C826.439 238.128 828.236 238.128 830.087 238.128" stroke="#001A33" stroke-linecap="round"/>
<path d="M831.571 236.148C831.571 236.475 831.571 236.801 831.571 242.604C831.571 248.407 831.571 259.677 831.653 266.136C831.735 272.595 831.898 273.901 831.982 281.271C832.066 288.64 832.066 302.033 832.475 308.116C832.883 314.198 833.7 312.565 834.541 310.882" stroke="#001A33" stroke-linecap="round"/>
<path d="M847.904 238.623C847.904 239.113 847.904 239.603 847.904 251.778C847.904 263.953 847.904 287.799 847.986 300.328C848.067 312.857 848.231 313.347 848.399 314.347" stroke="#001A33" stroke-linecap="round"/>
<path d="M825.129 239.716C824.123 239.877 822.602 240.596 821.624 241.306C821.01 241.752 820.658 242.932 820.314 243.804C820.211 244.065 820.172 244.827 820.232 245.934C820.273 246.702 820.814 247.209 821.317 247.612C821.7 247.855 822.104 247.977 823.643 248.037C824.944 248.058 827.298 248.058 829.723 248.058" stroke="#001A33" stroke-linecap="round"/>
<path d="M828.636 249.052C827.458 249.052 824.356 249.233 820.839 250.099C819.142 250.517 817.956 251.332 816.676 253.019C815.167 255.008 816.213 259.815 816.806 261.606C817.25 262.945 818.947 264.117 820.319 264.896C822.422 265.309 825.868 265.492 829.676 264.765C830.277 264.58 830.548 264.489 830.828 264.396" stroke="#001A33" stroke-linecap="round"/>
<path d="M828.362 268.232C828 268.232 825.825 268.232 822.675 268.323C818.956 268.429 815.764 273.252 815.166 274.346C814.746 275.117 814.662 276.444 814.753 277.858C814.868 279.656 816.849 280.737 818.173 281.928C818.488 282.211 818.767 282.474 819.178 282.614C822.86 282.302 828.17 281.384 829.676 281.339C830.277 281.293 830.548 281.203 830.828 281.11" stroke="#001A33" stroke-linecap="round"/>
<path d="M825.074 285.22C825.074 285.129 825.074 285.039 824.938 284.902C823.807 283.76 820.427 285.762 817.734 287.45C815.856 288.627 814.21 289.508 813.344 290.419C812.52 291.286 812.196 293.062 812.287 295.115C812.335 296.207 812.835 296.725 813.198 297.226C814.826 299.475 820.4 298.826 824.785 298.874C825.89 298.739 826.532 298.374 827.17 297.828C827.447 297.552 827.628 297.281 828.362 296.728" stroke="#001A33" stroke-linecap="round"/>
<path d="M822.334 300.563C819.621 301.649 817.501 302.75 816.314 303.708C815.114 304.676 815.21 307.304 815.528 309.781C815.755 311.547 817.671 312.433 819.267 313.074C821.603 314.013 823.6 312.077 826.934 310.025C828.633 308.422 829.907 306.964 830.78 304.864C830.918 304.402 831.009 304.131 831.376 303.577" stroke="#001A33" stroke-linecap="round"/>
<path d="M845.076 313.441C841.883 314.26 840.061 314.992 838.505 315.585C837.791 315.857 837.042 316.088 836.358 316.498C835.077 317.265 834.85 319.097 834.164 320.969C833.915 321.649 833.842 322.478 833.977 323.48C834.1 324.389 835.025 324.856 835.845 325.22C836.817 325.653 838.67 325.771 841.175 325.635C846.694 325.337 851.273 321.853 852.743 321.069C854.57 320.095 857.033 318.285 858.088 316.965C858.467 316.49 858.227 315.469 858.046 314.958C855.233 314.263 849.388 314.987 847.409 315.95C847.177 316.178 847.087 316.45 846.993 316.729" stroke="#001A33" stroke-width="3" stroke-linecap="round"/>
<path d="M847.267 326.319C844.44 327.777 842.982 329.053 841.838 330.922C840.093 333.774 839.963 335.081 840.005 336.906C840.027 337.823 844.308 338.01 850.195 337.783C853.293 337.663 855.654 336.465 858.164 335.096C861.011 333.544 864.063 331.624 866.666 328.569C867.484 327.609 867.724 326.779 867.998 325.779C868.406 324.289 867.91 323.034 867.591 322.487C866.365 321.299 863.806 320.565 862.026 320.338C861.343 320.291 860.348 320.291 859.323 320.291" stroke="#001A33" stroke-width="3" stroke-linecap="round"/>
<path d="M847.267 341.663C846.089 342.567 843.711 345.669 843.159 347.547C842.835 348.65 842.884 349.877 843.11 351.061C843.395 352.557 844.796 353.532 845.799 354.125C846.559 354.575 848.892 354.54 853.532 354.179C859.874 353.685 863.885 352.077 864.751 351.531C866.375 350.505 867.538 348.704 868.862 346.875C870.261 344.944 872.283 342.227 872.704 336.705C872.785 335.64 872.568 335.366 872.341 335.091C871.327 333.864 866.217 333.717 862.481 333.989C862.066 334.081 861.795 334.172 861.655 334.444C861.515 334.717 861.515 335.169 861.515 335.635" stroke="#001A33" stroke-width="3" stroke-linecap="round"/>
<path d="M864.803 354.54C863.987 356.171 862.885 359.829 862.613 361.43C862.464 362.301 862.428 363.122 862.7 363.715C863.204 364.811 865.253 364.404 866.669 364.632C868.972 365.001 870.82 363.862 872.515 362.537C874.165 361.247 875.664 360.207 877.81 358.612C879.877 357.075 880.141 354.277 881.011 351.037C881.809 348.065 882.333 344.792 882.568 340.943C882.607 340.295 882.432 340.024 881.436 339.884C878.566 339.482 876.314 339.835 875.722 340.108C874.396 341.112 873.574 341.844 873.118 342.253C872.933 342.482 872.842 342.753 872.749 343.307" stroke="#001A33" stroke-width="3" stroke-linecap="round"/>
<path d="M887.545 351.527C888.09 350.707 889.183 349.976 892.142 349.2C893.169 348.931 894.46 349.061 895.248 349.241C896.408 349.508 896.677 350.428 896.904 350.974C898.346 354.44 897.047 361.653 895.815 364.213C894.912 366.089 893.578 367.594 892.89 369.012C892.185 370.466 890.657 371.43 888.831 372.62C886.436 374.182 884.443 374.997 883.579 375.181C882.454 375.419 881.429 374.454 880.836 373.68C880.275 372.948 880.421 368.553 880.466 362.618C880.494 358.886 882.695 355.653 883.479 353.724C883.796 352.995 884.344 352.08 885.119 351.077C885.531 350.617 885.983 350.255 887.271 349.883" stroke="#001A33" stroke-width="3" stroke-linecap="round"/>
<path d="M900.97 352.075C901.516 351.346 902.609 350.436 904.752 349.247C905.299 348.943 905.891 349.061 906.261 349.241C907.838 350.012 907.272 356.776 906.638 361.33C905.772 367.546 903.349 368.783 902.799 369.971C902.042 371.607 900.795 372.619 899.605 373.626C898.668 374.418 897.233 374.723 895.815 374.545C894.816 374.419 894.943 372.268 895.033 370.717C895.123 370.071 895.304 369.709 895.669 369.161C896.033 368.613 896.576 367.89 897.135 367.144" stroke="#001A33" stroke-width="3" stroke-linecap="round"/>
<path d="M908.642 356.458C908.823 356.097 909.278 355.73 910.142 355.456C911.229 355.111 912.202 355.453 912.748 355.68C913.857 356.141 914.391 357.368 914.898 358.961C915.882 362.054 913.224 366.563 912.16 369.513C911.489 371.375 909.563 373.802 908.145 376.268C907.601 377.214 907.092 377.918 906.682 378.511C906.497 378.779 906.182 378.833 905.816 378.789C904.974 378.688 904.352 378.107 904.032 377.56C903.71 375.107 903.801 371.35 904.119 370.394C904.346 369.89 904.708 369.347 905.08 368.788" stroke="#001A33" stroke-width="2" stroke-linecap="round"/>
<path d="M916.862 357.28C916.862 357.009 916.862 356.738 916.862 356.417C916.862 355.735 918.58 358.708 921.093 364.229C922.944 368.298 920.791 370.695 918.925 375.119C917.939 377.457 917.048 378.373 915.589 379.379C915.016 379.775 913.856 379.748 912.397 379.251C910.644 378.653 910.744 376.463 910.607 375.826C910.832 373.909 911.834 371.991 912.7 370.851C913.114 370.344 913.476 369.983 913.848 369.61" stroke="#001A33" stroke-width="2" stroke-linecap="round"/>
<path d="M919.876 358.924C920.238 357.839 920.695 357.1 921.287 356.78C923.113 355.796 925.718 356.549 926.447 356.957C928.426 358.066 928.458 361.736 928.826 363.895C929.33 366.844 927.915 368.87 927.049 370.427C925.882 372.525 923.718 375.172 922.665 376.729C922.423 377.088 922.254 377.457 921.935 377.689C921.616 377.92 921.164 378.011 920.795 378.012C920.427 378.014 920.156 377.923 919.835 377.651C919.153 376.926 918.69 375.918 918.553 374.191C918.506 373.008 918.506 371.199 918.506 369.336" stroke="#001A33" stroke-width="2" stroke-linecap="round"/>
<path d="M921.52 354.54C921.339 354.54 920.975 354.36 920.519 353.95C919.665 353.184 919.876 350.902 920.057 348.619C920.124 347.767 920.599 347.603 920.921 347.465C923.98 346.15 930.277 347.323 932.926 348.37C934.342 348.929 934.853 350.154 935.172 350.746C936.03 352.336 935.675 355.078 936.223 357.182C936.595 358.611 936.59 362.815 936.409 369.29C936.273 374.165 934.409 378.447 932.629 382.007C931.439 384.388 929.565 385.042 928.374 386.001C927.268 386.891 925.909 387.688 922.175 389.105C920.787 389.631 919.788 389.247 919.105 388.975C917.745 388.432 917.229 387.151 916.591 386.054C916.261 385.486 916.04 384.414 916.131 383.046C916.168 382.485 916.402 382.219 916.631 382.034C917.131 381.759 917.772 381.395 918.501 380.893C918.868 380.663 919.229 380.482 919.876 380.022" stroke="#001A33" stroke-width="2" stroke-linecap="round"/>
<path d="M937.96 372.898C939.596 373.534 943.237 374.811 945.762 375.363C946.448 375.545 947.27 375.728 950.172 375.865C952.531 375.912 956.69 375.912 960.975 375.912" stroke="#001A33" stroke-width="2" stroke-linecap="round"/>
<path d="M934.124 383.858C935.302 384.039 940.212 385.853 946.658 387.779C949.819 388.723 952.018 389.428 953.61 389.565C958.308 389.97 962.51 388.154 965.35 387.195C966.619 386.766 967.729 386.327 968.46 385.78C968.987 385.385 968.921 384.592 968.786 383.863C968.65 383.496 968.379 383.135 968.013 382.813C967.647 382.491 967.195 382.219 966.729 381.94" stroke="#001A33" stroke-width="2" stroke-linecap="round"/>
<path d="M939.33 375.09C939.056 378.277 938.965 380.748 938.874 381.569C938.833 381.935 938.963 382.208 939.235 382.213C939.508 382.217 939.96 381.945 940.374 381.67C940.787 381.395 941.149 381.123 941.522 380.844" stroke="#001A33" stroke-width="2" stroke-linecap="round"/>
<path d="M945.906 376.46C946.086 378.088 946.27 379.288 946.407 380.695C946.454 381.74 946.454 383.458 946.77 384.162C947.087 384.866 947.719 384.505 948.372 384.132" stroke="#001A33" stroke-width="2" stroke-linecap="round"/>
<path d="M953.851 377.008C953.851 377.731 953.851 378.455 953.851 380.138C953.851 381.822 953.851 384.444 954.399 386.872" stroke="#001A33" stroke-width="2" stroke-linecap="round"/>
<path d="M959.331 377.282C960.151 379.551 960.882 383.03 961.43 384.446C961.523 385.31 961.704 386.138 962.023 386.866C962.162 387.234 962.252 387.595 962.619 388.516" stroke="#001A33" stroke-width="2" stroke-linecap="round"/>
<path d="M771.814 305.957C772.807 312.348 774.821 324.125 775.319 326.565C775.841 329.119 776.539 331.573 777.108 334.933C777.981 340.091 780.825 343.599 783.825 346.319C786.09 348.374 788.561 349.045 789.347 350.471C791.24 353.906 791.425 356.484 792.355 358.491C792.572 359.065 792.714 359.774 792.929 359.855C793.143 359.937 793.427 359.37 793.719 358.786" stroke="#001A33" stroke-linecap="round"/>
<path d="M805.315 304.669C806.308 310.059 808.322 321.548 808.82 325.057C809.306 328.477 809.894 333.282 810.753 338.009C811.448 341.833 811.612 344.458 811.404 350.46C811.306 353.276 806.905 352.773 803.823 353.984C801.284 354.982 798.315 357.626 796.159 359.78C795.228 360.709 796.15 362.643 796.792 364.144C797.908 366.753 801.725 367.23 806.37 367.305C810.231 367.367 812.179 365.804 813.97 364.446C814.965 363.692 815.907 363.085 816.336 361.661C816.628 360.695 816.483 359.104 816.27 358.159C816.057 357.214 815.632 356.93 814.208 356.784C812.785 356.638 810.375 356.638 807.892 356.638" stroke="#001A33" stroke-linecap="round"/>
<path d="M807.033 372.959C810.169 381.24 814.747 387.828 817.26 391.413C820.58 396.148 822.77 397.432 824.778 398.439C827.753 399.932 831.498 401.298 834.294 402.659C837.251 404.099 840.801 406.593 844.729 408.664C851.548 412.258 855.258 415.042 858.492 416.62C860.755 417.725 863.143 418.624 865.508 419.414C871.392 421.381 881.603 421.922 883.766 421.854C884.198 420.651 884.202 418.641 883.845 416.569C883.631 415.63 883.347 414.921 883.055 414.191" stroke="#001A33" stroke-linecap="round"/>
<path d="M824.214 366.946C824.78 367.513 825.347 368.08 829.183 370.852C833.018 373.625 840.105 378.586 844.11 381.496C848.918 384.988 851.822 387.262 855.896 389.905C862.479 394.177 866.579 399.15 868.944 400.585C871.647 402.225 873.598 403.162 875.816 404.308C878.435 405.662 881.603 407.594 883.908 408.676C884.765 409.175 885.628 409.608 886.556 410.036C887.058 410.321 887.625 410.747 888.209 411.185" stroke="#001A33" stroke-linecap="round"/>
<path d="M868.882 426.217C872.146 425.509 882.437 423.503 889.12 421.501C891.392 420.821 892.5 419.35 893.144 418.422C894.348 416.689 893.793 411.228 894.362 407.755C894.755 405.358 898.363 404.888 900.727 403.958C902.031 403.445 905.08 403.312 909.225 402.956C912.544 402.67 918.656 400.464 926.027 397.675C930.154 395.298 931.58 393.017 933.229 390.577C933.59 390.002 933.874 389.435 934.166 388.421" stroke="#001A33" stroke-linecap="round"/>
<path d="M876.613 436.096C877.18 436.096 880.165 435.104 886.017 432.254C893.3 428.707 897.078 424.645 899.428 423.436C907.087 419.495 907.82 416.777 908.821 414.844C909.684 411.623 910.818 406.778 911.971 403.321C912.257 402.603 912.682 401.753 913.12 400.018" stroke="#001A33" stroke-linecap="round"/>
<path d="M987.853 343.753C982.274 345.325 979.993 346.468 977.625 347.329C976.525 347.729 975.832 348.619 974.833 349.472C973.035 351.007 972.537 355.182 971.966 359.329C971.079 365.77 971.953 375.493 972.89 379.393C973.572 382.235 976.24 385.827 978.398 387.343C981.004 389.174 985.817 392.983 989.133 394.503C992.769 396.17 1003.26 396.152 1008.31 395.512C1012.67 394.961 1013.91 391.436 1015.41 390.002C1015.91 389.572 1016.48 389.005 1016.84 388.501C1017.2 387.996 1017.34 387.571 1017.49 386.274" stroke="#001A33" stroke-linecap="round"/>
<path d="M983.558 341.176C978.559 343.603 975.69 345.892 973.832 347.752C970.179 351.41 969.539 354.903 966.746 360.626C965.195 363.801 965.382 369.214 964.377 373.369C962.691 380.339 965.227 383.113 966.73 385.477C968.433 388.154 970.519 392.261 972.385 394.857C974.156 397.321 978.808 400.147 984.523 401.233C988.011 401.896 994.734 401.306 999.583 401.023C1010.73 400.371 1012.33 398.446 1014.83 396.876C1019.25 394.099 1021.21 391.436 1022.14 389.504C1023.49 386.691 1022.93 383.284 1024 378.779C1026.02 370.272 1024.94 363.244 1023.44 359.303C1021.53 354.285 1019.93 352.068 1018 349.42C1016.28 347.057 1013.64 345.192 1010.71 343.693C1007.16 341.875 1001.21 340.467 994.345 339.394C986.102 338.104 980.586 342.155 976.126 344.249C975.402 344.608 974.977 345.033 974.687 345.606C974.397 346.18 974.255 346.888 974.109 347.619" stroke="#001A33" stroke-linecap="round"/>
<path d="M994.296 361.792C994.012 361.792 993.016 361.934 991.515 362.574C988.529 363.847 989.571 371.336 990.07 375.1C990.2 376.083 991.427 376.679 992.782 377.108C995.861 378.084 997.723 376.112 999.158 374.613C1000.17 373.557 1000.88 372.251 1001.09 370.397C1001.41 367.711 1000.88 365.662 1000.1 364.805C999.6 364.373 998.891 363.948 998.03 363.729C997.169 363.51 996.177 363.51 995.155 363.51" stroke="#001A33" stroke-linecap="round"/>
<path d="M1010.62 366.087C1009.62 369.089 1009.33 372.504 1010.61 374.959C1011.05 375.809 1012.33 375.82 1013.19 376.178C1013.98 376.51 1015.05 375.682 1016.12 375.04C1017.16 374.415 1017.49 371.267 1017.28 367.189C1017.2 365.649 1016.64 365.237 1016.21 364.947C1014.34 364.369 1012.63 364.511 1011.41 364.726C1010.77 364.799 1010.06 364.799 1009.33 364.799" stroke="#001A33" stroke-linecap="round"/>
<path d="M959.936 371.241C958.802 371.241 954.958 369.824 948.743 366.613C942.738 363.511 940.325 360.078 939.824 359.222C938.037 356.16 938.031 346.098 939.382 341.829C940.15 339.403 947.575 336.907 955.372 332.9C960.779 330.121 963.784 329.296 968.427 328.012C979.292 325.007 981.686 324.288 983.908 324.067C985.867 323.872 988.128 324.709 997.835 325.209C1003.53 325.503 1006.73 330.705 1010.46 334.291C1013.2 336.916 1014.76 339.02 1016.77 340.669C1019.02 342.52 1023.33 344.878 1026 346.897C1028.02 348.423 1028.5 353.46 1030.08 356.911C1032.63 362.476 1032.66 366.499 1032.88 372.65C1032.99 375.739 1030.53 378.526 1027.24 381.397C1026.09 382.4 1025.37 383.263 1024.58 384.403C1024.08 385.118 1023.37 386.11 1021.78 387.992" stroke="#001A33" stroke-linecap="round"/>
<path d="M912.261 350.625C912.261 349.491 912.686 348.34 913.543 347.339C914.967 345.677 917.407 345.334 920.194 344.685C923.902 343.822 926.28 345.755 928.217 346.684C930.438 347.614 932.014 348.619 933.012 349.188C933.586 349.616 934.295 350.325 935.025 351.055" stroke="#001A33" stroke-linecap="round"/>
<path d="M904.53 345.042C907.223 341.636 913.541 335.309 915.684 333.881C920.489 330.68 928.943 332.157 934.799 333.439C937.447 336.434 939.891 340.313 940.318 341.099C940.604 341.46 941.029 341.743 941.467 342.035" stroke="#001A33" stroke-linecap="round"/>
<path d="M1019.64 333.445C1026.18 333.016 1034.81 333.299 1035.88 333.941C1036.41 334.259 1036.81 334.725 1037.03 335.298C1037.95 337.709 1036.67 339.596 1036.25 340.596C1035.34 342.718 1030.54 342.602 1023.46 342.752C1021.23 342.327 1019.79 341.893 1018.5 341.537C1017.92 341.322 1017.5 341.039 1017.06 340.747" stroke="#001A33" stroke-linecap="round"/>
<path d="M1029.51 345.042C1031.78 346.742 1033.23 348.044 1033.88 348.901C1034.57 349.83 1035.1 352.18 1034.89 355.541C1034.75 357.717 1033.38 358.64 1032.53 359.211C1032.1 359.499 1031.67 359.782 1031.31 359.716C1030.95 359.649 1030.67 359.224 1030.59 358.65C1030.52 358.077 1030.66 357.368 1031.66 355.779" stroke="#001A33" stroke-linecap="round"/>
<path d="M1038.1 345.042C1038.82 345.892 1039.68 349.036 1039.75 360.886C1039.77 364.358 1038.68 367.921 1036.9 372.639C1035.44 376.508 1032.38 377.538 1031.03 377.825C1030.24 377.83 1029.25 377.546 1028.74 376.904C1028.23 376.262 1028.23 375.27 1028.23 374.248" stroke="#001A33" stroke-linecap="round"/>
<path d="M1042.83 339.029C1042.83 338.462 1043.25 337.603 1044.11 336.602C1044.51 336.137 1044.97 335.885 1045.75 335.88C1047.69 335.87 1049.27 336.735 1050.05 337.377C1052.35 339.256 1052.28 344.595 1052.99 349.171C1054.23 357.112 1050.57 361.492 1049.21 364.288C1047.51 367.77 1045.27 371.946 1044.41 373.743C1042.55 371.4 1040.54 366.534 1039.69 363.319C1039.39 361.805 1039.39 360.529 1040.68 359.215" stroke="#001A33" stroke-linecap="round"/>
<path d="M1031.23 375.536C1031.95 380.969 1032.8 383.4 1033.66 385.045C1034.06 385.815 1035.08 385.982 1035.8 385.915C1038.71 385.647 1040.96 382.563 1042.75 380.269C1043.56 379.236 1043.69 377.834 1043.62 376.548C1042.83 374.54 1039.99 371.971 1037.33 370.101C1036.82 369.811 1036.4 369.669 1035.96 369.523" stroke="#001A33" stroke-linecap="round"/>
<path d="M853.42 251.41C863.294 259.708 864.724 262.844 865.8 265.29C866.94 267.883 867.164 272.568 866.524 276.738C865.98 280.278 862.027 281.75 860.225 283.475C859.579 284.094 858.436 284.194 857.365 284.338C856.86 284.34 856.435 284.199 855.932 283.346C855.43 282.493 854.863 280.934 854.279 278.899" stroke="#001A33" stroke-linecap="round"/>
<path d="M852.99 263.007C855.266 265.421 858.711 271.717 858.72 275.664C858.721 276.508 857.869 277.026 857.294 277.318C856.718 277.61 856.151 277.61 855.647 277.327C855.142 277.043 854.717 276.476 854.279 275.892" stroke="#001A33" stroke-linecap="round"/>
<path d="M855.567 149.619C862.577 145.328 866.279 143.614 878.049 141.75C883.345 140.912 891.482 141.458 896.14 141.6C905.132 141.874 911.668 143.743 915.755 145.246C916.977 145.891 917.982 146.325 920.046 147.461C921.543 148.455 923.952 150.297 927.294 152.625" stroke="#001A33" stroke-linecap="round"/>
<path d="M926.864 143.606C933.994 142.317 941.734 142.601 945.249 143.387C948.3 144.069 949.619 146.174 951.696 148.749C955.401 153.343 957.496 162.341 958.572 165.214C959.077 168.366 959.218 170.514 959.433 176.052C959.506 180.882 959.506 189.811 959.077 199.441" stroke="#001A33" stroke-linecap="round"/>
<path d="M878.76 203.306C880.177 204.157 881.9 204.737 886.167 205.518C889.449 206.12 894.969 207.292 907.242 207.876C919.515 208.46 938.366 208.46 948.432 208.39C960.803 208.302 963.647 207.172 967.295 206.317C969.734 205.746 971.807 204.595 978.641 204.238C983.183 204.001 991.41 204.165 995.928 204.236C1002.32 204.336 1005.16 205.162 1007.81 205.952C1011.16 206.95 1013.19 207.455 1014.91 208.74C1017.58 210.733 1017.2 214.886 1017.85 218.607C1018.95 224.965 1016.64 228.484 1012.5 234.563C1008.89 239.851 1007.05 241.386 1002.12 244.027C1000.46 244.538 999.454 244.68 997.747 244.895C996.465 244.968 994.339 244.968 991.289 244.109" stroke="#001A33" stroke-linecap="round"/>
<path d="M903.242 215.762C904.801 216.758 911.935 217.909 918.036 217.055C925.719 215.978 930.558 214.765 935.081 214.332C937.323 214.117 939.736 213.473 944.22 213.258C952.522 212.86 959.347 212.76 961.993 212.115C964.939 211.755 967.229 211.183 969.864 210.754C971.648 210.608 974.341 210.608 977.116 210.608" stroke="#001A33" stroke-linecap="round"/>
<path d="M954.352 215.332C953.927 215.474 953.502 215.616 953.425 215.972C953.224 216.897 956.757 219.322 961.619 222.327C967.573 226.006 974.65 232.47 976.826 236.582C977.111 237.37 977.537 238.362 977.756 239.582C977.975 240.802 977.975 242.219 977.116 243.679" stroke="#001A33" stroke-linecap="round"/>
<path d="M1020.07 232.942C1020.35 232.942 1028.01 232.942 1041.02 232.375C1054.83 231.773 1058.14 226.938 1061.07 225.645C1063.56 224.548 1065.3 221.784 1066.8 219.992C1068.31 218.199 1069.02 214.783 1069.67 205.276C1070 200.448 1071.74 198.024 1073.25 196.011C1075.46 193.048 1078.76 188.858 1080.19 187.275C1080.76 186.639 1082.05 187.982 1082.98 189.053C1084.39 190.676 1085.06 194.124 1085.71 198.915C1086.42 204.195 1085.35 209.019 1084.71 213.717C1083.57 222.026 1084.35 227.784 1083.92 228.64C1082.15 232.189 1078.06 236.086 1072.85 240.651C1066.24 246.442 1063.45 246.54 1058.17 249.394C1055.28 250.953 1053.29 252.553 1049.22 254.694C1044.84 256.992 1037.85 260.421 1033.26 262.423C1030.99 263.419 1026.88 265.12 1024.55 265.925C1022.22 266.731 1021.79 266.589 1021.35 265.584" stroke="#001A33" stroke-linecap="round"/>
<path d="M1023.5 268.161C1025.22 269.303 1027.78 270.729 1030.79 272.946C1035.57 276.464 1036.38 278.606 1038.81 279.753C1040.73 280.657 1042.67 281.046 1048.46 282.472C1053.16 283.631 1056.14 283.907 1058.28 284.48C1058.86 284.633 1059.43 284.766 1059.79 285.051C1061.32 286.259 1061.58 289.902 1061.59 293.989C1061.59 294.798 1061.16 295.211 1060.66 295.572C1058.45 297.167 1055.87 296.938 1050.67 297.294C1037.25 297.225 1034.69 296.938 1029.76 296.225C1027.69 296.079 1024.57 296.079 1021.35 295.649" stroke="#001A33" stroke-linecap="round"/>
<path d="M1018.35 311.541C1021.05 309.835 1025.92 306.679 1027.79 305.888C1028.7 305.502 1029.51 304.815 1030.3 304.173C1030.94 303.389 1031.52 302.1 1031.95 300.103C1032.09 298.956 1032.09 297.539 1031.66 295.649" stroke="#001A33" stroke-linecap="round"/>
<path d="M856.856 252.269C858.711 249.985 860.996 248.267 863.219 246.834C864.946 245.721 867.009 244.685 869.232 243.755C871.039 242.999 872.313 242.249 873.028 242.247C878.879 242.23 873.464 258.703 873.179 263.677C872.52 275.155 872.605 283.331 872.391 284.473C871.939 286.876 871.605 289.198 871.031 291.558C870.251 294.771 869.457 296.216 868.461 297.075C865.531 299.601 860.884 296.087 855.87 292.87C853.533 291.371 853.566 288.502 852.565 286.636C852.078 285.728 851.702 284.774 851.914 283.632C852.552 282.489 853.699 281.196 855.198 279.839C855.988 279.191 856.838 278.624 857.715 278.04" stroke="#001A33" stroke-linecap="round"/>
<path d="M876.183 242.391C877.18 241.966 879.181 240.536 881.258 238.891C883.404 237.19 885.194 235.811 887.127 234.95C890.229 233.568 895.33 232.375 899.295 232.012C900.523 231.9 906.338 231.653 914.638 231.724C919.866 231.769 922.131 232.796 924.777 233.369C928.141 234.098 933.556 235.227 936.807 235.946C941.269 236.933 949.035 237.666 954.26 238.521C958.698 239.247 961.491 240.097 969.411 241.313C979.033 242.79 986.552 241.957 988.981 242.601C992.471 243.527 994.571 243.533 997.433 244.534C1001.15 245.835 1003.74 246.969 1005.67 247.97C1008.35 249.36 1014.15 252.527 1017.77 255.626C1019.62 257.208 1019.64 261.555 1020.06 263.93C1021.31 270.872 1019.93 282.755 1019.35 285.257C1018.21 290.221 1016.78 293.493 1015.85 295.711C1014.55 298.802 1013.2 304.067 1012.27 306.88C1011.46 309.29 1010.76 311.532 1010.19 313.323C1009.46 315.59 1007.9 317.545 1006.33 318.838C1005.53 319.491 1003.9 319.701 1001.76 319.488C997.705 319.087 995.309 314.702 993.8 312.123C992.574 310.028 991.298 308.113 990.432 306.393C989.595 304.729 985.74 300.408 981.565 297.801C979.327 296.403 976.841 296.225 973.693 295.295C967.655 293.511 959.085 295.357 957.009 296.147C955.055 296.891 952.935 298.93 950.923 300.369C949.081 301.686 946.776 303.655 944.482 305.235C941.301 307.428 938.04 309.677 936.249 310.677C934.067 311.896 931.743 313.25 929.521 314.828C927.899 315.98 923.179 317.399 918.858 319.123C916.08 320.232 912.845 320.56 902.859 322.343C892.952 324.111 888.81 320.998 884.642 318.565C882.36 317.233 880.212 313.851 878.335 311.191C877.078 309.409 876.192 305.837 874.97 303.174C873.657 300.314 873.752 297.522 873.037 295.299C872.326 294.369 871.605 293.364 871.033 292.292C870.746 291.788 870.462 291.363 870.17 290.495" stroke="#001A33" stroke-width="3" stroke-linecap="round"/>
<path d="M880.044 293.797C879.834 293.516 879.624 293.236 879.077 291.62C878.531 290.004 877.655 287.06 877.186 284.528C876.717 281.995 876.682 279.963 876.734 278.39C876.786 276.818 876.927 275.767 876.999 274.892C877.126 273.356 877.211 271.895 877.424 270.57C877.562 269.707 877.601 268.428 877.9 266.259C878.07 265.032 878.375 263.564 878.625 262.385C879.054 260.359 879.336 259.184 879.389 258.391C879.463 257.285 879.512 255.897 879.707 254.659C879.895 253.461 880.22 252.778 880.695 251.315C880.993 250.396 882.009 248.947 882.512 248.048C883.418 246.432 884.636 244.787 885.546 243.91C885.919 243.551 886.483 243.362 887.05 242.954C887.577 242.795 888.007 242.758 888.184 242.863C888.255 242.934 888.29 243.039 888.326 243.147" stroke="#001A33" stroke-linecap="round"/>
<path d="M887.265 300.805C888.666 301.856 889.774 302.502 890.428 302.662C890.696 302.716 890.837 302.716 890.926 302.628C891.016 302.541 891.051 302.366 891.087 301.973" stroke="#001A33" stroke-linecap="round"/>
<path d="M887.265 286.258C887.265 285.557 887.265 284.856 887.265 283.566C887.265 282.277 887.265 280.42 887.3 279.13C887.335 277.84 887.405 277.175 887.546 276.376C887.687 275.578 887.897 274.667 888.041 273.724C888.184 272.782 888.254 271.836 888.518 270.052C888.782 268.268 889.238 265.675 889.542 264.147C889.926 262.219 890.132 261.695 890.237 260.992C890.47 259.434 891.084 257.842 891.685 256.571C892.742 254.335 892.856 253.698 893.72 252.373C894.491 251.191 896.101 249.881 897.383 249.078C899.025 248.048 899.898 248.456 900.813 248.351C901.52 248.27 902.708 248.036 908.981 247.928C915.253 247.819 926.571 247.819 933.839 248.047C941.106 248.275 943.979 248.73 945.74 248.965C948.061 249.2 948.849 249.235 949.237 249.288C949.416 249.306 949.556 249.306 949.913 249.412" stroke="#001A33" stroke-linecap="round"/>
<path d="M950.974 250.155C953.077 250.646 954.791 250.969 956.097 251.162C956.776 251.263 957.473 251.461 958.938 251.604C960.402 251.747 962.61 251.852 963.922 251.941C966.137 252.092 966.898 252.385 967.695 252.596C968.207 252.732 969.511 252.985 971.191 253.251C972.127 253.399 973.159 253.446 974.414 253.64C975.22 253.765 976.484 253.907 978.881 254.153C980.306 254.299 982.12 254.749 983.164 254.947C985.011 255.299 986.223 255.535 987.197 255.764C988.406 256.05 989.481 256.208 990.065 256.331C990.414 256.405 991.141 256.596 992.692 256.86C995.102 257.27 996.737 257.764 997.196 257.871C998.098 258.079 1000.08 258.433 1001.53 258.667C1002.34 258.797 1003.32 259.109 1004.15 259.251C1005.22 259.433 1005.73 259.922 1006.28 260.154C1006.8 260.373 1007.18 260.878 1007.39 261.409C1007.67 262.102 1008.2 262.753 1008.67 263.69C1009.21 264.806 1009.27 266.609 1009.45 267.795C1009.58 268.692 1009.62 269.408 1009.68 270.602C1009.72 271.654 1009.69 273.618 1009.68 274.786C1009.65 276.271 1009.59 277.156 1009.57 278.163C1009.56 278.609 1009.52 278.925 1009.46 281.365C1009.41 283.805 1009.34 288.36 1009.25 291.075C1009.16 293.789 1009.06 294.525 1009 295.062C1008.92 295.911 1008.71 297.22 1008.33 298.794C1008.07 299.899 1007.89 300.764 1007.47 301.986C1007.17 302.828 1006.16 303.315 1005.24 303.899C1004.15 304.592 1003.5 304.731 1002.85 305.016C1002.08 305.349 1000.82 305.158 999.364 304.436C998.046 303.782 996.96 302.935 995.364 301.412C994.28 300.378 993.7 298.936 992.954 298.064C992.456 297.481 992.033 296.844 991.503 296.013C991.064 295.322 990.759 294.718 990.231 294.068C989.148 292.732 988.213 291.394 987.542 290.599C986.387 289.233 985.911 288.666 984.432 287.046C982.486 284.915 980.778 283.851 980.513 283.693C980.255 283.538 979.404 282.865 978.113 282.016C977.381 281.534 976.044 280.814 974.241 279.7C973.097 278.993 972.145 278.509 971.157 277.909C969.447 276.87 968.357 276.703 967.648 276.419C965.896 275.716 963.967 275.321 963.365 275.233C962.74 275.141 961.18 275.425 959.323 275.778C957.971 276.036 957.067 276.31 956.023 276.823C954.401 277.618 953.351 277.833 952.006 278.485C951.397 278.781 950.346 279.458 948.984 280.165C948.259 280.541 947.897 280.876 947.351 281.211C946.579 281.685 945.074 282.675 943.464 283.878C942.406 284.669 941.598 285.194 939.391 286.888C938.299 287.726 937.493 288.273 935.925 289.224C934.994 289.789 933.346 290.768 932.427 291.326C931.047 292.165 929.993 292.871 929.087 293.634C928.225 294.36 927.544 294.857 926.807 295.472C924.968 297.007 923.264 298.007 922.418 298.395C921.899 298.633 921.152 298.853 919.616 298.979C918.081 299.106 915.768 299.106 914.402 299.141C912.685 299.246 912.008 299.318 911.478 299.301C911.263 299.283 911.158 299.248 911.05 299.212" stroke="#001A33" stroke-linecap="round"/>
<path d="M885.99 285.939C886.271 287.06 886.625 288.759 886.961 290.511C887.165 291.57 887.405 292.412 887.671 292.945C887.886 293.378 888.254 293.794 889.277 294.607C890.736 295.766 892.323 296.627 892.925 296.945C893.678 297.343 894.727 297.547 896.264 297.847C898.291 298.244 900.213 298.575 901.396 298.627C902.415 298.673 903.259 298.928 904.666 299.157C905.693 299.323 907.335 299.7 908.394 299.881C909.453 300.061 909.873 300.061 910.107 300.009C910.341 299.956 910.376 299.851 910.413 299.743" stroke="#001A33" stroke-linecap="round"/>
<path d="M902.555 267.994C902.555 268.134 902.52 269.818 902.502 272.348C902.491 273.845 902.908 274.539 903.12 275.071C903.446 275.883 903.721 276.45 903.97 277.018C904.258 277.674 905.063 278.606 905.949 280.058C907.061 281.88 907.896 282.926 908.675 283.76C908.959 284.063 910.505 284.765 913.154 285.878C914.417 286.409 915.592 286.676 916.766 286.944C917.94 287.211 919.096 287.421 920.393 287.53C921.689 287.638 923.091 287.638 923.953 287.585C926.332 287.44 928.425 286.648 928.957 286.435C929.065 286.365 929.135 286.26 929.171 286.118C929.207 285.976 929.207 285.801 929.207 285.62" stroke="#001A33" stroke-linecap="round"/>
<path d="M905.103 267.357C905.874 267.077 906.657 266.827 908.362 266.685C909.678 266.576 911.925 266.684 914.008 266.895C916.092 267.105 917.949 267.491 919.134 267.777C920.79 268.177 922.014 268.874 923.252 269.617C923.872 269.989 924.705 270.468 926.205 271.332C927.98 272.354 929.098 273.898 929.61 275.082C929.919 275.795 930.125 276.519 930.391 277.28C930.541 277.708 930.621 278.465 930.834 280.681C930.988 282.296 930.906 284.93 930.888 286.232C930.871 287.533 930.836 287.428 930.818 287.216C930.8 287.004 930.8 286.689 930.8 286.364" stroke="#001A33" stroke-linecap="round"/>
<path d="M980.387 279.887C980.177 279.256 980.069 278.37 980.104 277.451C980.134 276.651 981.3 275.508 981.996 274.65C982.516 274.009 982.897 273.341 983.728 272.81C984.793 272.129 985.48 271.959 988.268 272.01C990.564 272.053 992.129 273.017 993.302 273.338C994.417 273.643 995.316 274.325 995.994 274.877C996.451 275.248 996.843 275.92 997.233 276.96C997.843 278.587 997.836 279.886 997.889 280.781C998.023 283.038 997.802 284.979 997.59 285.704C997.323 286.619 996.778 287.561 996.193 288.379C995.617 289.184 994.69 289.547 994.157 289.937C993.401 290.492 992.282 290.681 991.821 290.911C991.156 291.243 989.916 291.635 988.708 291.727C988.528 291.674 988.493 291.569 988.405 291.427C988.317 291.285 988.177 291.11 988.032 290.717" stroke="#001A33" stroke-linecap="round"/>
<path d="M912.536 277.975C912.466 278.045 913.061 278.887 914.104 279.986C914.452 280.353 914.692 280.033 914.782 279.714C914.975 279.031 914.732 278.367 914.467 277.943C914.352 277.758 914.237 277.659 914.113 277.605C913.989 277.551 913.849 277.551 913.706 277.586C913.564 277.621 913.424 277.691 913.334 277.832C913.134 278.147 913.173 278.68 913.208 279.175C913.224 279.392 913.313 279.53 913.437 279.62C914.121 280.116 915.119 279.71 915.366 279.552C915.587 279.41 915.651 279.004 915.686 278.562C915.702 278.367 915.652 278.226 915.546 278.101C915.019 277.478 913.991 277.551 913.388 277.709C912.642 277.905 912.855 279.526 913.03 280.168C913.064 280.292 913.311 280.275 913.472 280.258C913.783 280.225 914.022 279.994 914.181 279.694C914.276 279.516 914.235 279.22 914.2 279.128C914.165 279.036 914.095 279.141 914.059 279.371C914.023 279.6 914.023 279.95 914.321 280.043C915.867 280.526 916.321 279.182 916.659 278.843C916.699 278.804 916.503 278.755 916.343 278.754C916.184 278.754 916.008 278.789 915.866 278.894C915.564 279.117 915.474 279.566 915.439 279.972C915.422 280.167 915.473 280.343 915.579 280.433C916.144 280.916 917.661 279.997 918.181 279.481C918.246 279.417 918.06 279.322 917.883 279.513C916.757 280.734 916.89 281.867 916.96 282.097C916.986 282.183 917.17 282.082 917.277 281.994C917.385 281.905 917.455 281.8 917.491 281.658C917.527 281.516 917.527 281.341 917.439 281.181C917.352 281.021 917.176 280.88 917.016 280.808C916.387 280.525 915.407 281.229 914.698 281.884C914.54 282.029 914.45 282.184 914.395 282.327C914.341 282.469 914.341 282.609 914.464 282.646C914.587 282.683 914.832 282.613 915.011 282.507C915.334 282.315 915.438 282.011 915.491 281.782C915.551 281.524 915.474 281.233 915.299 281.003C915.197 280.871 914.913 280.878 914.716 280.895C914.37 280.925 914.025 281.405 913.689 282.023C913.464 282.438 913.492 282.928 913.597 283.317C913.636 283.464 913.912 283.357 914.073 283.25C914.376 283.051 914.483 282.72 914.518 282.455C914.535 282.331 914.484 282.225 914.466 282.346C914.327 283.273 914.764 283.777 915.084 284.327C915.339 284.766 915.613 285.264 916.074 285.708C916.559 286.175 917.24 286.221 917.965 286.398C918.852 286.614 919.648 286.717 920.019 286.788C920.29 286.839 922.181 286.895 924.941 286.877C926.242 286.869 926.726 286.506 927.311 286.276C927.932 286.032 928.602 286.081 929.152 285.623C929.588 285.26 929.559 284.527 929.825 283.659C930.164 282.556 929.88 280.951 929.738 280.349C929.574 279.653 929.562 278.721 929.508 278.013C929.458 277.358 929.067 276.389 928.537 275.254C927.976 274.051 926.767 273.518 926.148 273.057C925.533 272.601 924.824 271.963 924.165 271.464C923.811 271.196 922.002 271.073 919.561 271.108C918.585 271.122 918.237 271.286 917.866 271.005C917.62 270.82 917.739 270.164 917.914 269.876C918.445 269 919.4 269.693 919.914 269.781C920.072 269.808 920.283 269.799 920.322 269.799C920.68 269.799 919.546 269.517 918.945 269.621C918.392 269.717 917.92 270.362 917.387 270.631C916.843 270.905 916.291 270.931 915.195 271.425C914.816 271.596 914.59 271.709 914.466 271.921C913.93 272.839 914.201 274.681 914.023 275.195C913.867 275.646 913.564 276.062 913.245 276.628C912.792 277.433 912.466 278.043 912.254 279.153C911.611 282.513 912.57 283.282 912.748 283.708C912.834 283.914 912.96 284.098 913.172 284.221C913.621 284.484 914.724 284.452 915.719 284.047C916.19 283.856 916.11 283.11 916.376 282.437C916.594 281.883 916.04 283.917 916.216 285.015C916.259 285.283 916.497 285.44 916.745 285.565C918.214 286.308 920.073 285.763 920.427 285.604C920.58 285.535 920.64 285.41 920.676 285.233C920.761 284.818 920.572 284.243 920.237 283.678C919.925 283.151 919.334 283.002 918.963 282.966C918.799 282.95 918.697 283.14 918.643 283.37C918.589 283.6 918.589 283.915 918.641 284.043C918.694 284.17 918.799 284.1 918.871 284.011C919.01 283.839 919.013 283.464 918.943 282.987C918.908 282.748 918.733 282.545 918.556 282.385C918.378 282.224 918.168 282.119 917.937 282.099C917.706 282.08 917.461 282.15 917.282 282.274C916.943 282.509 916.855 282.999 916.889 283.476C916.926 283.979 917.49 284.274 917.948 284.504C918.556 284.809 919.609 284.63 920.757 284.507C921.818 284.393 922.62 283.854 923.116 283.341C923.436 283.01 923.367 282.508 923.332 282.067C923.316 281.868 923.227 281.73 923.085 281.71C922.944 281.691 922.734 281.796 922.608 281.902C922.405 282.074 922.411 282.643 922.429 283.333C922.436 283.602 922.481 283.707 922.64 283.761C922.798 283.815 923.078 283.815 923.275 283.763C923.604 283.675 923.791 283.287 923.967 282.845C924.149 282.392 924.11 281.836 924.058 281.324C924.033 281.087 923.9 280.917 923.758 280.791C923.479 280.545 923.121 280.489 922.803 280.453C922.627 280.433 922.415 280.488 922.237 280.593C921.872 280.81 921.704 281.3 921.65 281.899C921.619 282.252 921.772 282.709 921.896 282.996C922.291 283.908 924.138 283.992 925.997 283.869C926.723 283.822 927.082 283.392 927.259 283.18C927.411 282.998 927.402 282.684 927.349 282.402C927.327 282.284 927.192 282.259 926.997 282.241C926.803 282.223 926.523 282.223 926.273 282.398C925.163 283.177 925.384 284.168 925.419 284.433C925.436 284.561 925.524 284.663 925.788 284.647C926.052 284.631 926.508 284.491 926.795 284.313C927.264 284.024 927.366 283.429 927.472 282.811C927.595 282.098 927.403 281.446 927.156 281.005C926.93 280.601 926.343 280.489 925.725 280.453C925.142 280.419 924.608 280.664 924.359 280.824C924.143 280.962 924.994 280.525 925.206 280.295C925.304 280.19 925.278 280.031 924.928 280.011C922.672 279.885 921.564 280.911 921.21 281.089C920.576 281.408 920.678 279.746 920.413 279.517C920.216 279.345 919.55 279.356 918.771 279.303C918.513 279.286 918.553 279.145 918.623 279.056C918.946 278.648 919.542 278.402 920.073 278.065C920.639 277.706 920.889 277.164 921.065 276.685C921.279 276.105 921.49 275.571 921.614 273.999C921.639 273.689 921.772 273.658 921.879 273.692C921.985 273.727 922.091 273.832 922.145 274.061C922.401 275.149 921.74 275.883 921.192 276.857C920.79 277.572 920.818 279.938 920.519 281.371C920.485 281.535 920.36 281.653 920.254 281.673C920.147 281.693 920.007 281.588 919.935 281.463C919.863 281.339 919.863 281.199 919.915 281.109C919.968 281.02 920.073 280.984 920.232 281.019C922.014 281.405 923.683 284.096 924.054 284.573C924.21 284.774 924.32 284.875 924.375 284.596C924.555 283.668 924.359 282.615 924.2 281.927C923.785 280.127 923.297 278.156 923.173 276.815C923.011 275.067 923.225 274.045 923.348 274.292C923.926 275.445 924.745 277.054 924.959 277.583C925.271 278.356 925.278 279.526 925.524 280.168C925.733 280.714 927.007 280.171 928.283 279.518C928.522 279.395 928.534 279.252 928.552 279.11C928.639 278.425 927.899 277.871 927.51 277.64C927.079 277.383 926.731 277.022 926.359 276.667C925.952 276.278 926.021 275.327 925.617 274.509C925.044 273.352 924.112 273.269 923.599 272.915C923.19 272.633 922.838 272.067 922.342 271.5C922.123 271.249 922.023 270.968 921.864 270.791C921.788 270.707 921.67 270.685 921.598 270.754C921.407 270.94 921.385 271.32 921.227 271.567C921.152 271.684 921.033 271.744 920.909 271.746C920.342 271.75 919.444 271.394 918.662 271.18C917.399 270.835 915.724 271.143 915.193 271.514C914.607 271.923 914.484 272.592 914.271 273.3C913.924 274.458 914.023 275.843 914.322 276.787C914.526 277.43 915.082 277.797 915.508 278.063C915.971 278.352 916.849 278.646 917.595 278.736C917.738 278.754 917.843 278.789 917.967 278.824C918.092 278.86 918.232 278.895 918.482 278.931" stroke="#001A33" stroke-width="3" stroke-linecap="round"/>
<path d="M980.491 280.628C980.231 281.15 980.201 281.757 980.411 282.323C980.63 282.913 981.122 283.023 981.438 283.221C981.513 283.268 981.596 283.287 981.649 283.248C981.972 283.014 982.018 282.604 982.097 282.511C982.185 282.408 982.36 282.681 982.491 282.8C982.631 282.926 982.886 282.788 983.044 282.813C983.137 282.828 983.098 283.099 983.15 283.233C983.326 283.683 984.044 283.628 984.269 283.958C984.513 284.316 984.728 284.891 984.954 285.327C985.257 285.914 985.703 286.131 986.098 286.38C986.513 286.642 986.94 286.894 987.362 287.118C987.834 287.369 988.256 287.815 988.639 288.21C989.065 288.648 989.705 288.79 990.389 288.856C991.461 288.961 993.31 288.714 993.839 288.358C994.297 288.049 994.525 287.739 994.709 287.384C994.983 286.855 995.051 286.24 995.301 285.712C995.464 285.368 995.552 284.818 995.683 284.002C995.794 283.318 995.895 281.902 995.869 280.31C995.852 279.323 995.474 278.761 994.74 277.697C993.884 276.458 993.056 276.154 992.408 275.811C991.783 275.48 989.88 274.737 988.787 274.349C988.312 274.18 987.997 273.862 987.719 273.638C987.115 273.153 989.386 274.017 990.283 274.374C990.686 274.534 991.152 274.702 991.863 274.953C992.516 275.183 992.917 275.44 993.287 275.664C993.695 275.911 994.285 276.491 994.997 277.229C995.558 277.811 995.71 278.178 995.894 278.533C996.029 278.795 996.053 280.221 996.079 282.169C996.1 283.786 996.106 285.418 995.817 285.788C995.471 286.229 994.923 286.472 994.514 286.644C994.247 286.757 993.974 286.79 993.425 286.972C992.15 287.396 991.158 288.052 990.75 288.328C990.213 288.691 989.578 288.948 988.697 289.172C988.348 289.26 988.128 289.396 987.905 289.37C987.425 289.314 987.311 288.923 987.232 288.766C987.195 288.691 987.206 288.608 987.258 288.646C987.688 288.959 988.28 289.159 988.837 289.395C989.026 289.475 989.101 289.711 989.31 289.83C989.816 290.115 990.258 289.791 990.693 289.582C990.81 289.525 990.942 289.502 991.048 289.463C991.154 289.423 991.233 289.371 990.843 289.136C990.453 288.9 989.593 288.483 988.785 288.138C987.265 287.489 986.416 287.211 986.272 287.093C985.992 286.864 985.864 286.162 985.797 283.652C985.776 282.88 986.204 282.526 986.559 282.17C986.856 281.872 987.439 281.526 987.836 281.182C988.217 280.853 988.495 280.289 988.706 279.879C988.96 279.385 989.022 278.529 989.061 277.528C989.074 277.203 989.179 277.257 989.245 277.336C989.386 277.503 989.391 278.33 989.326 279.527C989.248 280.95 988.575 281.733 988.509 281.904C988.476 281.991 988.522 282.101 988.6 282.18C988.679 282.26 988.809 282.312 988.941 282.313C989.074 282.314 989.204 282.262 989.31 282.17C989.915 281.646 990.048 280.369 990.167 279.672C990.214 279.393 990.207 279.262 989.868 279.468C989.53 279.675 988.852 280.222 988.216 280.843C986.946 282.083 986.259 283.153 985.983 283.757C985.561 284.681 985.757 285.339 985.875 285.799C985.921 285.979 986.019 286.025 986.281 285.908C987.023 285.578 987.729 284.897 988.294 284.214C988.902 283.48 989.31 282.503 989.691 281.531C990.045 280.629 990.259 279.242 990.482 277.755C990.569 277.18 990.627 276.973 990.654 276.813C990.681 276.653 990.681 276.549 990.29 277.708C989.899 278.866 989.117 281.29 988.701 282.656C988.285 284.023 988.259 284.257 988.285 284.391C988.311 284.525 988.389 284.551 988.507 284.512C988.802 284.416 989.204 284.001 989.834 283.267C990.761 282.187 991.285 281.105 991.6 280.436C991.771 280.073 992.019 279.688 992.023 279.904C992.026 280.12 991.792 280.954 991.371 282.022C990.951 283.09 990.351 284.368 990.081 284.895C989.812 285.423 989.89 285.162 990.425 284.207C990.961 283.252 991.951 281.609 992.279 281.272C992.753 280.784 991.449 283.832 991.013 284.705C990.641 285.448 992.126 282.348 992.639 281.189C992.753 280.931 992.475 282.614 992.001 284.879C991.844 285.627 991.943 285.579 992.375 284.953C992.806 284.327 993.588 283.128 994.004 282.575C994.42 282.022 994.446 282.153 994.316 282.624C993.958 283.921 993.369 285.179 992.636 285.863C991.698 286.739 990.498 286.132 990.301 286.04C989.744 285.781 988.975 284.976 988.326 284.762C987.694 284.553 988.759 286.312 989.034 286.723C989.294 287.11 989.994 286.002 990.845 285.099C991.457 284.45 992.348 283.336 992.831 282.694C993.4 281.937 993.367 281.578 993.341 281.237C993.286 280.521 992.763 280.235 992.237 279.709C991.877 279.35 991.945 278.892 991.866 278.51C991.847 278.416 991.814 278.339 991.853 278.299C991.891 278.259 991.996 278.259 992.088 278.298C992.47 278.458 992.733 278.81 992.906 279.218C993.077 279.624 993.077 279.996 993.156 280.114C993.231 280.228 993.445 280.128 993.59 280.05C994.07 279.789 994.024 278.761 994.104 278.352C994.308 277.304 994.184 275.469 994.157 275.206C994.125 274.892 994.944 275.413 995.314 275.795C995.446 275.93 995.473 276.151 995.552 276.348C995.588 276.438 995.579 276.519 995.513 276.52C994.913 276.531 994.318 275.576 993.869 275.258C993.233 274.807 992.16 275.151 991.434 275.322C990.954 275.435 990.552 275.808 990.208 276.098C989.756 276.48 989.629 276.966 989.549 277.611C989.477 278.196 989.338 278.494 989.195 278.941C988.868 279.957 988.392 280.101 987.945 280.364C987.619 280.556 987.13 280.785 986.733 281.022C986.394 281.226 986.101 281.522 985.785 281.72C985.49 281.905 984.371 281.971 983.455 281.827C983.091 281.77 982.732 281.63 982.284 281.55C981.733 281.452 981.441 281.156 981.098 280.971C981.046 280.943 981.044 281.126 981.083 281.258C981.122 281.391 981.201 281.521 981.293 281.601C981.751 281.998 982.935 281.63 983.688 281.55C984.483 281.466 985.095 281.26 985.82 281.077C986.635 280.871 986.967 280.603 987.309 280.458C987.789 280.254 988.231 280.26 988.613 280.076C988.794 279.989 988.917 279.839 989.009 279.669C989.21 279.294 989.18 278.006 989.089 277.233C989.048 276.887 988.787 276.549 988.628 276.14C988.499 275.81 988.39 275.495 988.299 275.166C988.177 274.729 987.943 274.39 987.746 274.008C987.602 273.837 987.443 273.73 987.286 273.677C987.206 273.651 987.128 273.625 986.969 273.598" stroke="#001A33" stroke-width="3" stroke-linecap="round"/>
<path d="M341.814 242.225C344.429 242.225 347.045 242.225 362.592 242.225C378.14 242.225 406.539 242.225 429.67 240.45C452.802 238.675 469.804 235.125 478.937 233.296C488.069 231.467 488.816 231.467 504.335 228.104C519.854 224.741 550.122 218.015 566.369 214.456C583.903 210.616 586.392 210.145 588.838 209.485C594.578 207.937 599.595 207.688 612.02 204.868C616.131 203.935 620.159 203.543 624.963 202.318C628.767 201.347 633.741 201.46 640.142 201.18C643.375 201.038 646.543 200.339 655.372 200.05C664.202 199.761 678.588 199.761 690.764 200.695C702.94 201.63 712.468 203.498 718.685 204.928C727.518 207.291 730.96 208.441 732.372 208.911C733.038 209.194 733.598 209.567 735.308 210.519" stroke="#001A33" stroke-linecap="round"/>
</svg>
